%
M48
M72
T01C0.01181
T02C0.03622
T03C0.04000
T04C0.04300
T05C0.04724
T06C0.09055
T07C0.12000
T08C0.12598
%
T01
X72457Y46079
X76394Y46079
X80331Y46079
X84268Y46079
X101984Y46079
X105921Y46079
X109858Y46079
X113795Y46079
X117732Y46079
X117732Y67339
X113795Y67339
X109858Y67339
X105921Y67339
X101984Y67339
X84268Y67339
X80331Y67339
X76394Y67339
X72457Y67339
X79543Y89664
X79853Y92845
X82299Y94898
X106315Y110252
X110646Y115370
X129543Y122457
X127181Y127181
X127181Y131118
X127181Y135449
X127181Y139386
X137417Y119701
X153559Y97654
X159465Y97654
X163008Y97654
X164976Y100409
X172457Y96079
X179150Y96079
X194898Y107890
X192142Y137417
X185055Y137417
X195291Y147260
X200409Y143323
X205921Y139780
X208283Y137417
X220882Y140567
X244504Y137024
X268126Y139386
X283962Y137899
X284268Y143323
X292535Y149622
X299228Y140173
X303165Y136236
X307102Y140173
X307102Y132299
X299228Y132299
X288992Y126394
X283087Y130331
X288205Y110646
X277181Y153953
X281118Y157890
X273244Y161827
X245685Y178756
X245685Y181591
X261827Y198047
X261827Y210252
X312614Y201197
X176000Y179150
X176000Y172063
X165764Y173638
X163008Y175606
X160252Y173638
X164976Y185449
X161039Y159858
X157102Y159858
X153165Y159858
X125606Y176000
X119307Y176000
X49228Y188992
X45685Y192929
X45685Y207890
X35055Y208047
X38992Y218913
X42929Y218913
X46866Y218913
X50803Y218913
T02
X150213Y78795
X150213Y70921
X160055Y70921
X160055Y78795
T03
X116984Y100803
X106984Y100803
X96984Y100803
X86984Y100803
X96984Y130331
X106984Y130331
X30055Y133047
X20055Y133047
X20055Y143047
X30055Y143047
X30055Y153047
X20055Y153047
X20055Y163047
X30055Y163047
X30055Y173047
X20055Y173047
X20055Y183047
X30055Y183047
X30055Y193047
X20055Y193047
X20055Y203047
X30055Y203047
X30055Y213047
X20055Y213047
X20055Y223047
X30055Y223047
X30055Y233047
X20055Y233047
X20055Y243047
X30055Y243047
X58362Y237378
X68362Y237378
X78362Y237378
X88362Y237378
X98362Y237378
X117575Y237378
X127575Y237378
X137575Y237378
X156945Y237378
X166945Y237378
X176945Y237378
X196315Y237378
X206315Y237378
X216315Y237378
X235685Y237378
X245685Y237378
X255685Y237378
X30055Y123047
X30055Y113047
X30055Y103047
X20055Y103047
X20055Y113047
X20055Y123047
X20055Y93047
X20055Y83047
X30055Y83047
X30055Y93047
X30055Y73047
X30055Y63047
X30055Y53047
X20055Y53047
X20055Y63047
X20055Y73047
T04
X340479Y82647
X340479Y93547
X351679Y88097
X351679Y98997
X340479Y104447
X351679Y109897
X340479Y115347
X340479Y126247
X351679Y120797
X351679Y131697
X340479Y137147
X351679Y142597
X340479Y148047
X351679Y153497
X351679Y164397
X340479Y158947
X340479Y169847
X351679Y175297
X340479Y180747
X351679Y186197
X340479Y191647
X340479Y202547
X351679Y197097
X351679Y207997
X340479Y213447
T05
X287024Y102772
X247654Y102772
X208283Y102772
X208283Y33874
X247654Y33874
X287024Y33874
T06
X178835Y60252
X131433Y60252
T07
X346079Y55447
X346079Y240647
T08
X35449Y31906
X35449Y264189
X371669Y264189
X371669Y31906
M30
