G75*
%MOIN*%
%OFA0B0*%
%FSLAX25Y25*%
%IPPOS*%
%LPD*%
%AMOC8*
5,1,8,0,0,1.08239X$1,22.5*
%
%ADD10C,0.06000*%
%ADD11C,0.06450*%
%ADD12C,0.13055*%
%ADD13C,0.05433*%
%ADD14C,0.07087*%
%ADD15C,0.02381*%
%ADD16C,0.01181*%
D10*
X0020055Y0053047D03*
X0030055Y0053047D03*
X0030055Y0063047D03*
X0020055Y0063047D03*
X0020055Y0073047D03*
X0030055Y0073047D03*
X0030055Y0083047D03*
X0020055Y0083047D03*
X0020055Y0093047D03*
X0030055Y0093047D03*
X0030055Y0103047D03*
X0020055Y0103047D03*
X0020055Y0113047D03*
X0030055Y0113047D03*
X0030055Y0123047D03*
X0020055Y0123047D03*
X0020055Y0133047D03*
X0030055Y0133047D03*
X0030055Y0143047D03*
X0020055Y0143047D03*
X0020055Y0153047D03*
X0030055Y0153047D03*
X0030055Y0163047D03*
X0020055Y0163047D03*
X0020055Y0173047D03*
X0030055Y0173047D03*
X0030055Y0183047D03*
X0020055Y0183047D03*
X0020055Y0193047D03*
X0030055Y0193047D03*
X0030055Y0203047D03*
X0020055Y0203047D03*
X0020055Y0213047D03*
X0030055Y0213047D03*
X0030055Y0223047D03*
X0020055Y0223047D03*
X0020055Y0233047D03*
X0030055Y0233047D03*
X0030055Y0243047D03*
X0020055Y0243047D03*
X0058362Y0237378D03*
X0068362Y0237378D03*
X0078362Y0237378D03*
X0088362Y0237378D03*
X0098362Y0237378D03*
X0117575Y0237378D03*
X0127575Y0237378D03*
X0137575Y0237378D03*
X0156945Y0237378D03*
X0166945Y0237378D03*
X0176945Y0237378D03*
X0196315Y0237378D03*
X0206315Y0237378D03*
X0216315Y0237378D03*
X0235685Y0237378D03*
X0245685Y0237378D03*
X0255685Y0237378D03*
X0106984Y0130331D03*
X0096984Y0130331D03*
X0096984Y0100803D03*
X0086984Y0100803D03*
X0106984Y0100803D03*
X0116984Y0100803D03*
D11*
X0340479Y0104447D03*
X0351679Y0098997D03*
X0340479Y0093547D03*
X0340479Y0082647D03*
X0351679Y0088097D03*
X0351679Y0109897D03*
X0340479Y0115347D03*
X0340479Y0126247D03*
X0351679Y0120797D03*
X0351679Y0131697D03*
X0340479Y0137147D03*
X0351679Y0142597D03*
X0340479Y0148047D03*
X0351679Y0153497D03*
X0351679Y0164397D03*
X0340479Y0158947D03*
X0340479Y0169847D03*
X0351679Y0175297D03*
X0340479Y0180747D03*
X0351679Y0186197D03*
X0340479Y0191647D03*
X0340479Y0202547D03*
X0351679Y0197097D03*
X0351679Y0207997D03*
X0340479Y0213447D03*
D12*
X0178835Y0060252D03*
X0131433Y0060252D03*
D13*
X0150213Y0070921D03*
X0150213Y0078795D03*
X0160055Y0078795D03*
X0160055Y0070921D03*
D14*
X0208283Y0102772D03*
X0247654Y0102772D03*
X0287024Y0102772D03*
X0287024Y0033874D03*
X0247654Y0033874D03*
X0208283Y0033874D03*
D15*
X0179150Y0096079D03*
X0172457Y0096079D03*
X0164976Y0100409D03*
X0163008Y0097654D03*
X0159465Y0097654D03*
X0153559Y0097654D03*
X0137417Y0119701D03*
X0129543Y0122457D03*
X0127181Y0127181D03*
X0127181Y0131118D03*
X0127181Y0135449D03*
X0127181Y0139386D03*
X0153165Y0159858D03*
X0157102Y0159858D03*
X0161039Y0159858D03*
X0176000Y0172063D03*
X0176000Y0179150D03*
X0165764Y0173638D03*
X0163008Y0175606D03*
X0160252Y0173638D03*
X0164976Y0185449D03*
X0125606Y0176000D03*
X0119307Y0176000D03*
X0185055Y0137417D03*
X0192142Y0137417D03*
X0200409Y0143323D03*
X0205921Y0139780D03*
X0208283Y0137417D03*
X0220882Y0140567D03*
X0244504Y0137024D03*
X0268126Y0139386D03*
X0283962Y0137899D03*
X0284268Y0143323D03*
X0292535Y0149622D03*
X0299228Y0140173D03*
X0303165Y0136236D03*
X0307102Y0140173D03*
X0307102Y0132299D03*
X0299228Y0132299D03*
X0288992Y0126394D03*
X0283087Y0130331D03*
X0288205Y0110646D03*
X0277181Y0153953D03*
X0281118Y0157890D03*
X0273244Y0161827D03*
X0245685Y0178756D03*
X0245685Y0181591D03*
X0261827Y0198047D03*
X0261827Y0210252D03*
X0312614Y0201197D03*
X0195291Y0147260D03*
X0194898Y0107890D03*
X0117732Y0067339D03*
X0113795Y0067339D03*
X0109858Y0067339D03*
X0105921Y0067339D03*
X0101984Y0067339D03*
X0084268Y0067339D03*
X0080331Y0067339D03*
X0076394Y0067339D03*
X0072457Y0067339D03*
X0072457Y0046079D03*
X0076394Y0046079D03*
X0080331Y0046079D03*
X0084268Y0046079D03*
X0101984Y0046079D03*
X0105921Y0046079D03*
X0109858Y0046079D03*
X0113795Y0046079D03*
X0117732Y0046079D03*
X0079543Y0089664D03*
X0079853Y0092845D03*
X0082299Y0094898D03*
X0106315Y0110252D03*
X0110646Y0115370D03*
X0049228Y0188992D03*
X0045685Y0192929D03*
X0045685Y0207890D03*
X0035055Y0208047D03*
X0038992Y0218913D03*
X0042929Y0218913D03*
X0046866Y0218913D03*
X0050803Y0218913D03*
D16*
X0017631Y0024590D02*
X0019716Y0023387D01*
X0019716Y0023387D01*
X0022041Y0022764D01*
X0023244Y0022685D01*
X0371669Y0022685D01*
X0372873Y0022764D01*
X0375198Y0023387D01*
X0377282Y0024590D01*
X0378984Y0026292D01*
X0380188Y0028377D01*
X0380811Y0030702D01*
X0380890Y0031905D01*
X0380890Y0263674D01*
X0380890Y0264189D01*
X0380811Y0265392D01*
X0380188Y0267717D01*
X0378984Y0269802D01*
X0377282Y0271504D01*
X0375198Y0272708D01*
X0372873Y0273331D01*
X0371669Y0273409D01*
X0023244Y0273409D01*
X0022041Y0273331D01*
X0019716Y0272708D01*
X0017631Y0271504D01*
X0015929Y0269802D01*
X0014725Y0267717D01*
X0014102Y0265392D01*
X0014024Y0264189D01*
X0014024Y0031906D01*
X0014102Y0030702D01*
X0014725Y0028377D01*
X0015929Y0026292D01*
X0017631Y0024590D01*
X0017408Y0024813D02*
X0029969Y0024813D01*
X0030413Y0024369D02*
X0033681Y0023016D01*
X0037217Y0023016D01*
X0040484Y0024369D01*
X0042985Y0026870D01*
X0044339Y0030137D01*
X0044339Y0033674D01*
X0042985Y0036941D01*
X0040484Y0039442D01*
X0037217Y0040795D01*
X0033681Y0040795D01*
X0030413Y0039442D01*
X0027912Y0036941D01*
X0026559Y0033674D01*
X0026559Y0030137D01*
X0027912Y0026870D01*
X0030413Y0024369D01*
X0032190Y0023633D02*
X0019289Y0023633D01*
X0016229Y0025993D02*
X0028790Y0025993D01*
X0027787Y0027172D02*
X0015421Y0027172D01*
X0014740Y0028352D02*
X0027299Y0028352D01*
X0026810Y0029531D02*
X0014416Y0029531D01*
X0014102Y0030711D02*
X0026559Y0030711D01*
X0026559Y0031891D02*
X0014025Y0031891D01*
X0014024Y0033070D02*
X0026559Y0033070D01*
X0026798Y0034250D02*
X0014024Y0034250D01*
X0014024Y0035429D02*
X0027286Y0035429D01*
X0027775Y0036609D02*
X0014024Y0036609D01*
X0014024Y0037789D02*
X0028760Y0037789D01*
X0029940Y0038968D02*
X0014024Y0038968D01*
X0014024Y0040148D02*
X0032118Y0040148D01*
X0038780Y0040148D02*
X0368338Y0040148D01*
X0369901Y0040795D02*
X0366634Y0039442D01*
X0364133Y0036941D01*
X0362780Y0033674D01*
X0362780Y0030137D01*
X0364133Y0026870D01*
X0366634Y0024369D01*
X0369901Y0023016D01*
X0373438Y0023016D01*
X0376705Y0024369D01*
X0379206Y0026870D01*
X0380559Y0030137D01*
X0380559Y0033674D01*
X0379206Y0036941D01*
X0376705Y0039442D01*
X0373438Y0040795D01*
X0369901Y0040795D01*
X0366160Y0038968D02*
X0248307Y0038968D01*
X0248244Y0038968D02*
X0247063Y0038968D01*
X0247063Y0038978D02*
X0246451Y0038881D01*
X0245683Y0038632D01*
X0244963Y0038265D01*
X0244309Y0037790D01*
X0243738Y0037218D01*
X0243263Y0036565D01*
X0242896Y0035845D01*
X0242646Y0035076D01*
X0242549Y0034465D01*
X0247063Y0034465D01*
X0247063Y0038978D01*
X0247000Y0038968D02*
X0040958Y0038968D01*
X0042138Y0037789D02*
X0205503Y0037789D01*
X0205602Y0037887D02*
X0204270Y0036556D01*
X0203550Y0034816D01*
X0203550Y0032932D01*
X0204270Y0031192D01*
X0205602Y0029861D01*
X0207342Y0029140D01*
X0209225Y0029140D01*
X0210965Y0029861D01*
X0212297Y0031192D01*
X0213017Y0032932D01*
X0213017Y0034816D01*
X0212297Y0036556D01*
X0210965Y0037887D01*
X0209225Y0038608D01*
X0207342Y0038608D01*
X0205602Y0037887D01*
X0204324Y0036609D02*
X0043123Y0036609D01*
X0043611Y0035429D02*
X0203804Y0035429D01*
X0203550Y0034250D02*
X0044100Y0034250D01*
X0044339Y0033070D02*
X0203550Y0033070D01*
X0203981Y0031891D02*
X0044339Y0031891D01*
X0044339Y0030711D02*
X0204752Y0030711D01*
X0206397Y0029531D02*
X0044088Y0029531D01*
X0043599Y0028352D02*
X0363519Y0028352D01*
X0363030Y0029531D02*
X0288910Y0029531D01*
X0289705Y0029861D02*
X0291037Y0031192D01*
X0291757Y0032932D01*
X0291757Y0034816D01*
X0291037Y0036556D01*
X0289705Y0037887D01*
X0287965Y0038608D01*
X0286082Y0038608D01*
X0284342Y0037887D01*
X0283010Y0036556D01*
X0282290Y0034816D01*
X0282290Y0032932D01*
X0283010Y0031192D01*
X0284342Y0029861D01*
X0286082Y0029140D01*
X0287965Y0029140D01*
X0289705Y0029861D01*
X0290555Y0030711D02*
X0362780Y0030711D01*
X0362780Y0031891D02*
X0291326Y0031891D01*
X0291757Y0033070D02*
X0362780Y0033070D01*
X0363018Y0034250D02*
X0291757Y0034250D01*
X0291503Y0035429D02*
X0363507Y0035429D01*
X0363995Y0036609D02*
X0290983Y0036609D01*
X0289804Y0037789D02*
X0364980Y0037789D01*
X0375000Y0040148D02*
X0380890Y0040148D01*
X0380890Y0041328D02*
X0014024Y0041328D01*
X0014024Y0042507D02*
X0380890Y0042507D01*
X0380890Y0043687D02*
X0014024Y0043687D01*
X0014024Y0044866D02*
X0380890Y0044866D01*
X0380890Y0046046D02*
X0014024Y0046046D01*
X0014024Y0047226D02*
X0343479Y0047226D01*
X0344370Y0046857D02*
X0347787Y0046857D01*
X0350945Y0048165D01*
X0353361Y0050581D01*
X0354669Y0053738D01*
X0354669Y0057156D01*
X0353361Y0060313D01*
X0350945Y0062730D01*
X0347787Y0064038D01*
X0344370Y0064038D01*
X0341213Y0062730D01*
X0338796Y0060313D01*
X0337488Y0057156D01*
X0337488Y0053738D01*
X0338796Y0050581D01*
X0341213Y0048165D01*
X0344370Y0046857D01*
X0340972Y0048405D02*
X0014024Y0048405D01*
X0014024Y0049585D02*
X0017026Y0049585D01*
X0017065Y0049546D02*
X0017649Y0049121D01*
X0018293Y0048793D01*
X0018980Y0048570D01*
X0019646Y0048464D01*
X0019646Y0052638D01*
X0020465Y0052638D01*
X0020465Y0053457D01*
X0024638Y0053457D01*
X0024533Y0054122D01*
X0024309Y0054809D01*
X0023981Y0055453D01*
X0023557Y0056038D01*
X0023046Y0056549D01*
X0022461Y0056973D01*
X0021817Y0057301D01*
X0021130Y0057525D01*
X0020465Y0057630D01*
X0020465Y0053457D01*
X0019646Y0053457D01*
X0019646Y0057630D01*
X0018980Y0057525D01*
X0018293Y0057301D01*
X0017649Y0056973D01*
X0017065Y0056549D01*
X0016554Y0056038D01*
X0016129Y0055453D01*
X0015801Y0054809D01*
X0015578Y0054122D01*
X0015472Y0053457D01*
X0019646Y0053457D01*
X0019646Y0052638D01*
X0015472Y0052638D01*
X0015578Y0051972D01*
X0015801Y0051285D01*
X0016129Y0050641D01*
X0016554Y0050057D01*
X0017065Y0049546D01*
X0016066Y0050764D02*
X0014024Y0050764D01*
X0014024Y0051944D02*
X0015587Y0051944D01*
X0014024Y0053124D02*
X0019646Y0053124D01*
X0020465Y0053124D02*
X0025865Y0053124D01*
X0025865Y0053881D02*
X0025865Y0052214D01*
X0026503Y0050673D01*
X0027681Y0049495D01*
X0029222Y0048857D01*
X0030889Y0048857D01*
X0032429Y0049495D01*
X0033608Y0050673D01*
X0034246Y0052214D01*
X0034246Y0053881D01*
X0033608Y0055421D01*
X0032429Y0056600D01*
X0030889Y0057238D01*
X0029222Y0057238D01*
X0027681Y0056600D01*
X0026503Y0055421D01*
X0025865Y0053881D01*
X0026040Y0054303D02*
X0024474Y0054303D01*
X0023960Y0055483D02*
X0026564Y0055483D01*
X0027833Y0056663D02*
X0022889Y0056663D01*
X0020465Y0056663D02*
X0019646Y0056663D01*
X0019646Y0055483D02*
X0020465Y0055483D01*
X0020465Y0054303D02*
X0019646Y0054303D01*
X0020465Y0052638D02*
X0024638Y0052638D01*
X0024533Y0051972D01*
X0024309Y0051285D01*
X0023981Y0050641D01*
X0023557Y0050057D01*
X0023046Y0049546D01*
X0022461Y0049121D01*
X0021817Y0048793D01*
X0021130Y0048570D01*
X0020465Y0048464D01*
X0020465Y0052638D01*
X0020465Y0051944D02*
X0019646Y0051944D01*
X0019646Y0050764D02*
X0020465Y0050764D01*
X0020465Y0049585D02*
X0019646Y0049585D01*
X0023085Y0049585D02*
X0027591Y0049585D01*
X0026465Y0050764D02*
X0024044Y0050764D01*
X0024523Y0051944D02*
X0025976Y0051944D01*
X0032519Y0049585D02*
X0339792Y0049585D01*
X0338720Y0050764D02*
X0033645Y0050764D01*
X0034134Y0051944D02*
X0338231Y0051944D01*
X0337743Y0053124D02*
X0182724Y0053124D01*
X0182433Y0052955D02*
X0183354Y0053488D01*
X0184199Y0054135D01*
X0184951Y0054888D01*
X0185599Y0055732D01*
X0186131Y0056654D01*
X0186538Y0057637D01*
X0186814Y0058665D01*
X0186945Y0059661D01*
X0179425Y0059661D01*
X0179425Y0052142D01*
X0180422Y0052273D01*
X0181450Y0052548D01*
X0182433Y0052955D01*
X0184367Y0054303D02*
X0337488Y0054303D01*
X0337488Y0055483D02*
X0185408Y0055483D01*
X0186135Y0056663D02*
X0337488Y0056663D01*
X0337772Y0057842D02*
X0186593Y0057842D01*
X0186861Y0059022D02*
X0338261Y0059022D01*
X0338750Y0060201D02*
X0179425Y0060201D01*
X0179425Y0059661D02*
X0179425Y0060842D01*
X0186945Y0060842D01*
X0186814Y0061839D01*
X0186538Y0062867D01*
X0186131Y0063850D01*
X0185599Y0064772D01*
X0184951Y0065616D01*
X0184199Y0066369D01*
X0183354Y0067016D01*
X0182433Y0067548D01*
X0181450Y0067956D01*
X0180422Y0068231D01*
X0179425Y0068362D01*
X0179425Y0060843D01*
X0178244Y0060843D01*
X0178244Y0068362D01*
X0177247Y0068231D01*
X0176220Y0067956D01*
X0175236Y0067548D01*
X0174315Y0067016D01*
X0173471Y0066369D01*
X0172718Y0065616D01*
X0172070Y0064772D01*
X0171538Y0063850D01*
X0171131Y0062867D01*
X0170855Y0061839D01*
X0170724Y0060842D01*
X0178244Y0060842D01*
X0178244Y0059661D01*
X0179425Y0059661D01*
X0179425Y0059022D02*
X0178244Y0059022D01*
X0178244Y0059661D02*
X0178244Y0052142D01*
X0177247Y0052273D01*
X0176220Y0052548D01*
X0175236Y0052955D01*
X0174315Y0053488D01*
X0173471Y0054135D01*
X0172718Y0054888D01*
X0172070Y0055732D01*
X0171538Y0056654D01*
X0171131Y0057637D01*
X0170855Y0058665D01*
X0170724Y0059661D01*
X0178244Y0059661D01*
X0178244Y0060201D02*
X0132024Y0060201D01*
X0132024Y0059661D02*
X0132024Y0060842D01*
X0139543Y0060842D01*
X0139412Y0061839D01*
X0139137Y0062867D01*
X0138730Y0063850D01*
X0138198Y0064772D01*
X0137550Y0065616D01*
X0136797Y0066369D01*
X0135953Y0067016D01*
X0135031Y0067548D01*
X0134048Y0067956D01*
X0133020Y0068231D01*
X0132024Y0068362D01*
X0132024Y0060843D01*
X0130843Y0060843D01*
X0130843Y0068362D01*
X0129846Y0068231D01*
X0128818Y0067956D01*
X0127835Y0067548D01*
X0126913Y0067016D01*
X0126069Y0066369D01*
X0125316Y0065616D01*
X0124669Y0064772D01*
X0124137Y0063850D01*
X0123729Y0062867D01*
X0123454Y0061839D01*
X0123323Y0060842D01*
X0130842Y0060842D01*
X0130842Y0059661D01*
X0123323Y0059661D01*
X0123454Y0058665D01*
X0123729Y0057637D01*
X0124137Y0056654D01*
X0124669Y0055732D01*
X0125316Y0054888D01*
X0126069Y0054135D01*
X0126913Y0053488D01*
X0127835Y0052955D01*
X0128818Y0052548D01*
X0129846Y0052273D01*
X0130843Y0052142D01*
X0130843Y0059661D01*
X0132024Y0059661D01*
X0139543Y0059661D01*
X0139412Y0058665D01*
X0139137Y0057637D01*
X0138730Y0056654D01*
X0138198Y0055732D01*
X0137550Y0054888D01*
X0136797Y0054135D01*
X0135953Y0053488D01*
X0135031Y0052955D01*
X0134048Y0052548D01*
X0133020Y0052273D01*
X0132024Y0052142D01*
X0132024Y0059661D01*
X0132024Y0059022D02*
X0130843Y0059022D01*
X0130842Y0060201D02*
X0033136Y0060201D01*
X0033608Y0060673D02*
X0034246Y0062214D01*
X0034246Y0063881D01*
X0033608Y0065421D01*
X0032429Y0066600D01*
X0030889Y0067238D01*
X0029222Y0067238D01*
X0027681Y0066600D01*
X0026503Y0065421D01*
X0025865Y0063881D01*
X0025865Y0062214D01*
X0026503Y0060673D01*
X0027681Y0059495D01*
X0029222Y0058857D01*
X0030889Y0058857D01*
X0032429Y0059495D01*
X0033608Y0060673D01*
X0033901Y0061381D02*
X0123394Y0061381D01*
X0123647Y0062561D02*
X0034246Y0062561D01*
X0034246Y0063740D02*
X0124091Y0063740D01*
X0124782Y0064920D02*
X0033815Y0064920D01*
X0032929Y0066099D02*
X0070328Y0066099D01*
X0070076Y0066352D02*
X0071470Y0064957D01*
X0073443Y0064957D01*
X0074425Y0065940D01*
X0075407Y0064957D01*
X0077380Y0064957D01*
X0078362Y0065940D01*
X0079344Y0064957D01*
X0081317Y0064957D01*
X0082299Y0065940D01*
X0083281Y0064957D01*
X0085254Y0064957D01*
X0086649Y0066352D01*
X0086649Y0068325D01*
X0085254Y0069720D01*
X0083281Y0069720D01*
X0082299Y0068737D01*
X0081317Y0069720D01*
X0079344Y0069720D01*
X0078362Y0068737D01*
X0077380Y0069720D01*
X0075407Y0069720D01*
X0074425Y0068737D01*
X0073443Y0069720D01*
X0071470Y0069720D01*
X0070076Y0068325D01*
X0070076Y0066352D01*
X0070076Y0067279D02*
X0014024Y0067279D01*
X0014024Y0066099D02*
X0017181Y0066099D01*
X0017681Y0066600D02*
X0016503Y0065421D01*
X0015865Y0063881D01*
X0015865Y0062214D01*
X0016503Y0060673D01*
X0017681Y0059495D01*
X0019222Y0058857D01*
X0020889Y0058857D01*
X0022429Y0059495D01*
X0023608Y0060673D01*
X0024246Y0062214D01*
X0024246Y0063881D01*
X0023608Y0065421D01*
X0022429Y0066600D01*
X0020889Y0067238D01*
X0019222Y0067238D01*
X0017681Y0066600D01*
X0016295Y0064920D02*
X0014024Y0064920D01*
X0014024Y0063740D02*
X0015865Y0063740D01*
X0015865Y0062561D02*
X0014024Y0062561D01*
X0014024Y0061381D02*
X0016209Y0061381D01*
X0016975Y0060201D02*
X0014024Y0060201D01*
X0014024Y0059022D02*
X0018823Y0059022D01*
X0021287Y0059022D02*
X0028823Y0059022D01*
X0026975Y0060201D02*
X0023136Y0060201D01*
X0023901Y0061381D02*
X0026209Y0061381D01*
X0025865Y0062561D02*
X0024246Y0062561D01*
X0024246Y0063740D02*
X0025865Y0063740D01*
X0026295Y0064920D02*
X0023815Y0064920D01*
X0022929Y0066099D02*
X0027181Y0066099D01*
X0029222Y0068857D02*
X0027681Y0069495D01*
X0026503Y0070673D01*
X0025865Y0072214D01*
X0025865Y0073881D01*
X0026503Y0075421D01*
X0027681Y0076600D01*
X0029222Y0077238D01*
X0030889Y0077238D01*
X0032429Y0076600D01*
X0033608Y0075421D01*
X0034246Y0073881D01*
X0034246Y0072214D01*
X0033608Y0070673D01*
X0032429Y0069495D01*
X0030889Y0068857D01*
X0029222Y0068857D01*
X0027538Y0069638D02*
X0022572Y0069638D01*
X0022429Y0069495D02*
X0023608Y0070673D01*
X0024246Y0072214D01*
X0024246Y0073881D01*
X0023608Y0075421D01*
X0022429Y0076600D01*
X0020889Y0077238D01*
X0019222Y0077238D01*
X0017681Y0076600D01*
X0016503Y0075421D01*
X0015865Y0073881D01*
X0015865Y0072214D01*
X0016503Y0070673D01*
X0017681Y0069495D01*
X0019222Y0068857D01*
X0020889Y0068857D01*
X0022429Y0069495D01*
X0023667Y0070818D02*
X0026443Y0070818D01*
X0025954Y0071997D02*
X0024156Y0071997D01*
X0024246Y0073177D02*
X0025865Y0073177D01*
X0026062Y0074357D02*
X0024049Y0074357D01*
X0023492Y0075536D02*
X0026618Y0075536D01*
X0027962Y0076716D02*
X0022149Y0076716D01*
X0021416Y0079075D02*
X0028694Y0079075D01*
X0029222Y0078857D02*
X0030889Y0078857D01*
X0032429Y0079495D01*
X0033608Y0080673D01*
X0034246Y0082214D01*
X0034246Y0083881D01*
X0033608Y0085421D01*
X0032429Y0086600D01*
X0030889Y0087238D01*
X0029222Y0087238D01*
X0027681Y0086600D01*
X0026503Y0085421D01*
X0025865Y0083881D01*
X0025865Y0082214D01*
X0026503Y0080673D01*
X0027681Y0079495D01*
X0029222Y0078857D01*
X0031416Y0079075D02*
X0146306Y0079075D01*
X0146306Y0079572D02*
X0146306Y0078018D01*
X0146900Y0076582D01*
X0147999Y0075483D01*
X0149435Y0074888D01*
X0150990Y0074888D01*
X0152426Y0075483D01*
X0153525Y0076582D01*
X0154120Y0078018D01*
X0154120Y0079572D01*
X0153525Y0081008D01*
X0152426Y0082108D01*
X0150990Y0082702D01*
X0149435Y0082702D01*
X0147999Y0082108D01*
X0146900Y0081008D01*
X0146306Y0079572D01*
X0146588Y0080255D02*
X0033189Y0080255D01*
X0033923Y0081434D02*
X0147326Y0081434D01*
X0149222Y0082614D02*
X0034246Y0082614D01*
X0034246Y0083794D02*
X0336174Y0083794D01*
X0336063Y0083526D02*
X0336063Y0081769D01*
X0336735Y0080146D01*
X0337978Y0078904D01*
X0339600Y0078232D01*
X0341357Y0078232D01*
X0342980Y0078904D01*
X0344222Y0080146D01*
X0344894Y0081769D01*
X0344894Y0083526D01*
X0344222Y0085148D01*
X0342980Y0086391D01*
X0341357Y0087063D01*
X0339600Y0087063D01*
X0337978Y0086391D01*
X0336735Y0085148D01*
X0336063Y0083526D01*
X0336063Y0082614D02*
X0161046Y0082614D01*
X0160832Y0082702D02*
X0159278Y0082702D01*
X0157842Y0082108D01*
X0156743Y0081008D01*
X0156148Y0079572D01*
X0156148Y0078018D01*
X0156743Y0076582D01*
X0157842Y0075483D01*
X0158860Y0075062D01*
X0158402Y0074913D01*
X0157798Y0074605D01*
X0157249Y0074207D01*
X0156770Y0073727D01*
X0156371Y0073179D01*
X0156064Y0072575D01*
X0155854Y0071930D01*
X0155748Y0071260D01*
X0155748Y0071236D01*
X0159740Y0071236D01*
X0159740Y0070606D01*
X0160370Y0070606D01*
X0160370Y0066614D01*
X0160394Y0066614D01*
X0161064Y0066720D01*
X0161708Y0066930D01*
X0162313Y0067238D01*
X0162861Y0067636D01*
X0163340Y0068115D01*
X0163739Y0068664D01*
X0164047Y0069268D01*
X0164256Y0069913D01*
X0164362Y0070582D01*
X0164362Y0070606D01*
X0160370Y0070606D01*
X0160370Y0071236D01*
X0164362Y0071236D01*
X0164362Y0071260D01*
X0164256Y0071930D01*
X0164047Y0072575D01*
X0163739Y0073179D01*
X0163340Y0073727D01*
X0162861Y0074207D01*
X0162313Y0074605D01*
X0161708Y0074913D01*
X0161251Y0075062D01*
X0162268Y0075483D01*
X0163367Y0076582D01*
X0163962Y0078018D01*
X0163962Y0079572D01*
X0163367Y0081008D01*
X0162268Y0082108D01*
X0160832Y0082702D01*
X0159065Y0082614D02*
X0151203Y0082614D01*
X0153099Y0081434D02*
X0157169Y0081434D01*
X0156431Y0080255D02*
X0153837Y0080255D01*
X0154120Y0079075D02*
X0156148Y0079075D01*
X0156199Y0077896D02*
X0154069Y0077896D01*
X0153580Y0076716D02*
X0156687Y0076716D01*
X0157789Y0075536D02*
X0152479Y0075536D01*
X0152128Y0074357D02*
X0157456Y0074357D01*
X0156371Y0073177D02*
X0153482Y0073177D01*
X0153525Y0073134D02*
X0152426Y0074234D01*
X0150990Y0074828D01*
X0149435Y0074828D01*
X0147999Y0074234D01*
X0146900Y0073134D01*
X0146306Y0071698D01*
X0146306Y0070144D01*
X0146900Y0068708D01*
X0147999Y0067609D01*
X0149435Y0067014D01*
X0150990Y0067014D01*
X0152426Y0067609D01*
X0153525Y0068708D01*
X0154120Y0070144D01*
X0154120Y0071698D01*
X0153525Y0073134D01*
X0153996Y0071997D02*
X0155876Y0071997D01*
X0155748Y0070606D02*
X0155748Y0070582D01*
X0155854Y0069913D01*
X0156064Y0069268D01*
X0156371Y0068664D01*
X0156770Y0068115D01*
X0157249Y0067636D01*
X0157798Y0067238D01*
X0158402Y0066930D01*
X0159047Y0066720D01*
X0159716Y0066614D01*
X0159740Y0066614D01*
X0159740Y0070606D01*
X0155748Y0070606D01*
X0155943Y0069638D02*
X0153910Y0069638D01*
X0154120Y0070818D02*
X0159740Y0070818D01*
X0160370Y0070818D02*
X0380890Y0070818D01*
X0380890Y0071997D02*
X0164234Y0071997D01*
X0163740Y0073177D02*
X0380890Y0073177D01*
X0380890Y0074357D02*
X0162654Y0074357D01*
X0162322Y0075536D02*
X0380890Y0075536D01*
X0380890Y0076716D02*
X0163423Y0076716D01*
X0163911Y0077896D02*
X0380890Y0077896D01*
X0380890Y0079075D02*
X0343151Y0079075D01*
X0344267Y0080255D02*
X0380890Y0080255D01*
X0380890Y0081434D02*
X0344756Y0081434D01*
X0344894Y0082614D02*
X0380890Y0082614D01*
X0380890Y0083794D02*
X0353840Y0083794D01*
X0353527Y0083634D02*
X0354203Y0083979D01*
X0354816Y0084424D01*
X0355352Y0084960D01*
X0355797Y0085573D01*
X0356141Y0086249D01*
X0356376Y0086970D01*
X0356478Y0087613D01*
X0352163Y0087613D01*
X0352163Y0088582D01*
X0351194Y0088582D01*
X0351194Y0092896D01*
X0350551Y0092794D01*
X0349830Y0092560D01*
X0349155Y0092216D01*
X0348542Y0091770D01*
X0348006Y0091234D01*
X0347560Y0090621D01*
X0347216Y0089946D01*
X0346982Y0089225D01*
X0346880Y0088582D01*
X0351194Y0088582D01*
X0351194Y0087613D01*
X0346880Y0087613D01*
X0346982Y0086970D01*
X0347216Y0086249D01*
X0347560Y0085573D01*
X0348006Y0084960D01*
X0348542Y0084424D01*
X0349155Y0083979D01*
X0349830Y0083634D01*
X0350551Y0083400D01*
X0351194Y0083298D01*
X0351194Y0087613D01*
X0352163Y0087613D01*
X0352163Y0083298D01*
X0352806Y0083400D01*
X0353527Y0083634D01*
X0352163Y0083794D02*
X0351194Y0083794D01*
X0351194Y0084973D02*
X0352163Y0084973D01*
X0352163Y0086153D02*
X0351194Y0086153D01*
X0351194Y0087332D02*
X0352163Y0087332D01*
X0352163Y0088512D02*
X0380890Y0088512D01*
X0380890Y0087332D02*
X0356433Y0087332D01*
X0356093Y0086153D02*
X0380890Y0086153D01*
X0380890Y0084973D02*
X0355361Y0084973D01*
X0349518Y0083794D02*
X0344783Y0083794D01*
X0344295Y0084973D02*
X0347996Y0084973D01*
X0347265Y0086153D02*
X0343218Y0086153D01*
X0341357Y0089132D02*
X0342980Y0089804D01*
X0344222Y0091046D01*
X0344894Y0092669D01*
X0344894Y0094426D01*
X0344222Y0096048D01*
X0342980Y0097291D01*
X0341357Y0097963D01*
X0339600Y0097963D01*
X0337978Y0097291D01*
X0336735Y0096048D01*
X0336063Y0094426D01*
X0336063Y0092669D01*
X0336735Y0091046D01*
X0337978Y0089804D01*
X0339600Y0089132D01*
X0341357Y0089132D01*
X0342709Y0089692D02*
X0347133Y0089692D01*
X0347742Y0090871D02*
X0344047Y0090871D01*
X0344638Y0092051D02*
X0348928Y0092051D01*
X0351194Y0092051D02*
X0352163Y0092051D01*
X0352163Y0092896D02*
X0352163Y0088582D01*
X0356478Y0088582D01*
X0356376Y0089225D01*
X0356141Y0089946D01*
X0355797Y0090621D01*
X0355352Y0091234D01*
X0354816Y0091770D01*
X0354203Y0092216D01*
X0353527Y0092560D01*
X0352806Y0092794D01*
X0352163Y0092896D01*
X0352557Y0094582D02*
X0350800Y0094582D01*
X0349178Y0095254D01*
X0347935Y0096496D01*
X0347263Y0098119D01*
X0347263Y0099876D01*
X0347935Y0101498D01*
X0349178Y0102741D01*
X0350800Y0103413D01*
X0352557Y0103413D01*
X0354180Y0102741D01*
X0355422Y0101498D01*
X0356094Y0099876D01*
X0356094Y0098119D01*
X0355422Y0096496D01*
X0354180Y0095254D01*
X0352557Y0094582D01*
X0354516Y0095590D02*
X0380890Y0095590D01*
X0380890Y0096769D02*
X0355535Y0096769D01*
X0356024Y0097949D02*
X0380890Y0097949D01*
X0380890Y0099129D02*
X0356094Y0099129D01*
X0355915Y0100308D02*
X0380890Y0100308D01*
X0380890Y0101488D02*
X0355426Y0101488D01*
X0354253Y0102667D02*
X0380890Y0102667D01*
X0380890Y0103847D02*
X0345259Y0103847D01*
X0345278Y0103963D02*
X0340963Y0103963D01*
X0340963Y0104932D01*
X0339994Y0104932D01*
X0339994Y0109246D01*
X0339351Y0109144D01*
X0338630Y0108910D01*
X0337955Y0108566D01*
X0337342Y0108120D01*
X0336806Y0107584D01*
X0336360Y0106971D01*
X0336016Y0106296D01*
X0335782Y0105575D01*
X0335680Y0104932D01*
X0339994Y0104932D01*
X0339994Y0103963D01*
X0335680Y0103963D01*
X0335782Y0103320D01*
X0336016Y0102599D01*
X0336360Y0101923D01*
X0336806Y0101310D01*
X0337342Y0100774D01*
X0337955Y0100329D01*
X0338630Y0099984D01*
X0339351Y0099750D01*
X0339994Y0099648D01*
X0339994Y0103963D01*
X0340963Y0103963D01*
X0340963Y0099648D01*
X0341606Y0099750D01*
X0342327Y0099984D01*
X0343003Y0100329D01*
X0343616Y0100774D01*
X0344152Y0101310D01*
X0344597Y0101923D01*
X0344941Y0102599D01*
X0345176Y0103320D01*
X0345278Y0103963D01*
X0345278Y0104932D02*
X0345176Y0105575D01*
X0344941Y0106296D01*
X0344597Y0106971D01*
X0344152Y0107584D01*
X0343616Y0108120D01*
X0343003Y0108566D01*
X0342327Y0108910D01*
X0341606Y0109144D01*
X0340963Y0109246D01*
X0340963Y0104932D01*
X0345278Y0104932D01*
X0345263Y0105027D02*
X0380890Y0105027D01*
X0380890Y0106206D02*
X0354232Y0106206D01*
X0354180Y0106154D02*
X0355422Y0107396D01*
X0356094Y0109019D01*
X0356094Y0110776D01*
X0355422Y0112398D01*
X0354180Y0113641D01*
X0352557Y0114313D01*
X0350800Y0114313D01*
X0349178Y0113641D01*
X0347935Y0112398D01*
X0347263Y0110776D01*
X0347263Y0109019D01*
X0347935Y0107396D01*
X0349178Y0106154D01*
X0350800Y0105482D01*
X0352557Y0105482D01*
X0354180Y0106154D01*
X0355412Y0107386D02*
X0380890Y0107386D01*
X0380890Y0108566D02*
X0355906Y0108566D01*
X0356094Y0109745D02*
X0380890Y0109745D01*
X0380890Y0110925D02*
X0356032Y0110925D01*
X0355544Y0112104D02*
X0380890Y0112104D01*
X0380890Y0113284D02*
X0354537Y0113284D01*
X0353527Y0116334D02*
X0354203Y0116679D01*
X0354816Y0117124D01*
X0355352Y0117660D01*
X0355797Y0118273D01*
X0356141Y0118949D01*
X0356376Y0119670D01*
X0356478Y0120313D01*
X0352163Y0120313D01*
X0352163Y0121282D01*
X0351194Y0121282D01*
X0351194Y0125596D01*
X0350551Y0125494D01*
X0349830Y0125260D01*
X0349155Y0124916D01*
X0348542Y0124470D01*
X0348006Y0123934D01*
X0347560Y0123321D01*
X0347216Y0122646D01*
X0346982Y0121925D01*
X0346880Y0121282D01*
X0351194Y0121282D01*
X0351194Y0120313D01*
X0346880Y0120313D01*
X0346982Y0119670D01*
X0347216Y0118949D01*
X0347560Y0118273D01*
X0348006Y0117660D01*
X0348542Y0117124D01*
X0349155Y0116679D01*
X0349830Y0116334D01*
X0350551Y0116100D01*
X0351194Y0115998D01*
X0351194Y0120313D01*
X0352163Y0120313D01*
X0352163Y0115998D01*
X0352806Y0116100D01*
X0353527Y0116334D01*
X0354401Y0116823D02*
X0380890Y0116823D01*
X0380890Y0118002D02*
X0355601Y0118002D01*
X0356217Y0119182D02*
X0380890Y0119182D01*
X0380890Y0120362D02*
X0352163Y0120362D01*
X0352163Y0121282D02*
X0356478Y0121282D01*
X0356376Y0121925D01*
X0356141Y0122646D01*
X0355797Y0123321D01*
X0355352Y0123934D01*
X0354816Y0124470D01*
X0354203Y0124916D01*
X0353527Y0125260D01*
X0352806Y0125494D01*
X0352163Y0125596D01*
X0352163Y0121282D01*
X0352163Y0121541D02*
X0351194Y0121541D01*
X0351194Y0120362D02*
X0139798Y0120362D01*
X0139798Y0120687D02*
X0139798Y0118714D01*
X0138404Y0117320D01*
X0136431Y0117320D01*
X0135036Y0118714D01*
X0135036Y0120687D01*
X0136431Y0122082D01*
X0138404Y0122082D01*
X0139798Y0120687D01*
X0138944Y0121541D02*
X0346921Y0121541D01*
X0347254Y0122721D02*
X0343197Y0122721D01*
X0342980Y0122504D02*
X0344222Y0123746D01*
X0344894Y0125369D01*
X0344894Y0127126D01*
X0344222Y0128748D01*
X0342980Y0129991D01*
X0341357Y0130663D01*
X0339600Y0130663D01*
X0337978Y0129991D01*
X0336735Y0128748D01*
X0336063Y0127126D01*
X0336063Y0125369D01*
X0336735Y0123746D01*
X0337978Y0122504D01*
X0339600Y0121832D01*
X0341357Y0121832D01*
X0342980Y0122504D01*
X0344286Y0123900D02*
X0347981Y0123900D01*
X0349477Y0125080D02*
X0344775Y0125080D01*
X0344894Y0126260D02*
X0380890Y0126260D01*
X0380890Y0127439D02*
X0352938Y0127439D01*
X0352557Y0127282D02*
X0354180Y0127954D01*
X0355422Y0129196D01*
X0356094Y0130819D01*
X0356094Y0132576D01*
X0355422Y0134198D01*
X0354180Y0135441D01*
X0352557Y0136113D01*
X0350800Y0136113D01*
X0349178Y0135441D01*
X0347935Y0134198D01*
X0347263Y0132576D01*
X0347263Y0130819D01*
X0347935Y0129196D01*
X0349178Y0127954D01*
X0350800Y0127282D01*
X0352557Y0127282D01*
X0350420Y0127439D02*
X0344764Y0127439D01*
X0344276Y0128619D02*
X0348512Y0128619D01*
X0347686Y0129799D02*
X0343172Y0129799D01*
X0342327Y0132684D02*
X0343003Y0133029D01*
X0343616Y0133474D01*
X0344152Y0134010D01*
X0344597Y0134623D01*
X0344941Y0135299D01*
X0345176Y0136020D01*
X0345278Y0136663D01*
X0340963Y0136663D01*
X0340963Y0137632D01*
X0339994Y0137632D01*
X0339994Y0141946D01*
X0339351Y0141844D01*
X0338630Y0141610D01*
X0337955Y0141266D01*
X0337342Y0140820D01*
X0336806Y0140284D01*
X0336360Y0139671D01*
X0336016Y0138996D01*
X0335782Y0138275D01*
X0335680Y0137632D01*
X0339994Y0137632D01*
X0339994Y0136663D01*
X0335680Y0136663D01*
X0335782Y0136020D01*
X0336016Y0135299D01*
X0336360Y0134623D01*
X0336806Y0134010D01*
X0337342Y0133474D01*
X0337955Y0133029D01*
X0338630Y0132684D01*
X0339351Y0132450D01*
X0339994Y0132348D01*
X0339994Y0136663D01*
X0340963Y0136663D01*
X0340963Y0132348D01*
X0341606Y0132450D01*
X0342327Y0132684D01*
X0343428Y0133337D02*
X0347579Y0133337D01*
X0347263Y0132158D02*
X0284627Y0132158D01*
X0284073Y0132712D02*
X0285468Y0131317D01*
X0285468Y0129344D01*
X0284073Y0127950D01*
X0282100Y0127950D01*
X0280706Y0129344D01*
X0280706Y0131317D01*
X0282100Y0132712D01*
X0284073Y0132712D01*
X0285468Y0130978D02*
X0347263Y0130978D01*
X0348254Y0134517D02*
X0344520Y0134517D01*
X0345071Y0135697D02*
X0349796Y0135697D01*
X0350800Y0138182D02*
X0352557Y0138182D01*
X0354180Y0138854D01*
X0355422Y0140096D01*
X0356094Y0141719D01*
X0356094Y0143476D01*
X0355422Y0145098D01*
X0354180Y0146341D01*
X0352557Y0147013D01*
X0350800Y0147013D01*
X0349178Y0146341D01*
X0347935Y0145098D01*
X0347263Y0143476D01*
X0347263Y0141719D01*
X0347935Y0140096D01*
X0349178Y0138854D01*
X0350800Y0138182D01*
X0348796Y0139235D02*
X0344819Y0139235D01*
X0344941Y0138996D02*
X0344597Y0139671D01*
X0344152Y0140284D01*
X0343616Y0140820D01*
X0343003Y0141266D01*
X0342327Y0141610D01*
X0341606Y0141844D01*
X0340963Y0141946D01*
X0340963Y0137632D01*
X0345278Y0137632D01*
X0345176Y0138275D01*
X0344941Y0138996D01*
X0345210Y0138056D02*
X0380890Y0138056D01*
X0380890Y0139235D02*
X0354561Y0139235D01*
X0355554Y0140415D02*
X0380890Y0140415D01*
X0380890Y0141595D02*
X0356043Y0141595D01*
X0356094Y0142774D02*
X0380890Y0142774D01*
X0380890Y0143954D02*
X0355896Y0143954D01*
X0355387Y0145134D02*
X0380890Y0145134D01*
X0380890Y0146313D02*
X0354207Y0146313D01*
X0353527Y0149034D02*
X0354203Y0149379D01*
X0354816Y0149824D01*
X0355352Y0150360D01*
X0355797Y0150973D01*
X0356141Y0151649D01*
X0356376Y0152370D01*
X0356478Y0153013D01*
X0352163Y0153013D01*
X0352163Y0153982D01*
X0351194Y0153982D01*
X0351194Y0158296D01*
X0350551Y0158194D01*
X0349830Y0157960D01*
X0349155Y0157616D01*
X0348542Y0157170D01*
X0348006Y0156634D01*
X0347560Y0156021D01*
X0347216Y0155346D01*
X0346982Y0154625D01*
X0346880Y0153982D01*
X0351194Y0153982D01*
X0351194Y0153013D01*
X0346880Y0153013D01*
X0346982Y0152370D01*
X0347216Y0151649D01*
X0347560Y0150973D01*
X0348006Y0150360D01*
X0348542Y0149824D01*
X0349155Y0149379D01*
X0349830Y0149034D01*
X0350551Y0148800D01*
X0351194Y0148698D01*
X0351194Y0153013D01*
X0352163Y0153013D01*
X0352163Y0148698D01*
X0352806Y0148800D01*
X0353527Y0149034D01*
X0354844Y0149852D02*
X0380890Y0149852D01*
X0380890Y0151032D02*
X0355827Y0151032D01*
X0356324Y0152211D02*
X0380890Y0152211D01*
X0380890Y0153391D02*
X0352163Y0153391D01*
X0352163Y0153982D02*
X0356478Y0153982D01*
X0356376Y0154625D01*
X0356141Y0155346D01*
X0355797Y0156021D01*
X0355352Y0156634D01*
X0354816Y0157170D01*
X0354203Y0157616D01*
X0353527Y0157960D01*
X0352806Y0158194D01*
X0352163Y0158296D01*
X0352163Y0153982D01*
X0352163Y0154570D02*
X0351194Y0154570D01*
X0351194Y0153391D02*
X0279562Y0153391D01*
X0279562Y0152966D02*
X0278167Y0151572D01*
X0276195Y0151572D01*
X0274800Y0152966D01*
X0274800Y0154939D01*
X0276195Y0156334D01*
X0278167Y0156334D01*
X0279562Y0154939D01*
X0279562Y0152966D01*
X0278807Y0152211D02*
X0338993Y0152211D01*
X0339600Y0152463D02*
X0337978Y0151791D01*
X0336735Y0150548D01*
X0336063Y0148926D01*
X0336063Y0147169D01*
X0336735Y0145546D01*
X0337978Y0144304D01*
X0339600Y0143632D01*
X0341357Y0143632D01*
X0342980Y0144304D01*
X0344222Y0145546D01*
X0344894Y0147169D01*
X0344894Y0148926D01*
X0344222Y0150548D01*
X0342980Y0151791D01*
X0341357Y0152463D01*
X0339600Y0152463D01*
X0339600Y0154532D02*
X0337978Y0155204D01*
X0336735Y0156446D01*
X0336063Y0158069D01*
X0336063Y0159826D01*
X0336735Y0161448D01*
X0337978Y0162691D01*
X0339600Y0163363D01*
X0341357Y0163363D01*
X0342980Y0162691D01*
X0344222Y0161448D01*
X0344894Y0159826D01*
X0344894Y0158069D01*
X0344222Y0156446D01*
X0342980Y0155204D01*
X0341357Y0154532D01*
X0339600Y0154532D01*
X0339507Y0154570D02*
X0279562Y0154570D01*
X0280132Y0155509D02*
X0282104Y0155509D01*
X0283499Y0156903D01*
X0283499Y0158876D01*
X0282104Y0160271D01*
X0280132Y0160271D01*
X0278737Y0158876D01*
X0278737Y0156903D01*
X0280132Y0155509D01*
X0279890Y0155750D02*
X0278751Y0155750D01*
X0278737Y0156930D02*
X0031633Y0156930D01*
X0030889Y0157238D02*
X0029222Y0157238D01*
X0027681Y0156600D01*
X0026503Y0155421D01*
X0025865Y0153881D01*
X0025865Y0152214D01*
X0026503Y0150673D01*
X0027681Y0149495D01*
X0029222Y0148857D01*
X0030889Y0148857D01*
X0032429Y0149495D01*
X0033608Y0150673D01*
X0034246Y0152214D01*
X0034246Y0153881D01*
X0033608Y0155421D01*
X0032429Y0156600D01*
X0030889Y0157238D01*
X0030889Y0158857D02*
X0032429Y0159495D01*
X0033608Y0160673D01*
X0034246Y0162214D01*
X0034246Y0163881D01*
X0033608Y0165421D01*
X0032429Y0166600D01*
X0030889Y0167238D01*
X0029222Y0167238D01*
X0027681Y0166600D01*
X0026503Y0165421D01*
X0025865Y0163881D01*
X0025865Y0162214D01*
X0026503Y0160673D01*
X0027681Y0159495D01*
X0029222Y0158857D01*
X0030889Y0158857D01*
X0031932Y0159289D02*
X0150784Y0159289D01*
X0150784Y0158872D02*
X0152179Y0157477D01*
X0154152Y0157477D01*
X0155134Y0158459D01*
X0156116Y0157477D01*
X0158089Y0157477D01*
X0159071Y0158459D01*
X0160053Y0157477D01*
X0162026Y0157477D01*
X0163420Y0158872D01*
X0163420Y0160845D01*
X0162026Y0162239D01*
X0160053Y0162239D01*
X0159071Y0161257D01*
X0158089Y0162239D01*
X0156116Y0162239D01*
X0155134Y0161257D01*
X0154152Y0162239D01*
X0152179Y0162239D01*
X0150784Y0160845D01*
X0150784Y0158872D01*
X0151547Y0158109D02*
X0014024Y0158109D01*
X0014024Y0156930D02*
X0018478Y0156930D01*
X0019222Y0157238D02*
X0017681Y0156600D01*
X0016503Y0155421D01*
X0015865Y0153881D01*
X0015865Y0152214D01*
X0016503Y0150673D01*
X0017681Y0149495D01*
X0019222Y0148857D01*
X0020889Y0148857D01*
X0022429Y0149495D01*
X0023608Y0150673D01*
X0024246Y0152214D01*
X0024246Y0153881D01*
X0023608Y0155421D01*
X0022429Y0156600D01*
X0020889Y0157238D01*
X0019222Y0157238D01*
X0019222Y0158857D02*
X0020889Y0158857D01*
X0022429Y0159495D01*
X0023608Y0160673D01*
X0024246Y0162214D01*
X0024246Y0163881D01*
X0023608Y0165421D01*
X0022429Y0166600D01*
X0020889Y0167238D01*
X0019222Y0167238D01*
X0017681Y0166600D01*
X0016503Y0165421D01*
X0015865Y0163881D01*
X0015865Y0162214D01*
X0016503Y0160673D01*
X0017681Y0159495D01*
X0019222Y0158857D01*
X0018178Y0159289D02*
X0014024Y0159289D01*
X0014024Y0160469D02*
X0016708Y0160469D01*
X0016099Y0161648D02*
X0014024Y0161648D01*
X0014024Y0162828D02*
X0015865Y0162828D01*
X0015917Y0164007D02*
X0014024Y0164007D01*
X0014024Y0165187D02*
X0016406Y0165187D01*
X0017448Y0166367D02*
X0014024Y0166367D01*
X0014024Y0167546D02*
X0336247Y0167546D01*
X0336360Y0167323D02*
X0336806Y0166710D01*
X0337342Y0166174D01*
X0337955Y0165729D01*
X0338630Y0165384D01*
X0339351Y0165150D01*
X0339994Y0165048D01*
X0339994Y0169363D01*
X0335680Y0169363D01*
X0335782Y0168720D01*
X0336016Y0167999D01*
X0336360Y0167323D01*
X0337149Y0166367D02*
X0032662Y0166367D01*
X0033705Y0165187D02*
X0339238Y0165187D01*
X0339994Y0165187D02*
X0340963Y0165187D01*
X0340963Y0165048D02*
X0341606Y0165150D01*
X0342327Y0165384D01*
X0343003Y0165729D01*
X0343616Y0166174D01*
X0344152Y0166710D01*
X0344597Y0167323D01*
X0344941Y0167999D01*
X0345176Y0168720D01*
X0345278Y0169363D01*
X0340963Y0169363D01*
X0340963Y0170332D01*
X0339994Y0170332D01*
X0339994Y0174646D01*
X0339351Y0174544D01*
X0338630Y0174310D01*
X0337955Y0173966D01*
X0337342Y0173520D01*
X0336806Y0172984D01*
X0336360Y0172371D01*
X0336016Y0171696D01*
X0335782Y0170975D01*
X0335680Y0170332D01*
X0339994Y0170332D01*
X0339994Y0169363D01*
X0340963Y0169363D01*
X0340963Y0165048D01*
X0341719Y0165187D02*
X0347263Y0165187D01*
X0347263Y0165276D02*
X0347263Y0163519D01*
X0347935Y0161896D01*
X0349178Y0160654D01*
X0350800Y0159982D01*
X0352557Y0159982D01*
X0354180Y0160654D01*
X0355422Y0161896D01*
X0356094Y0163519D01*
X0356094Y0165276D01*
X0355422Y0166898D01*
X0354180Y0168141D01*
X0352557Y0168813D01*
X0350800Y0168813D01*
X0349178Y0168141D01*
X0347935Y0166898D01*
X0347263Y0165276D01*
X0347715Y0166367D02*
X0343808Y0166367D01*
X0344711Y0167546D02*
X0348583Y0167546D01*
X0350590Y0168726D02*
X0345177Y0168726D01*
X0345278Y0170332D02*
X0345176Y0170975D01*
X0344941Y0171696D01*
X0344597Y0172371D01*
X0344152Y0172984D01*
X0343616Y0173520D01*
X0343003Y0173966D01*
X0342327Y0174310D01*
X0341606Y0174544D01*
X0340963Y0174646D01*
X0340963Y0170332D01*
X0345278Y0170332D01*
X0345140Y0171085D02*
X0350309Y0171085D01*
X0350800Y0170882D02*
X0352557Y0170882D01*
X0354180Y0171554D01*
X0355422Y0172796D01*
X0356094Y0174419D01*
X0356094Y0176176D01*
X0355422Y0177798D01*
X0354180Y0179041D01*
X0352557Y0179713D01*
X0350800Y0179713D01*
X0349178Y0179041D01*
X0347935Y0177798D01*
X0347263Y0176176D01*
X0347263Y0174419D01*
X0347935Y0172796D01*
X0349178Y0171554D01*
X0350800Y0170882D01*
X0353048Y0171085D02*
X0380890Y0171085D01*
X0380890Y0169905D02*
X0340963Y0169905D01*
X0339994Y0169905D02*
X0032840Y0169905D01*
X0032429Y0169495D02*
X0033608Y0170673D01*
X0034246Y0172214D01*
X0034246Y0173881D01*
X0033608Y0175421D01*
X0032429Y0176600D01*
X0030889Y0177238D01*
X0029222Y0177238D01*
X0027681Y0176600D01*
X0026503Y0175421D01*
X0025865Y0173881D01*
X0025865Y0172214D01*
X0026503Y0170673D01*
X0027681Y0169495D01*
X0029222Y0168857D01*
X0030889Y0168857D01*
X0032429Y0169495D01*
X0033778Y0171085D02*
X0335818Y0171085D01*
X0336306Y0172265D02*
X0167758Y0172265D01*
X0168145Y0172652D02*
X0166750Y0171257D01*
X0164777Y0171257D01*
X0163383Y0172652D01*
X0163383Y0173225D01*
X0162633Y0173225D01*
X0162633Y0172652D01*
X0161238Y0171257D01*
X0159266Y0171257D01*
X0157871Y0172652D01*
X0157871Y0174624D01*
X0159266Y0176019D01*
X0160627Y0176019D01*
X0160627Y0176593D01*
X0162022Y0177987D01*
X0163994Y0177987D01*
X0165389Y0176593D01*
X0165389Y0176019D01*
X0166750Y0176019D01*
X0168145Y0174624D01*
X0168145Y0172652D01*
X0168145Y0173444D02*
X0337266Y0173444D01*
X0339994Y0173444D02*
X0340963Y0173444D01*
X0340963Y0172265D02*
X0339994Y0172265D01*
X0339994Y0171085D02*
X0340963Y0171085D01*
X0340963Y0168726D02*
X0339994Y0168726D01*
X0339994Y0167546D02*
X0340963Y0167546D01*
X0340963Y0166367D02*
X0339994Y0166367D01*
X0338309Y0162828D02*
X0275610Y0162828D01*
X0275625Y0162813D02*
X0274230Y0164208D01*
X0272258Y0164208D01*
X0270863Y0162813D01*
X0270863Y0160840D01*
X0272258Y0159446D01*
X0274230Y0159446D01*
X0275625Y0160840D01*
X0275625Y0162813D01*
X0275625Y0161648D02*
X0336935Y0161648D01*
X0336330Y0160469D02*
X0275253Y0160469D01*
X0274431Y0164007D02*
X0347263Y0164007D01*
X0347549Y0162828D02*
X0342649Y0162828D01*
X0344022Y0161648D02*
X0348183Y0161648D01*
X0349625Y0160469D02*
X0344628Y0160469D01*
X0344894Y0159289D02*
X0380890Y0159289D01*
X0380890Y0160469D02*
X0353732Y0160469D01*
X0355174Y0161648D02*
X0380890Y0161648D01*
X0380890Y0162828D02*
X0355808Y0162828D01*
X0356094Y0164007D02*
X0380890Y0164007D01*
X0380890Y0165187D02*
X0356094Y0165187D01*
X0355642Y0166367D02*
X0380890Y0166367D01*
X0380890Y0167546D02*
X0354774Y0167546D01*
X0352767Y0168726D02*
X0380890Y0168726D01*
X0380890Y0172265D02*
X0354891Y0172265D01*
X0355691Y0173444D02*
X0380890Y0173444D01*
X0380890Y0174624D02*
X0356094Y0174624D01*
X0356094Y0175803D02*
X0380890Y0175803D01*
X0380890Y0176983D02*
X0355760Y0176983D01*
X0355058Y0178163D02*
X0380890Y0178163D01*
X0380890Y0179342D02*
X0353451Y0179342D01*
X0352806Y0181500D02*
X0353527Y0181734D01*
X0354203Y0182079D01*
X0354816Y0182524D01*
X0355352Y0183060D01*
X0355797Y0183673D01*
X0356141Y0184349D01*
X0356376Y0185070D01*
X0356478Y0185713D01*
X0352163Y0185713D01*
X0352163Y0186682D01*
X0351194Y0186682D01*
X0351194Y0190996D01*
X0350551Y0190894D01*
X0349830Y0190660D01*
X0349155Y0190316D01*
X0348542Y0189870D01*
X0348006Y0189334D01*
X0347560Y0188721D01*
X0347216Y0188046D01*
X0346982Y0187325D01*
X0346880Y0186682D01*
X0351194Y0186682D01*
X0351194Y0185713D01*
X0346880Y0185713D01*
X0346982Y0185070D01*
X0347216Y0184349D01*
X0347560Y0183673D01*
X0348006Y0183060D01*
X0348542Y0182524D01*
X0349155Y0182079D01*
X0349830Y0181734D01*
X0350551Y0181500D01*
X0351194Y0181398D01*
X0351194Y0185713D01*
X0352163Y0185713D01*
X0352163Y0181398D01*
X0352806Y0181500D01*
X0353426Y0181702D02*
X0380890Y0181702D01*
X0380890Y0182881D02*
X0355173Y0182881D01*
X0355995Y0184061D02*
X0380890Y0184061D01*
X0380890Y0185240D02*
X0356403Y0185240D01*
X0356478Y0186682D02*
X0352163Y0186682D01*
X0352163Y0190996D01*
X0352806Y0190894D01*
X0353527Y0190660D01*
X0354203Y0190316D01*
X0354816Y0189870D01*
X0355352Y0189334D01*
X0355797Y0188721D01*
X0356141Y0188046D01*
X0356376Y0187325D01*
X0356478Y0186682D01*
X0356286Y0187600D02*
X0380890Y0187600D01*
X0380890Y0188779D02*
X0355755Y0188779D01*
X0354694Y0189959D02*
X0380890Y0189959D01*
X0380890Y0191138D02*
X0344894Y0191138D01*
X0344894Y0190769D02*
X0344222Y0189146D01*
X0342980Y0187904D01*
X0341357Y0187232D01*
X0339600Y0187232D01*
X0337978Y0187904D01*
X0336735Y0189146D01*
X0336063Y0190769D01*
X0336063Y0192526D01*
X0336735Y0194148D01*
X0337978Y0195391D01*
X0339600Y0196063D01*
X0341357Y0196063D01*
X0342980Y0195391D01*
X0344222Y0194148D01*
X0344894Y0192526D01*
X0344894Y0190769D01*
X0344559Y0189959D02*
X0348663Y0189959D01*
X0347602Y0188779D02*
X0343855Y0188779D01*
X0342245Y0187600D02*
X0347071Y0187600D01*
X0346955Y0185240D02*
X0167357Y0185240D01*
X0167357Y0184463D02*
X0165963Y0183068D01*
X0163990Y0183068D01*
X0162595Y0184463D01*
X0162595Y0186435D01*
X0163990Y0187830D01*
X0165963Y0187830D01*
X0167357Y0186435D01*
X0167357Y0184463D01*
X0166956Y0184061D02*
X0337548Y0184061D01*
X0337978Y0184491D02*
X0336735Y0183248D01*
X0336063Y0181626D01*
X0336063Y0179869D01*
X0336735Y0178246D01*
X0337978Y0177004D01*
X0339600Y0176332D01*
X0341357Y0176332D01*
X0342980Y0177004D01*
X0344222Y0178246D01*
X0344894Y0179869D01*
X0344894Y0181626D01*
X0344222Y0183248D01*
X0342980Y0184491D01*
X0341357Y0185163D01*
X0339600Y0185163D01*
X0337978Y0184491D01*
X0336583Y0182881D02*
X0247762Y0182881D01*
X0248066Y0182577D02*
X0246671Y0183972D01*
X0244699Y0183972D01*
X0243304Y0182577D01*
X0243304Y0180604D01*
X0243735Y0180173D01*
X0243304Y0179742D01*
X0243304Y0177770D01*
X0244699Y0176375D01*
X0246671Y0176375D01*
X0248066Y0177770D01*
X0248066Y0179742D01*
X0247635Y0180173D01*
X0248066Y0180604D01*
X0248066Y0182577D01*
X0248066Y0181702D02*
X0336095Y0181702D01*
X0336063Y0180522D02*
X0247984Y0180522D01*
X0248066Y0179342D02*
X0336281Y0179342D01*
X0336819Y0178163D02*
X0248066Y0178163D01*
X0247280Y0176983D02*
X0338028Y0176983D01*
X0339854Y0174624D02*
X0168145Y0174624D01*
X0166965Y0175803D02*
X0347263Y0175803D01*
X0347263Y0174624D02*
X0341103Y0174624D01*
X0340963Y0174624D02*
X0339994Y0174624D01*
X0342930Y0176983D02*
X0347598Y0176983D01*
X0348300Y0178163D02*
X0344139Y0178163D01*
X0344676Y0179342D02*
X0349906Y0179342D01*
X0349932Y0181702D02*
X0344863Y0181702D01*
X0344894Y0180522D02*
X0380890Y0180522D01*
X0380890Y0186420D02*
X0352163Y0186420D01*
X0351194Y0186420D02*
X0167357Y0186420D01*
X0166193Y0187600D02*
X0338712Y0187600D01*
X0337102Y0188779D02*
X0051609Y0188779D01*
X0051609Y0188006D02*
X0051609Y0189978D01*
X0050215Y0191373D01*
X0048242Y0191373D01*
X0046847Y0189978D01*
X0046847Y0188006D01*
X0048242Y0186611D01*
X0050215Y0186611D01*
X0051609Y0188006D01*
X0051203Y0187600D02*
X0163760Y0187600D01*
X0162595Y0186420D02*
X0032609Y0186420D01*
X0032429Y0186600D02*
X0030889Y0187238D01*
X0029222Y0187238D01*
X0027681Y0186600D01*
X0026503Y0185421D01*
X0025865Y0183881D01*
X0025865Y0182214D01*
X0026503Y0180673D01*
X0027681Y0179495D01*
X0029222Y0178857D01*
X0030889Y0178857D01*
X0032429Y0179495D01*
X0033608Y0180673D01*
X0034246Y0182214D01*
X0034246Y0183881D01*
X0033608Y0185421D01*
X0032429Y0186600D01*
X0033682Y0185240D02*
X0162595Y0185240D01*
X0162997Y0184061D02*
X0034171Y0184061D01*
X0034246Y0182881D02*
X0243608Y0182881D01*
X0243304Y0181702D02*
X0034034Y0181702D01*
X0033456Y0180522D02*
X0174005Y0180522D01*
X0173619Y0180136D02*
X0173619Y0178163D01*
X0175014Y0176769D01*
X0176986Y0176769D01*
X0178381Y0178163D01*
X0178381Y0180136D01*
X0176986Y0181531D01*
X0175014Y0181531D01*
X0173619Y0180136D01*
X0173619Y0179342D02*
X0032061Y0179342D01*
X0031504Y0176983D02*
X0116926Y0176983D01*
X0116926Y0176986D02*
X0116926Y0175014D01*
X0118321Y0173619D01*
X0120293Y0173619D01*
X0121688Y0175014D01*
X0121688Y0176986D01*
X0120293Y0178381D01*
X0118321Y0178381D01*
X0116926Y0176986D01*
X0116926Y0175803D02*
X0033225Y0175803D01*
X0033938Y0174624D02*
X0117316Y0174624D01*
X0118102Y0178163D02*
X0014024Y0178163D01*
X0014024Y0179342D02*
X0018049Y0179342D01*
X0017681Y0179495D02*
X0019222Y0178857D01*
X0020889Y0178857D01*
X0022429Y0179495D01*
X0023608Y0180673D01*
X0024246Y0182214D01*
X0024246Y0183881D01*
X0023608Y0185421D01*
X0022429Y0186600D01*
X0020889Y0187238D01*
X0019222Y0187238D01*
X0017681Y0186600D01*
X0016503Y0185421D01*
X0015865Y0183881D01*
X0015865Y0182214D01*
X0016503Y0180673D01*
X0017681Y0179495D01*
X0016654Y0180522D02*
X0014024Y0180522D01*
X0014024Y0181702D02*
X0016077Y0181702D01*
X0015865Y0182881D02*
X0014024Y0182881D01*
X0014024Y0184061D02*
X0015939Y0184061D01*
X0016428Y0185240D02*
X0014024Y0185240D01*
X0014024Y0186420D02*
X0017502Y0186420D01*
X0019222Y0188857D02*
X0020889Y0188857D01*
X0022429Y0189495D01*
X0023608Y0190673D01*
X0024246Y0192214D01*
X0024246Y0193881D01*
X0023608Y0195421D01*
X0022429Y0196600D01*
X0020889Y0197238D01*
X0019222Y0197238D01*
X0017681Y0196600D01*
X0016503Y0195421D01*
X0015865Y0193881D01*
X0015865Y0192214D01*
X0016503Y0190673D01*
X0017681Y0189495D01*
X0019222Y0188857D01*
X0017217Y0189959D02*
X0014024Y0189959D01*
X0014024Y0191138D02*
X0016310Y0191138D01*
X0015865Y0192318D02*
X0014024Y0192318D01*
X0014024Y0193498D02*
X0015865Y0193498D01*
X0016195Y0194677D02*
X0014024Y0194677D01*
X0014024Y0195857D02*
X0016938Y0195857D01*
X0018736Y0197037D02*
X0014024Y0197037D01*
X0014024Y0198216D02*
X0339397Y0198216D01*
X0339600Y0198132D02*
X0341357Y0198132D01*
X0342980Y0198804D01*
X0344222Y0200046D01*
X0344894Y0201669D01*
X0344894Y0203426D01*
X0344222Y0205048D01*
X0342980Y0206291D01*
X0341357Y0206963D01*
X0339600Y0206963D01*
X0337978Y0206291D01*
X0336735Y0205048D01*
X0336063Y0203426D01*
X0336063Y0201669D01*
X0336735Y0200046D01*
X0337978Y0198804D01*
X0339600Y0198132D01*
X0341561Y0198216D02*
X0347363Y0198216D01*
X0347263Y0197976D02*
X0347263Y0196219D01*
X0347935Y0194596D01*
X0349178Y0193354D01*
X0350800Y0192682D01*
X0352557Y0192682D01*
X0354180Y0193354D01*
X0355422Y0194596D01*
X0356094Y0196219D01*
X0356094Y0197976D01*
X0355422Y0199598D01*
X0354180Y0200841D01*
X0352557Y0201513D01*
X0350800Y0201513D01*
X0349178Y0200841D01*
X0347935Y0199598D01*
X0347263Y0197976D01*
X0347263Y0197037D02*
X0031375Y0197037D01*
X0030889Y0197238D02*
X0032429Y0196600D01*
X0033608Y0195421D01*
X0034246Y0193881D01*
X0034246Y0192214D01*
X0033608Y0190673D01*
X0032429Y0189495D01*
X0030889Y0188857D01*
X0029222Y0188857D01*
X0027681Y0189495D01*
X0026503Y0190673D01*
X0025865Y0192214D01*
X0025865Y0193881D01*
X0026503Y0195421D01*
X0027681Y0196600D01*
X0029222Y0197238D01*
X0030889Y0197238D01*
X0030889Y0198857D02*
X0032429Y0199495D01*
X0033608Y0200673D01*
X0034246Y0202214D01*
X0034246Y0203881D01*
X0033608Y0205421D01*
X0032429Y0206600D01*
X0030889Y0207238D01*
X0029222Y0207238D01*
X0027681Y0206600D01*
X0026503Y0205421D01*
X0025865Y0203881D01*
X0025865Y0202214D01*
X0026503Y0200673D01*
X0027681Y0199495D01*
X0029222Y0198857D01*
X0030889Y0198857D01*
X0032190Y0199396D02*
X0311048Y0199396D01*
X0311628Y0198816D02*
X0313600Y0198816D01*
X0314995Y0200211D01*
X0314995Y0202183D01*
X0313600Y0203578D01*
X0311628Y0203578D01*
X0310233Y0202183D01*
X0310233Y0200211D01*
X0311628Y0198816D01*
X0310233Y0200575D02*
X0033510Y0200575D01*
X0034056Y0201755D02*
X0310233Y0201755D01*
X0310985Y0202935D02*
X0034246Y0202935D01*
X0034149Y0204114D02*
X0336348Y0204114D01*
X0336063Y0202935D02*
X0314244Y0202935D01*
X0314995Y0201755D02*
X0336063Y0201755D01*
X0336516Y0200575D02*
X0314995Y0200575D01*
X0314180Y0199396D02*
X0337386Y0199396D01*
X0339103Y0195857D02*
X0033172Y0195857D01*
X0033916Y0194677D02*
X0044066Y0194677D01*
X0044699Y0195310D02*
X0043304Y0193915D01*
X0043304Y0191943D01*
X0044699Y0190548D01*
X0046671Y0190548D01*
X0048066Y0191943D01*
X0048066Y0193915D01*
X0046671Y0195310D01*
X0044699Y0195310D01*
X0043304Y0193498D02*
X0034246Y0193498D01*
X0034246Y0192318D02*
X0043304Y0192318D01*
X0044108Y0191138D02*
X0033800Y0191138D01*
X0032893Y0189959D02*
X0046847Y0189959D01*
X0046847Y0188779D02*
X0014024Y0188779D01*
X0014024Y0187600D02*
X0047253Y0187600D01*
X0047262Y0191138D02*
X0048007Y0191138D01*
X0048066Y0192318D02*
X0336063Y0192318D01*
X0336063Y0191138D02*
X0050449Y0191138D01*
X0051609Y0189959D02*
X0336399Y0189959D01*
X0336466Y0193498D02*
X0048066Y0193498D01*
X0047304Y0194677D02*
X0337264Y0194677D01*
X0341854Y0195857D02*
X0347413Y0195857D01*
X0347902Y0194677D02*
X0343693Y0194677D01*
X0344492Y0193498D02*
X0349034Y0193498D01*
X0351194Y0189959D02*
X0352163Y0189959D01*
X0352163Y0188779D02*
X0351194Y0188779D01*
X0351194Y0187600D02*
X0352163Y0187600D01*
X0352163Y0185240D02*
X0351194Y0185240D01*
X0351194Y0184061D02*
X0352163Y0184061D01*
X0352163Y0182881D02*
X0351194Y0182881D01*
X0351194Y0181702D02*
X0352163Y0181702D01*
X0348185Y0182881D02*
X0344374Y0182881D01*
X0343410Y0184061D02*
X0347363Y0184061D01*
X0344894Y0192318D02*
X0380890Y0192318D01*
X0380890Y0193498D02*
X0354324Y0193498D01*
X0355456Y0194677D02*
X0380890Y0194677D01*
X0380890Y0195857D02*
X0355944Y0195857D01*
X0356094Y0197037D02*
X0380890Y0197037D01*
X0380890Y0198216D02*
X0355995Y0198216D01*
X0355506Y0199396D02*
X0380890Y0199396D01*
X0380890Y0200575D02*
X0354445Y0200575D01*
X0352557Y0203582D02*
X0350800Y0203582D01*
X0349178Y0204254D01*
X0347935Y0205496D01*
X0347263Y0207119D01*
X0347263Y0208876D01*
X0347935Y0210498D01*
X0349178Y0211741D01*
X0350800Y0212413D01*
X0352557Y0212413D01*
X0354180Y0211741D01*
X0355422Y0210498D01*
X0356094Y0208876D01*
X0356094Y0207119D01*
X0355422Y0205496D01*
X0354180Y0204254D01*
X0352557Y0203582D01*
X0353843Y0204114D02*
X0380890Y0204114D01*
X0380890Y0202935D02*
X0344894Y0202935D01*
X0344894Y0201755D02*
X0380890Y0201755D01*
X0380890Y0205294D02*
X0355220Y0205294D01*
X0355827Y0206473D02*
X0380890Y0206473D01*
X0380890Y0207653D02*
X0356094Y0207653D01*
X0356094Y0208833D02*
X0380890Y0208833D01*
X0380890Y0210012D02*
X0355623Y0210012D01*
X0354729Y0211192D02*
X0380890Y0211192D01*
X0380890Y0212372D02*
X0352657Y0212372D01*
X0350701Y0212372D02*
X0344813Y0212372D01*
X0344894Y0212569D02*
X0344222Y0210946D01*
X0342980Y0209704D01*
X0341357Y0209032D01*
X0339600Y0209032D01*
X0337978Y0209704D01*
X0336735Y0210946D01*
X0336063Y0212569D01*
X0336063Y0214326D01*
X0336735Y0215948D01*
X0337978Y0217191D01*
X0339600Y0217863D01*
X0341357Y0217863D01*
X0342980Y0217191D01*
X0344222Y0215948D01*
X0344894Y0214326D01*
X0344894Y0212569D01*
X0344894Y0213551D02*
X0380890Y0213551D01*
X0380890Y0214731D02*
X0344726Y0214731D01*
X0344238Y0215910D02*
X0380890Y0215910D01*
X0380890Y0217090D02*
X0343081Y0217090D01*
X0337877Y0217090D02*
X0052347Y0217090D01*
X0051789Y0216532D02*
X0053184Y0217927D01*
X0053184Y0219900D01*
X0051789Y0221294D01*
X0049817Y0221294D01*
X0048835Y0220312D01*
X0047852Y0221294D01*
X0045880Y0221294D01*
X0044898Y0220312D01*
X0043915Y0221294D01*
X0041943Y0221294D01*
X0040961Y0220312D01*
X0039978Y0221294D01*
X0038006Y0221294D01*
X0036611Y0219900D01*
X0036611Y0217927D01*
X0038006Y0216532D01*
X0039978Y0216532D01*
X0040961Y0217515D01*
X0041943Y0216532D01*
X0043915Y0216532D01*
X0044898Y0217515D01*
X0045880Y0216532D01*
X0047852Y0216532D01*
X0048835Y0217515D01*
X0049817Y0216532D01*
X0051789Y0216532D01*
X0053184Y0218270D02*
X0380890Y0218270D01*
X0380890Y0219449D02*
X0053184Y0219449D01*
X0052455Y0220629D02*
X0380890Y0220629D01*
X0380890Y0221808D02*
X0034078Y0221808D01*
X0034246Y0222214D02*
X0033608Y0220673D01*
X0032429Y0219495D01*
X0030889Y0218857D01*
X0029222Y0218857D01*
X0027681Y0219495D01*
X0026503Y0220673D01*
X0025865Y0222214D01*
X0025865Y0223881D01*
X0026503Y0225421D01*
X0027681Y0226600D01*
X0029222Y0227238D01*
X0030889Y0227238D01*
X0032429Y0226600D01*
X0033608Y0225421D01*
X0034246Y0223881D01*
X0034246Y0222214D01*
X0034246Y0222988D02*
X0380890Y0222988D01*
X0380890Y0224168D02*
X0034127Y0224168D01*
X0033638Y0225347D02*
X0380890Y0225347D01*
X0380890Y0226527D02*
X0032502Y0226527D01*
X0030960Y0228886D02*
X0380890Y0228886D01*
X0380890Y0227706D02*
X0014024Y0227706D01*
X0014024Y0226527D02*
X0017608Y0226527D01*
X0017681Y0226600D02*
X0016503Y0225421D01*
X0015865Y0223881D01*
X0015865Y0222214D01*
X0016503Y0220673D01*
X0017681Y0219495D01*
X0019222Y0218857D01*
X0020889Y0218857D01*
X0022429Y0219495D01*
X0023608Y0220673D01*
X0024246Y0222214D01*
X0024246Y0223881D01*
X0023608Y0225421D01*
X0022429Y0226600D01*
X0020889Y0227238D01*
X0019222Y0227238D01*
X0017681Y0226600D01*
X0016472Y0225347D02*
X0014024Y0225347D01*
X0014024Y0224168D02*
X0015983Y0224168D01*
X0015865Y0222988D02*
X0014024Y0222988D01*
X0014024Y0221808D02*
X0016032Y0221808D01*
X0016547Y0220629D02*
X0014024Y0220629D01*
X0014024Y0219449D02*
X0017791Y0219449D01*
X0018865Y0217090D02*
X0014024Y0217090D01*
X0014024Y0218270D02*
X0036611Y0218270D01*
X0036611Y0219449D02*
X0032319Y0219449D01*
X0033563Y0220629D02*
X0037340Y0220629D01*
X0040644Y0220629D02*
X0041277Y0220629D01*
X0044581Y0220629D02*
X0045214Y0220629D01*
X0048518Y0220629D02*
X0049151Y0220629D01*
X0049259Y0217090D02*
X0048410Y0217090D01*
X0045322Y0217090D02*
X0044473Y0217090D01*
X0041385Y0217090D02*
X0040536Y0217090D01*
X0037448Y0217090D02*
X0031246Y0217090D01*
X0030889Y0217238D02*
X0029222Y0217238D01*
X0027681Y0216600D01*
X0026503Y0215421D01*
X0025865Y0213881D01*
X0025865Y0212214D01*
X0026503Y0210673D01*
X0027681Y0209495D01*
X0029222Y0208857D01*
X0030889Y0208857D01*
X0032429Y0209495D01*
X0033608Y0210673D01*
X0034246Y0212214D01*
X0034246Y0213881D01*
X0033608Y0215421D01*
X0032429Y0216600D01*
X0030889Y0217238D01*
X0028865Y0217090D02*
X0021246Y0217090D01*
X0020889Y0217238D02*
X0019222Y0217238D01*
X0017681Y0216600D01*
X0016503Y0215421D01*
X0015865Y0213881D01*
X0015865Y0212214D01*
X0016503Y0210673D01*
X0017681Y0209495D01*
X0019222Y0208857D01*
X0020889Y0208857D01*
X0022429Y0209495D01*
X0023608Y0210673D01*
X0024246Y0212214D01*
X0024246Y0213881D01*
X0023608Y0215421D01*
X0022429Y0216600D01*
X0020889Y0217238D01*
X0023118Y0215910D02*
X0026992Y0215910D01*
X0026217Y0214731D02*
X0023894Y0214731D01*
X0024246Y0213551D02*
X0025865Y0213551D01*
X0025865Y0212372D02*
X0024246Y0212372D01*
X0023822Y0211192D02*
X0026288Y0211192D01*
X0027164Y0210012D02*
X0022946Y0210012D01*
X0022429Y0206600D02*
X0020889Y0207238D01*
X0019222Y0207238D01*
X0017681Y0206600D01*
X0016503Y0205421D01*
X0015865Y0203881D01*
X0015865Y0202214D01*
X0016503Y0200673D01*
X0017681Y0199495D01*
X0019222Y0198857D01*
X0020889Y0198857D01*
X0022429Y0199495D01*
X0023608Y0200673D01*
X0024246Y0202214D01*
X0024246Y0203881D01*
X0023608Y0205421D01*
X0022429Y0206600D01*
X0022555Y0206473D02*
X0027555Y0206473D01*
X0026450Y0205294D02*
X0023660Y0205294D01*
X0024149Y0204114D02*
X0025961Y0204114D01*
X0025865Y0202935D02*
X0024246Y0202935D01*
X0024056Y0201755D02*
X0026055Y0201755D01*
X0026601Y0200575D02*
X0023510Y0200575D01*
X0022190Y0199396D02*
X0027920Y0199396D01*
X0028736Y0197037D02*
X0021375Y0197037D01*
X0023172Y0195857D02*
X0026938Y0195857D01*
X0026195Y0194677D02*
X0023916Y0194677D01*
X0024246Y0193498D02*
X0025865Y0193498D01*
X0025865Y0192318D02*
X0024246Y0192318D01*
X0023800Y0191138D02*
X0026310Y0191138D01*
X0027217Y0189959D02*
X0022893Y0189959D01*
X0022609Y0186420D02*
X0027502Y0186420D01*
X0026428Y0185240D02*
X0023682Y0185240D01*
X0024171Y0184061D02*
X0025939Y0184061D01*
X0025865Y0182881D02*
X0024246Y0182881D01*
X0024034Y0181702D02*
X0026077Y0181702D01*
X0026654Y0180522D02*
X0023456Y0180522D01*
X0022061Y0179342D02*
X0028049Y0179342D01*
X0028607Y0176983D02*
X0021504Y0176983D01*
X0020889Y0177238D02*
X0019222Y0177238D01*
X0017681Y0176600D01*
X0016503Y0175421D01*
X0015865Y0173881D01*
X0015865Y0172214D01*
X0016503Y0170673D01*
X0017681Y0169495D01*
X0019222Y0168857D01*
X0020889Y0168857D01*
X0022429Y0169495D01*
X0023608Y0170673D01*
X0024246Y0172214D01*
X0024246Y0173881D01*
X0023608Y0175421D01*
X0022429Y0176600D01*
X0020889Y0177238D01*
X0018607Y0176983D02*
X0014024Y0176983D01*
X0014024Y0175803D02*
X0016885Y0175803D01*
X0016172Y0174624D02*
X0014024Y0174624D01*
X0014024Y0173444D02*
X0015865Y0173444D01*
X0015865Y0172265D02*
X0014024Y0172265D01*
X0014024Y0171085D02*
X0016332Y0171085D01*
X0017271Y0169905D02*
X0014024Y0169905D01*
X0014024Y0168726D02*
X0335781Y0168726D01*
X0343692Y0173444D02*
X0347667Y0173444D01*
X0348467Y0172265D02*
X0344652Y0172265D01*
X0336063Y0159289D02*
X0283086Y0159289D01*
X0283499Y0158109D02*
X0336063Y0158109D01*
X0336535Y0156930D02*
X0283499Y0156930D01*
X0282346Y0155750D02*
X0337431Y0155750D01*
X0341451Y0154570D02*
X0346973Y0154570D01*
X0347422Y0155750D02*
X0343526Y0155750D01*
X0344422Y0156930D02*
X0348301Y0156930D01*
X0350290Y0158109D02*
X0344894Y0158109D01*
X0351194Y0158109D02*
X0352163Y0158109D01*
X0353068Y0158109D02*
X0380890Y0158109D01*
X0380890Y0156930D02*
X0355057Y0156930D01*
X0355935Y0155750D02*
X0380890Y0155750D01*
X0380890Y0154570D02*
X0356384Y0154570D01*
X0352163Y0155750D02*
X0351194Y0155750D01*
X0351194Y0156930D02*
X0352163Y0156930D01*
X0352163Y0152211D02*
X0351194Y0152211D01*
X0351194Y0151032D02*
X0352163Y0151032D01*
X0352163Y0149852D02*
X0351194Y0149852D01*
X0348514Y0149852D02*
X0344511Y0149852D01*
X0344894Y0148672D02*
X0380890Y0148672D01*
X0380890Y0147493D02*
X0344894Y0147493D01*
X0344540Y0146313D02*
X0349150Y0146313D01*
X0347971Y0145134D02*
X0343810Y0145134D01*
X0342135Y0143954D02*
X0347461Y0143954D01*
X0347263Y0142774D02*
X0286649Y0142774D01*
X0286649Y0142337D02*
X0285254Y0140942D01*
X0283281Y0140942D01*
X0281887Y0142337D01*
X0281887Y0144309D01*
X0283281Y0145704D01*
X0285254Y0145704D01*
X0286649Y0144309D01*
X0286649Y0142337D01*
X0285907Y0141595D02*
X0338600Y0141595D01*
X0339994Y0141595D02*
X0340963Y0141595D01*
X0340963Y0140415D02*
X0339994Y0140415D01*
X0339994Y0139235D02*
X0340963Y0139235D01*
X0340963Y0138056D02*
X0339994Y0138056D01*
X0339994Y0136876D02*
X0286307Y0136876D01*
X0286343Y0136913D02*
X0284948Y0135518D01*
X0282976Y0135518D01*
X0281581Y0136913D01*
X0281581Y0138885D01*
X0282976Y0140280D01*
X0284948Y0140280D01*
X0286343Y0138885D01*
X0286343Y0136913D01*
X0286343Y0138056D02*
X0335747Y0138056D01*
X0336138Y0139235D02*
X0285993Y0139235D01*
X0285127Y0135697D02*
X0335887Y0135697D01*
X0336437Y0134517D02*
X0129562Y0134517D01*
X0129562Y0134463D02*
X0129562Y0136435D01*
X0128580Y0137417D01*
X0129562Y0138400D01*
X0129562Y0140372D01*
X0128167Y0141767D01*
X0126195Y0141767D01*
X0124800Y0140372D01*
X0124800Y0138400D01*
X0125782Y0137417D01*
X0124800Y0136435D01*
X0124800Y0134463D01*
X0125979Y0133283D01*
X0124800Y0132104D01*
X0124800Y0130132D01*
X0125782Y0129150D01*
X0124800Y0128167D01*
X0124800Y0126195D01*
X0126195Y0124800D01*
X0128167Y0124800D01*
X0129562Y0126195D01*
X0129562Y0128167D01*
X0128580Y0129150D01*
X0129562Y0130132D01*
X0129562Y0132104D01*
X0128383Y0133283D01*
X0129562Y0134463D01*
X0129562Y0135697D02*
X0183408Y0135697D01*
X0184069Y0135036D02*
X0182674Y0136431D01*
X0182674Y0138404D01*
X0184069Y0139798D01*
X0186041Y0139798D01*
X0187436Y0138404D01*
X0187436Y0136431D01*
X0186041Y0135036D01*
X0184069Y0135036D01*
X0182674Y0136876D02*
X0129121Y0136876D01*
X0129219Y0138056D02*
X0182674Y0138056D01*
X0183506Y0139235D02*
X0129562Y0139235D01*
X0129519Y0140415D02*
X0203540Y0140415D01*
X0203540Y0140766D02*
X0203540Y0138793D01*
X0204935Y0137398D01*
X0205902Y0137398D01*
X0205902Y0136431D01*
X0207297Y0135036D01*
X0209270Y0135036D01*
X0210665Y0136431D01*
X0210665Y0138404D01*
X0209270Y0139798D01*
X0208302Y0139798D01*
X0208302Y0140766D01*
X0206908Y0142161D01*
X0204935Y0142161D01*
X0203540Y0140766D01*
X0204369Y0141595D02*
X0202049Y0141595D01*
X0201396Y0140942D02*
X0202791Y0142337D01*
X0202791Y0144309D01*
X0201396Y0145704D01*
X0199423Y0145704D01*
X0198028Y0144309D01*
X0198028Y0142337D01*
X0199423Y0140942D01*
X0201396Y0140942D01*
X0202791Y0142774D02*
X0219722Y0142774D01*
X0219896Y0142948D02*
X0218501Y0141553D01*
X0218501Y0139581D01*
X0219896Y0138186D01*
X0221868Y0138186D01*
X0223263Y0139581D01*
X0223263Y0141553D01*
X0221868Y0142948D01*
X0219896Y0142948D01*
X0218542Y0141595D02*
X0207473Y0141595D01*
X0208302Y0140415D02*
X0218501Y0140415D01*
X0218846Y0139235D02*
X0209833Y0139235D01*
X0210665Y0138056D02*
X0281581Y0138056D01*
X0281617Y0136876D02*
X0210665Y0136876D01*
X0209930Y0135697D02*
X0282797Y0135697D01*
X0281931Y0139235D02*
X0222918Y0139235D01*
X0223263Y0140415D02*
X0336936Y0140415D01*
X0338822Y0143954D02*
X0286649Y0143954D01*
X0285824Y0145134D02*
X0337148Y0145134D01*
X0336418Y0146313D02*
X0032716Y0146313D01*
X0032429Y0146600D02*
X0033608Y0145421D01*
X0034246Y0143881D01*
X0034246Y0142214D01*
X0033608Y0140673D01*
X0032429Y0139495D01*
X0030889Y0138857D01*
X0029222Y0138857D01*
X0027681Y0139495D01*
X0026503Y0140673D01*
X0025865Y0142214D01*
X0025865Y0143881D01*
X0026503Y0145421D01*
X0027681Y0146600D01*
X0029222Y0147238D01*
X0030889Y0147238D01*
X0032429Y0146600D01*
X0033727Y0145134D02*
X0198853Y0145134D01*
X0198028Y0143954D02*
X0034215Y0143954D01*
X0034246Y0142774D02*
X0198028Y0142774D01*
X0198770Y0141595D02*
X0128340Y0141595D01*
X0126023Y0141595D02*
X0033989Y0141595D01*
X0033349Y0140415D02*
X0124843Y0140415D01*
X0124800Y0139235D02*
X0031803Y0139235D01*
X0030889Y0137238D02*
X0029222Y0137238D01*
X0027681Y0136600D01*
X0026503Y0135421D01*
X0025865Y0133881D01*
X0025865Y0132214D01*
X0026503Y0130673D01*
X0027681Y0129495D01*
X0029222Y0128857D01*
X0030889Y0128857D01*
X0032429Y0129495D01*
X0033608Y0130673D01*
X0034246Y0132214D01*
X0034246Y0133881D01*
X0033608Y0135421D01*
X0032429Y0136600D01*
X0030889Y0137238D01*
X0031762Y0136876D02*
X0125241Y0136876D01*
X0125144Y0138056D02*
X0014024Y0138056D01*
X0014024Y0139235D02*
X0018307Y0139235D01*
X0017681Y0139495D02*
X0019222Y0138857D01*
X0020889Y0138857D01*
X0022429Y0139495D01*
X0023608Y0140673D01*
X0024246Y0142214D01*
X0024246Y0143881D01*
X0023608Y0145421D01*
X0022429Y0146600D01*
X0020889Y0147238D01*
X0019222Y0147238D01*
X0017681Y0146600D01*
X0016503Y0145421D01*
X0015865Y0143881D01*
X0015865Y0142214D01*
X0016503Y0140673D01*
X0017681Y0139495D01*
X0016761Y0140415D02*
X0014024Y0140415D01*
X0014024Y0141595D02*
X0016121Y0141595D01*
X0015865Y0142774D02*
X0014024Y0142774D01*
X0014024Y0143954D02*
X0015895Y0143954D01*
X0016383Y0145134D02*
X0014024Y0145134D01*
X0014024Y0146313D02*
X0017395Y0146313D01*
X0017324Y0149852D02*
X0014024Y0149852D01*
X0014024Y0151032D02*
X0016354Y0151032D01*
X0015866Y0152211D02*
X0014024Y0152211D01*
X0014024Y0153391D02*
X0015865Y0153391D01*
X0016150Y0154570D02*
X0014024Y0154570D01*
X0014024Y0155750D02*
X0016832Y0155750D01*
X0021633Y0156930D02*
X0028478Y0156930D01*
X0026832Y0155750D02*
X0023279Y0155750D01*
X0023960Y0154570D02*
X0026150Y0154570D01*
X0025865Y0153391D02*
X0024246Y0153391D01*
X0024245Y0152211D02*
X0025866Y0152211D01*
X0026354Y0151032D02*
X0023756Y0151032D01*
X0022786Y0149852D02*
X0027324Y0149852D01*
X0027395Y0146313D02*
X0022716Y0146313D01*
X0023727Y0145134D02*
X0026383Y0145134D01*
X0025895Y0143954D02*
X0024215Y0143954D01*
X0024246Y0142774D02*
X0025865Y0142774D01*
X0026121Y0141595D02*
X0023989Y0141595D01*
X0023349Y0140415D02*
X0026761Y0140415D01*
X0028307Y0139235D02*
X0021803Y0139235D01*
X0020889Y0137238D02*
X0019222Y0137238D01*
X0017681Y0136600D01*
X0016503Y0135421D01*
X0015865Y0133881D01*
X0015865Y0132214D01*
X0016503Y0130673D01*
X0017681Y0129495D01*
X0019222Y0128857D01*
X0020889Y0128857D01*
X0022429Y0129495D01*
X0023608Y0130673D01*
X0024246Y0132214D01*
X0024246Y0133881D01*
X0023608Y0135421D01*
X0022429Y0136600D01*
X0020889Y0137238D01*
X0021762Y0136876D02*
X0028349Y0136876D01*
X0026778Y0135697D02*
X0023332Y0135697D01*
X0023982Y0134517D02*
X0026128Y0134517D01*
X0025865Y0133337D02*
X0024246Y0133337D01*
X0024223Y0132158D02*
X0025888Y0132158D01*
X0026376Y0130978D02*
X0023734Y0130978D01*
X0022733Y0129799D02*
X0027377Y0129799D01*
X0029222Y0127238D02*
X0027681Y0126600D01*
X0026503Y0125421D01*
X0025865Y0123881D01*
X0025865Y0122214D01*
X0026503Y0120673D01*
X0027681Y0119495D01*
X0029222Y0118857D01*
X0030889Y0118857D01*
X0032429Y0119495D01*
X0033608Y0120673D01*
X0034246Y0122214D01*
X0034246Y0123881D01*
X0033608Y0125421D01*
X0032429Y0126600D01*
X0030889Y0127238D01*
X0029222Y0127238D01*
X0027341Y0126260D02*
X0022769Y0126260D01*
X0022429Y0126600D02*
X0023608Y0125421D01*
X0024246Y0123881D01*
X0024246Y0122214D01*
X0023608Y0120673D01*
X0022429Y0119495D01*
X0020889Y0118857D01*
X0019222Y0118857D01*
X0017681Y0119495D01*
X0016503Y0120673D01*
X0015865Y0122214D01*
X0015865Y0123881D01*
X0016503Y0125421D01*
X0017681Y0126600D01*
X0019222Y0127238D01*
X0020889Y0127238D01*
X0022429Y0126600D01*
X0023749Y0125080D02*
X0026361Y0125080D01*
X0025873Y0123900D02*
X0024237Y0123900D01*
X0024246Y0122721D02*
X0025865Y0122721D01*
X0026143Y0121541D02*
X0023967Y0121541D01*
X0023296Y0120362D02*
X0026814Y0120362D01*
X0028436Y0119182D02*
X0021674Y0119182D01*
X0020889Y0117238D02*
X0019222Y0117238D01*
X0017681Y0116600D01*
X0016503Y0115421D01*
X0015865Y0113881D01*
X0015865Y0112214D01*
X0016503Y0110673D01*
X0017681Y0109495D01*
X0019222Y0108857D01*
X0020889Y0108857D01*
X0022429Y0109495D01*
X0023608Y0110673D01*
X0024246Y0112214D01*
X0024246Y0113881D01*
X0023608Y0115421D01*
X0022429Y0116600D01*
X0020889Y0117238D01*
X0021891Y0116823D02*
X0028220Y0116823D01*
X0027681Y0116600D02*
X0026503Y0115421D01*
X0025865Y0113881D01*
X0025865Y0112214D01*
X0026503Y0110673D01*
X0027681Y0109495D01*
X0029222Y0108857D01*
X0030889Y0108857D01*
X0032429Y0109495D01*
X0033608Y0110673D01*
X0034246Y0112214D01*
X0034246Y0113881D01*
X0033608Y0115421D01*
X0032429Y0116600D01*
X0030889Y0117238D01*
X0029222Y0117238D01*
X0027681Y0116600D01*
X0026725Y0115643D02*
X0023385Y0115643D01*
X0024004Y0114464D02*
X0026106Y0114464D01*
X0025865Y0113284D02*
X0024246Y0113284D01*
X0024200Y0112104D02*
X0025910Y0112104D01*
X0026398Y0110925D02*
X0023712Y0110925D01*
X0022679Y0109745D02*
X0027431Y0109745D01*
X0029222Y0107238D02*
X0027681Y0106600D01*
X0026503Y0105421D01*
X0025865Y0103881D01*
X0025865Y0102214D01*
X0026503Y0100673D01*
X0027681Y0099495D01*
X0029222Y0098857D01*
X0030889Y0098857D01*
X0032429Y0099495D01*
X0033608Y0100673D01*
X0034246Y0102214D01*
X0034246Y0103881D01*
X0033608Y0105421D01*
X0032429Y0106600D01*
X0030889Y0107238D01*
X0029222Y0107238D01*
X0027288Y0106206D02*
X0022822Y0106206D01*
X0022429Y0106600D02*
X0020889Y0107238D01*
X0019222Y0107238D01*
X0017681Y0106600D01*
X0016503Y0105421D01*
X0015865Y0103881D01*
X0015865Y0102214D01*
X0016503Y0100673D01*
X0017681Y0099495D01*
X0019222Y0098857D01*
X0020889Y0098857D01*
X0022429Y0099495D01*
X0023608Y0100673D01*
X0024246Y0102214D01*
X0024246Y0103881D01*
X0023608Y0105421D01*
X0022429Y0106600D01*
X0023771Y0105027D02*
X0026339Y0105027D01*
X0025865Y0103847D02*
X0024246Y0103847D01*
X0024246Y0102667D02*
X0025865Y0102667D01*
X0026165Y0101488D02*
X0023945Y0101488D01*
X0023242Y0100308D02*
X0026868Y0100308D01*
X0028565Y0099129D02*
X0021545Y0099129D01*
X0020889Y0097238D02*
X0019222Y0097238D01*
X0017681Y0096600D01*
X0016503Y0095421D01*
X0015865Y0093881D01*
X0015865Y0092214D01*
X0016503Y0090673D01*
X0017681Y0089495D01*
X0019222Y0088857D01*
X0020889Y0088857D01*
X0022429Y0089495D01*
X0023608Y0090673D01*
X0024246Y0092214D01*
X0024246Y0093881D01*
X0023608Y0095421D01*
X0022429Y0096600D01*
X0020889Y0097238D01*
X0022020Y0096769D02*
X0028091Y0096769D01*
X0027681Y0096600D02*
X0026503Y0095421D01*
X0025865Y0093881D01*
X0025865Y0092214D01*
X0026503Y0090673D01*
X0027681Y0089495D01*
X0029222Y0088857D01*
X0030889Y0088857D01*
X0032429Y0089495D01*
X0033608Y0090673D01*
X0034246Y0092214D01*
X0034246Y0093881D01*
X0033608Y0095421D01*
X0032429Y0096600D01*
X0030889Y0097238D01*
X0029222Y0097238D01*
X0027681Y0096600D01*
X0026671Y0095590D02*
X0023439Y0095590D01*
X0024026Y0094410D02*
X0026084Y0094410D01*
X0025865Y0093231D02*
X0024246Y0093231D01*
X0024178Y0092051D02*
X0025932Y0092051D01*
X0026421Y0090871D02*
X0023690Y0090871D01*
X0022626Y0089692D02*
X0027484Y0089692D01*
X0027234Y0086153D02*
X0022876Y0086153D01*
X0022429Y0086600D02*
X0020889Y0087238D01*
X0019222Y0087238D01*
X0017681Y0086600D01*
X0016503Y0085421D01*
X0015865Y0083881D01*
X0015865Y0082214D01*
X0016503Y0080673D01*
X0017681Y0079495D01*
X0019222Y0078857D01*
X0020889Y0078857D01*
X0022429Y0079495D01*
X0023608Y0080673D01*
X0024246Y0082214D01*
X0024246Y0083881D01*
X0023608Y0085421D01*
X0022429Y0086600D01*
X0023793Y0084973D02*
X0026317Y0084973D01*
X0025865Y0083794D02*
X0024246Y0083794D01*
X0024246Y0082614D02*
X0025865Y0082614D01*
X0026187Y0081434D02*
X0023923Y0081434D01*
X0023189Y0080255D02*
X0026921Y0080255D01*
X0032149Y0076716D02*
X0146845Y0076716D01*
X0146356Y0077896D02*
X0014024Y0077896D01*
X0014024Y0079075D02*
X0018694Y0079075D01*
X0016921Y0080255D02*
X0014024Y0080255D01*
X0014024Y0081434D02*
X0016187Y0081434D01*
X0015865Y0082614D02*
X0014024Y0082614D01*
X0014024Y0083794D02*
X0015865Y0083794D01*
X0016317Y0084973D02*
X0014024Y0084973D01*
X0014024Y0086153D02*
X0017234Y0086153D01*
X0014024Y0087332D02*
X0078507Y0087332D01*
X0078557Y0087283D02*
X0080530Y0087283D01*
X0081924Y0088678D01*
X0081924Y0090650D01*
X0081475Y0091100D01*
X0082234Y0091859D01*
X0082234Y0092517D01*
X0083285Y0092517D01*
X0084680Y0093911D01*
X0084680Y0095884D01*
X0083285Y0097279D01*
X0081313Y0097279D01*
X0079918Y0095884D01*
X0079918Y0095226D01*
X0078867Y0095226D01*
X0077472Y0093831D01*
X0077472Y0091859D01*
X0077921Y0091409D01*
X0077162Y0090650D01*
X0077162Y0088678D01*
X0078557Y0087283D01*
X0077328Y0088512D02*
X0014024Y0088512D01*
X0014024Y0089692D02*
X0017484Y0089692D01*
X0016421Y0090871D02*
X0014024Y0090871D01*
X0014024Y0092051D02*
X0015932Y0092051D01*
X0015865Y0093231D02*
X0014024Y0093231D01*
X0014024Y0094410D02*
X0016084Y0094410D01*
X0016671Y0095590D02*
X0014024Y0095590D01*
X0014024Y0096769D02*
X0018091Y0096769D01*
X0018565Y0099129D02*
X0014024Y0099129D01*
X0014024Y0100308D02*
X0016868Y0100308D01*
X0016165Y0101488D02*
X0014024Y0101488D01*
X0014024Y0102667D02*
X0015865Y0102667D01*
X0015865Y0103847D02*
X0014024Y0103847D01*
X0014024Y0105027D02*
X0016339Y0105027D01*
X0017288Y0106206D02*
X0014024Y0106206D01*
X0014024Y0107386D02*
X0207053Y0107386D01*
X0207342Y0107505D02*
X0205602Y0106785D01*
X0204270Y0105453D01*
X0203550Y0103713D01*
X0203550Y0101830D01*
X0204270Y0100090D01*
X0205602Y0098758D01*
X0207342Y0098038D01*
X0209225Y0098038D01*
X0210965Y0098758D01*
X0212297Y0100090D01*
X0213017Y0101830D01*
X0213017Y0103713D01*
X0212297Y0105453D01*
X0210965Y0106785D01*
X0209225Y0107505D01*
X0207342Y0107505D01*
X0209514Y0107386D02*
X0245401Y0107386D01*
X0245683Y0107529D02*
X0244963Y0107163D01*
X0244309Y0106688D01*
X0243738Y0106116D01*
X0243263Y0105462D01*
X0242896Y0104742D01*
X0242646Y0103974D01*
X0242549Y0103362D01*
X0247063Y0103362D01*
X0247063Y0102181D01*
X0248244Y0102181D01*
X0248244Y0097667D01*
X0248856Y0097764D01*
X0249624Y0098014D01*
X0250344Y0098381D01*
X0250998Y0098856D01*
X0251569Y0099427D01*
X0252044Y0100081D01*
X0252411Y0100801D01*
X0252661Y0101569D01*
X0252758Y0102181D01*
X0248244Y0102181D01*
X0248244Y0103362D01*
X0252758Y0103362D01*
X0252661Y0103974D01*
X0252411Y0104742D01*
X0252044Y0105462D01*
X0251569Y0106116D01*
X0250998Y0106688D01*
X0250344Y0107163D01*
X0249624Y0107529D01*
X0248856Y0107779D01*
X0248244Y0107876D01*
X0248244Y0103362D01*
X0247063Y0103362D01*
X0247063Y0107876D01*
X0246451Y0107779D01*
X0245683Y0107529D01*
X0247063Y0107386D02*
X0248244Y0107386D01*
X0248244Y0106206D02*
X0247063Y0106206D01*
X0247063Y0105027D02*
X0248244Y0105027D01*
X0248244Y0103847D02*
X0247063Y0103847D01*
X0247063Y0102667D02*
X0213017Y0102667D01*
X0212962Y0103847D02*
X0242626Y0103847D01*
X0243041Y0105027D02*
X0212473Y0105027D01*
X0211544Y0106206D02*
X0243828Y0106206D01*
X0242549Y0102181D02*
X0242646Y0101569D01*
X0242896Y0100801D01*
X0243263Y0100081D01*
X0243738Y0099427D01*
X0244309Y0098856D01*
X0244963Y0098381D01*
X0245683Y0098014D01*
X0246451Y0097764D01*
X0247063Y0097667D01*
X0247063Y0102181D01*
X0242549Y0102181D01*
X0242673Y0101488D02*
X0212876Y0101488D01*
X0212387Y0100308D02*
X0243147Y0100308D01*
X0244036Y0099129D02*
X0211335Y0099129D01*
X0205232Y0099129D02*
X0167063Y0099129D01*
X0167357Y0099423D02*
X0167357Y0101396D01*
X0165963Y0102791D01*
X0163990Y0102791D01*
X0162595Y0101396D01*
X0162595Y0100035D01*
X0162022Y0100035D01*
X0161236Y0099249D01*
X0160451Y0100035D01*
X0158478Y0100035D01*
X0157083Y0098640D01*
X0157083Y0096667D01*
X0158478Y0095272D01*
X0160451Y0095272D01*
X0161236Y0096058D01*
X0162022Y0095272D01*
X0163994Y0095272D01*
X0165389Y0096667D01*
X0165389Y0098028D01*
X0165963Y0098028D01*
X0167357Y0099423D01*
X0167357Y0100308D02*
X0204180Y0100308D01*
X0203691Y0101488D02*
X0167265Y0101488D01*
X0166086Y0102667D02*
X0203550Y0102667D01*
X0203605Y0103847D02*
X0119867Y0103847D01*
X0119358Y0104356D02*
X0117818Y0104994D01*
X0116151Y0104994D01*
X0114610Y0104356D01*
X0113432Y0103177D01*
X0112794Y0101637D01*
X0112794Y0099970D01*
X0113432Y0098429D01*
X0114610Y0097251D01*
X0116151Y0096613D01*
X0117818Y0096613D01*
X0119358Y0097251D01*
X0120537Y0098429D01*
X0121175Y0099970D01*
X0121175Y0101637D01*
X0120537Y0103177D01*
X0119358Y0104356D01*
X0120748Y0102667D02*
X0163867Y0102667D01*
X0162687Y0101488D02*
X0121175Y0101488D01*
X0121175Y0100308D02*
X0162595Y0100308D01*
X0165389Y0097949D02*
X0177652Y0097949D01*
X0178163Y0098460D02*
X0176769Y0097065D01*
X0176769Y0095092D01*
X0178163Y0093698D01*
X0180136Y0093698D01*
X0181531Y0095092D01*
X0181531Y0097065D01*
X0180136Y0098460D01*
X0178163Y0098460D01*
X0176769Y0096769D02*
X0165389Y0096769D01*
X0164311Y0095590D02*
X0176769Y0095590D01*
X0177451Y0094410D02*
X0084680Y0094410D01*
X0084680Y0095590D02*
X0152255Y0095590D01*
X0152573Y0095272D02*
X0154545Y0095272D01*
X0155940Y0096667D01*
X0155940Y0098640D01*
X0154545Y0100035D01*
X0152573Y0100035D01*
X0151178Y0098640D01*
X0151178Y0096667D01*
X0152573Y0095272D01*
X0151178Y0096769D02*
X0118196Y0096769D01*
X0120056Y0097949D02*
X0151178Y0097949D01*
X0151667Y0099129D02*
X0120826Y0099129D01*
X0115772Y0096769D02*
X0108196Y0096769D01*
X0107818Y0096613D02*
X0109358Y0097251D01*
X0110537Y0098429D01*
X0111175Y0099970D01*
X0111175Y0101637D01*
X0110537Y0103177D01*
X0109358Y0104356D01*
X0107818Y0104994D01*
X0106151Y0104994D01*
X0104610Y0104356D01*
X0103432Y0103177D01*
X0102794Y0101637D01*
X0102794Y0099970D01*
X0103432Y0098429D01*
X0104610Y0097251D01*
X0106151Y0096613D01*
X0107818Y0096613D01*
X0105772Y0096769D02*
X0099179Y0096769D01*
X0099390Y0096877D02*
X0099975Y0097302D01*
X0100486Y0097813D01*
X0100910Y0098397D01*
X0101238Y0099041D01*
X0101462Y0099728D01*
X0101567Y0100394D01*
X0097394Y0100394D01*
X0097394Y0101213D01*
X0096575Y0101213D01*
X0096575Y0105386D01*
X0095909Y0105281D01*
X0095222Y0105057D01*
X0094578Y0104729D01*
X0093994Y0104305D01*
X0093483Y0103794D01*
X0093058Y0103209D01*
X0092730Y0102565D01*
X0092507Y0101878D01*
X0092401Y0101213D01*
X0096575Y0101213D01*
X0096575Y0100394D01*
X0092401Y0100394D01*
X0092507Y0099728D01*
X0092730Y0099041D01*
X0093058Y0098397D01*
X0093483Y0097813D01*
X0093994Y0097302D01*
X0094578Y0096877D01*
X0095222Y0096549D01*
X0095909Y0096326D01*
X0096575Y0096220D01*
X0096575Y0100394D01*
X0097394Y0100394D01*
X0097394Y0096220D01*
X0098059Y0096326D01*
X0098746Y0096549D01*
X0099390Y0096877D01*
X0100585Y0097949D02*
X0103912Y0097949D01*
X0103142Y0099129D02*
X0101267Y0099129D01*
X0101554Y0100308D02*
X0102794Y0100308D01*
X0102794Y0101488D02*
X0101524Y0101488D01*
X0101567Y0101213D02*
X0101462Y0101878D01*
X0101238Y0102565D01*
X0100910Y0103209D01*
X0100486Y0103794D01*
X0099975Y0104305D01*
X0099390Y0104729D01*
X0098746Y0105057D01*
X0098059Y0105281D01*
X0097394Y0105386D01*
X0097394Y0101213D01*
X0101567Y0101213D01*
X0101186Y0102667D02*
X0103221Y0102667D01*
X0104102Y0103847D02*
X0100432Y0103847D01*
X0098807Y0105027D02*
X0204094Y0105027D01*
X0205023Y0106206D02*
X0032822Y0106206D01*
X0033771Y0105027D02*
X0095162Y0105027D01*
X0096575Y0105027D02*
X0097394Y0105027D01*
X0097394Y0103847D02*
X0096575Y0103847D01*
X0096575Y0102667D02*
X0097394Y0102667D01*
X0097394Y0101488D02*
X0096575Y0101488D01*
X0096575Y0100308D02*
X0097394Y0100308D01*
X0097394Y0099129D02*
X0096575Y0099129D01*
X0096575Y0097949D02*
X0097394Y0097949D01*
X0097394Y0096769D02*
X0096575Y0096769D01*
X0094789Y0096769D02*
X0088196Y0096769D01*
X0087818Y0096613D02*
X0089358Y0097251D01*
X0090537Y0098429D01*
X0091175Y0099970D01*
X0091175Y0101637D01*
X0090537Y0103177D01*
X0089358Y0104356D01*
X0087818Y0104994D01*
X0086151Y0104994D01*
X0084610Y0104356D01*
X0083432Y0103177D01*
X0082794Y0101637D01*
X0082794Y0099970D01*
X0083432Y0098429D01*
X0084610Y0097251D01*
X0086151Y0096613D01*
X0087818Y0096613D01*
X0085772Y0096769D02*
X0083795Y0096769D01*
X0083912Y0097949D02*
X0014024Y0097949D01*
X0014024Y0108566D02*
X0104634Y0108566D01*
X0105329Y0107871D02*
X0107301Y0107871D01*
X0108696Y0109266D01*
X0108696Y0111238D01*
X0107301Y0112633D01*
X0105329Y0112633D01*
X0103934Y0111238D01*
X0103934Y0109266D01*
X0105329Y0107871D01*
X0103934Y0109745D02*
X0032679Y0109745D01*
X0033712Y0110925D02*
X0103934Y0110925D01*
X0104800Y0112104D02*
X0034200Y0112104D01*
X0034246Y0113284D02*
X0336554Y0113284D01*
X0336735Y0112846D02*
X0337978Y0111604D01*
X0339600Y0110932D01*
X0341357Y0110932D01*
X0342980Y0111604D01*
X0344222Y0112846D01*
X0344894Y0114469D01*
X0344894Y0116226D01*
X0344222Y0117848D01*
X0342980Y0119091D01*
X0341357Y0119763D01*
X0339600Y0119763D01*
X0337978Y0119091D01*
X0336735Y0117848D01*
X0336063Y0116226D01*
X0336063Y0114469D01*
X0336735Y0112846D01*
X0337477Y0112104D02*
X0290113Y0112104D01*
X0290586Y0111632D02*
X0289191Y0113027D01*
X0287218Y0113027D01*
X0285824Y0111632D01*
X0285824Y0109659D01*
X0287218Y0108265D01*
X0289191Y0108265D01*
X0290586Y0109659D01*
X0290586Y0111632D01*
X0290586Y0110925D02*
X0347325Y0110925D01*
X0347263Y0109745D02*
X0290586Y0109745D01*
X0289492Y0108566D02*
X0337954Y0108566D01*
X0336661Y0107386D02*
X0288254Y0107386D01*
X0287965Y0107505D02*
X0286082Y0107505D01*
X0284342Y0106785D01*
X0283010Y0105453D01*
X0282290Y0103713D01*
X0282290Y0101830D01*
X0283010Y0100090D01*
X0284342Y0098758D01*
X0286082Y0098038D01*
X0287965Y0098038D01*
X0289705Y0098758D01*
X0291037Y0100090D01*
X0291757Y0101830D01*
X0291757Y0103713D01*
X0291037Y0105453D01*
X0289705Y0106785D01*
X0287965Y0107505D01*
X0286917Y0108566D02*
X0107996Y0108566D01*
X0108696Y0109745D02*
X0285824Y0109745D01*
X0285824Y0110925D02*
X0108696Y0110925D01*
X0107830Y0112104D02*
X0286296Y0112104D01*
X0285793Y0107386D02*
X0249906Y0107386D01*
X0251479Y0106206D02*
X0283764Y0106206D01*
X0282834Y0105027D02*
X0252266Y0105027D01*
X0252681Y0103847D02*
X0282345Y0103847D01*
X0282290Y0102667D02*
X0248244Y0102667D01*
X0248244Y0101488D02*
X0247063Y0101488D01*
X0247063Y0100308D02*
X0248244Y0100308D01*
X0248244Y0099129D02*
X0247063Y0099129D01*
X0247063Y0097949D02*
X0248244Y0097949D01*
X0249424Y0097949D02*
X0339567Y0097949D01*
X0341390Y0097949D02*
X0347334Y0097949D01*
X0347263Y0099129D02*
X0290075Y0099129D01*
X0291127Y0100308D02*
X0337995Y0100308D01*
X0336677Y0101488D02*
X0291616Y0101488D01*
X0291757Y0102667D02*
X0335994Y0102667D01*
X0335698Y0103847D02*
X0291702Y0103847D01*
X0291213Y0105027D02*
X0335695Y0105027D01*
X0335987Y0106206D02*
X0290284Y0106206D01*
X0282431Y0101488D02*
X0252634Y0101488D01*
X0252160Y0100308D02*
X0282920Y0100308D01*
X0283972Y0099129D02*
X0251271Y0099129D01*
X0245883Y0097949D02*
X0180647Y0097949D01*
X0181531Y0096769D02*
X0337456Y0096769D01*
X0336545Y0095590D02*
X0181531Y0095590D01*
X0180848Y0094410D02*
X0336063Y0094410D01*
X0336063Y0093231D02*
X0083999Y0093231D01*
X0082234Y0092051D02*
X0336319Y0092051D01*
X0336910Y0090871D02*
X0081703Y0090871D01*
X0081924Y0089692D02*
X0338248Y0089692D01*
X0337740Y0086153D02*
X0032876Y0086153D01*
X0033793Y0084973D02*
X0336663Y0084973D01*
X0336202Y0081434D02*
X0162941Y0081434D01*
X0163680Y0080255D02*
X0336690Y0080255D01*
X0337806Y0079075D02*
X0163962Y0079075D01*
X0164167Y0069638D02*
X0380890Y0069638D01*
X0380890Y0068459D02*
X0163590Y0068459D01*
X0162370Y0067279D02*
X0174770Y0067279D01*
X0173201Y0066099D02*
X0137066Y0066099D01*
X0138084Y0064920D02*
X0172184Y0064920D01*
X0171493Y0063740D02*
X0138775Y0063740D01*
X0139219Y0062561D02*
X0171049Y0062561D01*
X0170795Y0061381D02*
X0139473Y0061381D01*
X0139459Y0059022D02*
X0170808Y0059022D01*
X0171076Y0057842D02*
X0139192Y0057842D01*
X0138733Y0056663D02*
X0171534Y0056663D01*
X0172261Y0055483D02*
X0138006Y0055483D01*
X0136965Y0054303D02*
X0173303Y0054303D01*
X0174945Y0053124D02*
X0135323Y0053124D01*
X0132024Y0053124D02*
X0130843Y0053124D01*
X0130843Y0054303D02*
X0132024Y0054303D01*
X0132024Y0055483D02*
X0130843Y0055483D01*
X0130843Y0056663D02*
X0132024Y0056663D01*
X0132024Y0057842D02*
X0130843Y0057842D01*
X0130843Y0061381D02*
X0132024Y0061381D01*
X0132024Y0062561D02*
X0130843Y0062561D01*
X0130843Y0063740D02*
X0132024Y0063740D01*
X0132024Y0064920D02*
X0130843Y0064920D01*
X0130843Y0066099D02*
X0132024Y0066099D01*
X0132024Y0067279D02*
X0130843Y0067279D01*
X0127368Y0067279D02*
X0120113Y0067279D01*
X0120113Y0066352D02*
X0120113Y0068325D01*
X0118719Y0069720D01*
X0116746Y0069720D01*
X0115764Y0068737D01*
X0114782Y0069720D01*
X0112809Y0069720D01*
X0111827Y0068737D01*
X0110845Y0069720D01*
X0108872Y0069720D01*
X0107890Y0068737D01*
X0106908Y0069720D01*
X0104935Y0069720D01*
X0103953Y0068737D01*
X0102971Y0069720D01*
X0100998Y0069720D01*
X0099603Y0068325D01*
X0099603Y0066352D01*
X0100998Y0064957D01*
X0102971Y0064957D01*
X0103953Y0065940D01*
X0104935Y0064957D01*
X0106908Y0064957D01*
X0107890Y0065940D01*
X0108872Y0064957D01*
X0110845Y0064957D01*
X0111827Y0065940D01*
X0112809Y0064957D01*
X0114782Y0064957D01*
X0115764Y0065940D01*
X0116746Y0064957D01*
X0118719Y0064957D01*
X0120113Y0066352D01*
X0119861Y0066099D02*
X0125800Y0066099D01*
X0119980Y0068459D02*
X0147150Y0068459D01*
X0146515Y0069638D02*
X0118800Y0069638D01*
X0116665Y0069638D02*
X0114863Y0069638D01*
X0112728Y0069638D02*
X0110926Y0069638D01*
X0108791Y0069638D02*
X0106989Y0069638D01*
X0104854Y0069638D02*
X0103052Y0069638D01*
X0100917Y0069638D02*
X0085335Y0069638D01*
X0086515Y0068459D02*
X0099737Y0068459D01*
X0099603Y0067279D02*
X0086649Y0067279D01*
X0086396Y0066099D02*
X0099856Y0066099D01*
X0083200Y0069638D02*
X0081398Y0069638D01*
X0079263Y0069638D02*
X0077461Y0069638D01*
X0075326Y0069638D02*
X0073524Y0069638D01*
X0071389Y0069638D02*
X0032572Y0069638D01*
X0033667Y0070818D02*
X0146306Y0070818D01*
X0146429Y0071997D02*
X0034156Y0071997D01*
X0034246Y0073177D02*
X0146943Y0073177D01*
X0148297Y0074357D02*
X0034049Y0074357D01*
X0033492Y0075536D02*
X0147946Y0075536D01*
X0153275Y0068459D02*
X0156520Y0068459D01*
X0157741Y0067279D02*
X0151629Y0067279D01*
X0148796Y0067279D02*
X0135498Y0067279D01*
X0123407Y0059022D02*
X0031287Y0059022D01*
X0032278Y0056663D02*
X0124133Y0056663D01*
X0123674Y0057842D02*
X0014024Y0057842D01*
X0014024Y0056663D02*
X0017221Y0056663D01*
X0016151Y0055483D02*
X0014024Y0055483D01*
X0014024Y0054303D02*
X0015636Y0054303D01*
X0014024Y0068459D02*
X0070209Y0068459D01*
X0080579Y0087332D02*
X0346924Y0087332D01*
X0351194Y0088512D02*
X0081759Y0088512D01*
X0077162Y0089692D02*
X0032626Y0089692D01*
X0033690Y0090871D02*
X0077383Y0090871D01*
X0077472Y0092051D02*
X0034178Y0092051D01*
X0034246Y0093231D02*
X0077472Y0093231D01*
X0078051Y0094410D02*
X0034026Y0094410D01*
X0033439Y0095590D02*
X0079918Y0095590D01*
X0080804Y0096769D02*
X0032020Y0096769D01*
X0031545Y0099129D02*
X0083142Y0099129D01*
X0082794Y0100308D02*
X0033242Y0100308D01*
X0033945Y0101488D02*
X0082794Y0101488D01*
X0083221Y0102667D02*
X0034246Y0102667D01*
X0034246Y0103847D02*
X0084102Y0103847D01*
X0089867Y0103847D02*
X0093536Y0103847D01*
X0092782Y0102667D02*
X0090748Y0102667D01*
X0091175Y0101488D02*
X0092445Y0101488D01*
X0092415Y0100308D02*
X0091175Y0100308D01*
X0090826Y0099129D02*
X0092702Y0099129D01*
X0093384Y0097949D02*
X0090056Y0097949D01*
X0110056Y0097949D02*
X0113912Y0097949D01*
X0113142Y0099129D02*
X0110826Y0099129D01*
X0111175Y0100308D02*
X0112794Y0100308D01*
X0112794Y0101488D02*
X0111175Y0101488D01*
X0110748Y0102667D02*
X0113221Y0102667D01*
X0114102Y0103847D02*
X0109867Y0103847D01*
X0127162Y0121470D02*
X0128557Y0120076D01*
X0130530Y0120076D01*
X0131924Y0121470D01*
X0131924Y0123443D01*
X0130530Y0124838D01*
X0128557Y0124838D01*
X0127162Y0123443D01*
X0127162Y0121470D01*
X0127162Y0121541D02*
X0033967Y0121541D01*
X0034246Y0122721D02*
X0127162Y0122721D01*
X0127620Y0123900D02*
X0034238Y0123900D01*
X0033749Y0125080D02*
X0125915Y0125080D01*
X0124800Y0126260D02*
X0108106Y0126260D01*
X0107818Y0126140D02*
X0109358Y0126778D01*
X0110537Y0127957D01*
X0111175Y0129497D01*
X0111175Y0131164D01*
X0110537Y0132704D01*
X0109358Y0133883D01*
X0107818Y0134521D01*
X0106151Y0134521D01*
X0104610Y0133883D01*
X0103432Y0132704D01*
X0102794Y0131164D01*
X0102794Y0129497D01*
X0103432Y0127957D01*
X0104610Y0126778D01*
X0106151Y0126140D01*
X0107818Y0126140D01*
X0105862Y0126260D02*
X0099106Y0126260D01*
X0099390Y0126405D02*
X0099975Y0126829D01*
X0100486Y0127340D01*
X0100910Y0127925D01*
X0101238Y0128569D01*
X0101462Y0129256D01*
X0101567Y0129921D01*
X0097394Y0129921D01*
X0097394Y0130740D01*
X0101567Y0130740D01*
X0101462Y0131406D01*
X0101238Y0132093D01*
X0100910Y0132737D01*
X0100486Y0133321D01*
X0099975Y0133832D01*
X0099390Y0134257D01*
X0098746Y0134585D01*
X0098059Y0134808D01*
X0097394Y0134914D01*
X0097394Y0130740D01*
X0096575Y0130740D01*
X0096575Y0129921D01*
X0097394Y0129921D01*
X0097394Y0125748D01*
X0098059Y0125853D01*
X0098746Y0126076D01*
X0099390Y0126405D01*
X0100558Y0127439D02*
X0103949Y0127439D01*
X0103157Y0128619D02*
X0101255Y0128619D01*
X0101548Y0129799D02*
X0102794Y0129799D01*
X0102794Y0130978D02*
X0101529Y0130978D01*
X0101205Y0132158D02*
X0103205Y0132158D01*
X0104065Y0133337D02*
X0100470Y0133337D01*
X0098880Y0134517D02*
X0106140Y0134517D01*
X0107828Y0134517D02*
X0124800Y0134517D01*
X0124800Y0135697D02*
X0033332Y0135697D01*
X0033982Y0134517D02*
X0095089Y0134517D01*
X0095222Y0134585D02*
X0094578Y0134257D01*
X0093994Y0133832D01*
X0093483Y0133321D01*
X0093058Y0132737D01*
X0092730Y0132093D01*
X0092507Y0131406D01*
X0092401Y0130740D01*
X0096575Y0130740D01*
X0096575Y0134914D01*
X0095909Y0134808D01*
X0095222Y0134585D01*
X0096575Y0134517D02*
X0097394Y0134517D01*
X0097394Y0133337D02*
X0096575Y0133337D01*
X0096575Y0132158D02*
X0097394Y0132158D01*
X0097394Y0130978D02*
X0096575Y0130978D01*
X0096575Y0129921D02*
X0092401Y0129921D01*
X0092507Y0129256D01*
X0092730Y0128569D01*
X0093058Y0127925D01*
X0093483Y0127340D01*
X0093994Y0126829D01*
X0094578Y0126405D01*
X0095222Y0126076D01*
X0095909Y0125853D01*
X0096575Y0125748D01*
X0096575Y0129921D01*
X0096575Y0129799D02*
X0097394Y0129799D01*
X0097394Y0128619D02*
X0096575Y0128619D01*
X0096575Y0127439D02*
X0097394Y0127439D01*
X0097394Y0126260D02*
X0096575Y0126260D01*
X0094862Y0126260D02*
X0032769Y0126260D01*
X0032733Y0129799D02*
X0092421Y0129799D01*
X0092439Y0130978D02*
X0033734Y0130978D01*
X0034223Y0132158D02*
X0092763Y0132158D01*
X0093499Y0133337D02*
X0034246Y0133337D01*
X0018349Y0136876D02*
X0014024Y0136876D01*
X0014024Y0135697D02*
X0016778Y0135697D01*
X0016128Y0134517D02*
X0014024Y0134517D01*
X0014024Y0133337D02*
X0015865Y0133337D01*
X0015888Y0132158D02*
X0014024Y0132158D01*
X0014024Y0130978D02*
X0016376Y0130978D01*
X0017377Y0129799D02*
X0014024Y0129799D01*
X0014024Y0128619D02*
X0092714Y0128619D01*
X0093411Y0127439D02*
X0014024Y0127439D01*
X0014024Y0126260D02*
X0017341Y0126260D01*
X0016361Y0125080D02*
X0014024Y0125080D01*
X0014024Y0123900D02*
X0015873Y0123900D01*
X0015865Y0122721D02*
X0014024Y0122721D01*
X0014024Y0121541D02*
X0016143Y0121541D01*
X0016814Y0120362D02*
X0014024Y0120362D01*
X0014024Y0119182D02*
X0018436Y0119182D01*
X0018220Y0116823D02*
X0014024Y0116823D01*
X0014024Y0118002D02*
X0135748Y0118002D01*
X0135036Y0119182D02*
X0031674Y0119182D01*
X0033296Y0120362D02*
X0128271Y0120362D01*
X0130816Y0120362D02*
X0135036Y0120362D01*
X0135890Y0121541D02*
X0131924Y0121541D01*
X0131924Y0122721D02*
X0337761Y0122721D01*
X0336671Y0123900D02*
X0131467Y0123900D01*
X0129562Y0126260D02*
X0286611Y0126260D01*
X0286611Y0125407D02*
X0288006Y0124013D01*
X0289978Y0124013D01*
X0291373Y0125407D01*
X0291373Y0127380D01*
X0289978Y0128775D01*
X0288006Y0128775D01*
X0286611Y0127380D01*
X0286611Y0125407D01*
X0286938Y0125080D02*
X0128447Y0125080D01*
X0129562Y0127439D02*
X0286670Y0127439D01*
X0287850Y0128619D02*
X0284742Y0128619D01*
X0285468Y0129799D02*
X0337786Y0129799D01*
X0336682Y0128619D02*
X0290134Y0128619D01*
X0291314Y0127439D02*
X0336193Y0127439D01*
X0336063Y0126260D02*
X0291373Y0126260D01*
X0291046Y0125080D02*
X0336183Y0125080D01*
X0338198Y0119182D02*
X0139798Y0119182D01*
X0139086Y0118002D02*
X0336889Y0118002D01*
X0336311Y0116823D02*
X0031891Y0116823D01*
X0033385Y0115643D02*
X0336063Y0115643D01*
X0336065Y0114464D02*
X0034004Y0114464D01*
X0017431Y0109745D02*
X0014024Y0109745D01*
X0014024Y0110925D02*
X0016398Y0110925D01*
X0015910Y0112104D02*
X0014024Y0112104D01*
X0014024Y0113284D02*
X0015865Y0113284D01*
X0016106Y0114464D02*
X0014024Y0114464D01*
X0014024Y0115643D02*
X0016725Y0115643D01*
X0014024Y0147493D02*
X0336063Y0147493D01*
X0336063Y0148672D02*
X0014024Y0148672D01*
X0021932Y0159289D02*
X0028178Y0159289D01*
X0026708Y0160469D02*
X0023403Y0160469D01*
X0024011Y0161648D02*
X0026099Y0161648D01*
X0025865Y0162828D02*
X0024246Y0162828D01*
X0024193Y0164007D02*
X0025917Y0164007D01*
X0026406Y0165187D02*
X0023705Y0165187D01*
X0022662Y0166367D02*
X0027448Y0166367D01*
X0027271Y0169905D02*
X0022840Y0169905D01*
X0023778Y0171085D02*
X0026332Y0171085D01*
X0025865Y0172265D02*
X0024246Y0172265D01*
X0024246Y0173444D02*
X0025865Y0173444D01*
X0026172Y0174624D02*
X0023938Y0174624D01*
X0023225Y0175803D02*
X0026885Y0175803D01*
X0034246Y0173444D02*
X0157871Y0173444D01*
X0157871Y0174624D02*
X0121298Y0174624D01*
X0121688Y0175803D02*
X0159050Y0175803D01*
X0161017Y0176983D02*
X0121688Y0176983D01*
X0120512Y0178163D02*
X0173619Y0178163D01*
X0174799Y0176983D02*
X0164998Y0176983D01*
X0163770Y0172265D02*
X0162246Y0172265D01*
X0158258Y0172265D02*
X0034246Y0172265D01*
X0034193Y0164007D02*
X0272057Y0164007D01*
X0270878Y0162828D02*
X0034246Y0162828D01*
X0034011Y0161648D02*
X0151588Y0161648D01*
X0150784Y0160469D02*
X0033403Y0160469D01*
X0033279Y0155750D02*
X0275611Y0155750D01*
X0274800Y0154570D02*
X0033960Y0154570D01*
X0034246Y0153391D02*
X0274800Y0153391D01*
X0275555Y0152211D02*
X0034245Y0152211D01*
X0033756Y0151032D02*
X0337219Y0151032D01*
X0336447Y0149852D02*
X0032786Y0149852D01*
X0017920Y0199396D02*
X0014024Y0199396D01*
X0014024Y0200575D02*
X0016601Y0200575D01*
X0016055Y0201755D02*
X0014024Y0201755D01*
X0014024Y0202935D02*
X0015865Y0202935D01*
X0015961Y0204114D02*
X0014024Y0204114D01*
X0014024Y0205294D02*
X0016450Y0205294D01*
X0017555Y0206473D02*
X0014024Y0206473D01*
X0014024Y0207653D02*
X0032674Y0207653D01*
X0032674Y0207061D02*
X0034069Y0205666D01*
X0036041Y0205666D01*
X0037436Y0207061D01*
X0037436Y0209034D01*
X0036041Y0210428D01*
X0034069Y0210428D01*
X0032674Y0209034D01*
X0032674Y0207061D01*
X0032555Y0206473D02*
X0033262Y0206473D01*
X0033660Y0205294D02*
X0336981Y0205294D01*
X0338419Y0206473D02*
X0047636Y0206473D01*
X0048066Y0206903D02*
X0046671Y0205509D01*
X0044699Y0205509D01*
X0043304Y0206903D01*
X0043304Y0208876D01*
X0044699Y0210271D01*
X0046671Y0210271D01*
X0048066Y0208876D01*
X0048066Y0206903D01*
X0048066Y0207653D02*
X0347263Y0207653D01*
X0347263Y0208833D02*
X0263775Y0208833D01*
X0264208Y0209266D02*
X0262813Y0207871D01*
X0260840Y0207871D01*
X0259446Y0209266D01*
X0259446Y0211238D01*
X0260840Y0212633D01*
X0262813Y0212633D01*
X0264208Y0211238D01*
X0264208Y0209266D01*
X0264208Y0210012D02*
X0337669Y0210012D01*
X0336634Y0211192D02*
X0264208Y0211192D01*
X0263075Y0212372D02*
X0336145Y0212372D01*
X0336063Y0213551D02*
X0034246Y0213551D01*
X0034246Y0212372D02*
X0260579Y0212372D01*
X0259446Y0211192D02*
X0033822Y0211192D01*
X0033653Y0210012D02*
X0032946Y0210012D01*
X0032674Y0208833D02*
X0014024Y0208833D01*
X0014024Y0210012D02*
X0017164Y0210012D01*
X0016288Y0211192D02*
X0014024Y0211192D01*
X0014024Y0212372D02*
X0015865Y0212372D01*
X0015865Y0213551D02*
X0014024Y0213551D01*
X0014024Y0214731D02*
X0016217Y0214731D01*
X0016992Y0215910D02*
X0014024Y0215910D01*
X0022319Y0219449D02*
X0027791Y0219449D01*
X0026547Y0220629D02*
X0023563Y0220629D01*
X0024078Y0221808D02*
X0026032Y0221808D01*
X0025865Y0222988D02*
X0024246Y0222988D01*
X0024127Y0224168D02*
X0025983Y0224168D01*
X0026472Y0225347D02*
X0023638Y0225347D01*
X0022502Y0226527D02*
X0027608Y0226527D01*
X0029151Y0228886D02*
X0020960Y0228886D01*
X0020889Y0228857D02*
X0022429Y0229495D01*
X0023608Y0230673D01*
X0024246Y0232214D01*
X0024246Y0233881D01*
X0023608Y0235421D01*
X0022429Y0236600D01*
X0020889Y0237238D01*
X0019222Y0237238D01*
X0017681Y0236600D01*
X0016503Y0235421D01*
X0015865Y0233881D01*
X0015865Y0232214D01*
X0016503Y0230673D01*
X0017681Y0229495D01*
X0019222Y0228857D01*
X0020889Y0228857D01*
X0019151Y0228886D02*
X0014024Y0228886D01*
X0014024Y0230066D02*
X0017110Y0230066D01*
X0016266Y0231245D02*
X0014024Y0231245D01*
X0014024Y0232425D02*
X0015865Y0232425D01*
X0015865Y0233605D02*
X0014024Y0233605D01*
X0014024Y0234784D02*
X0016239Y0234784D01*
X0017045Y0235964D02*
X0014024Y0235964D01*
X0014024Y0237143D02*
X0018994Y0237143D01*
X0019222Y0238857D02*
X0020889Y0238857D01*
X0022429Y0239495D01*
X0023608Y0240673D01*
X0024246Y0242214D01*
X0024246Y0243881D01*
X0023608Y0245421D01*
X0022429Y0246600D01*
X0020889Y0247238D01*
X0019222Y0247238D01*
X0017681Y0246600D01*
X0016503Y0245421D01*
X0015865Y0243881D01*
X0015865Y0242214D01*
X0016503Y0240673D01*
X0017681Y0239495D01*
X0019222Y0238857D01*
X0017673Y0239503D02*
X0014024Y0239503D01*
X0014024Y0240682D02*
X0016499Y0240682D01*
X0016010Y0241862D02*
X0014024Y0241862D01*
X0014024Y0243041D02*
X0015865Y0243041D01*
X0016006Y0244221D02*
X0014024Y0244221D01*
X0014024Y0245401D02*
X0016494Y0245401D01*
X0017662Y0246580D02*
X0014024Y0246580D01*
X0014024Y0247760D02*
X0341043Y0247760D01*
X0341213Y0247930D02*
X0338796Y0245513D01*
X0337488Y0242356D01*
X0337488Y0238938D01*
X0338796Y0235781D01*
X0341213Y0233365D01*
X0344370Y0232057D01*
X0347787Y0232057D01*
X0350945Y0233365D01*
X0353361Y0235781D01*
X0354669Y0238938D01*
X0354669Y0242356D01*
X0353361Y0245513D01*
X0350945Y0247930D01*
X0347787Y0249238D01*
X0344370Y0249238D01*
X0341213Y0247930D01*
X0339863Y0246580D02*
X0032448Y0246580D01*
X0032429Y0246600D02*
X0030889Y0247238D01*
X0029222Y0247238D01*
X0027681Y0246600D01*
X0026503Y0245421D01*
X0025865Y0243881D01*
X0025865Y0242214D01*
X0026503Y0240673D01*
X0027681Y0239495D01*
X0029222Y0238857D01*
X0030889Y0238857D01*
X0032429Y0239495D01*
X0033608Y0240673D01*
X0034246Y0242214D01*
X0034246Y0243881D01*
X0033608Y0245421D01*
X0032429Y0246600D01*
X0033616Y0245401D02*
X0338749Y0245401D01*
X0338261Y0244221D02*
X0034105Y0244221D01*
X0034246Y0243041D02*
X0337772Y0243041D01*
X0337488Y0241862D02*
X0236720Y0241862D01*
X0236760Y0241855D02*
X0236094Y0241961D01*
X0236094Y0237787D01*
X0235276Y0237787D01*
X0235276Y0236968D01*
X0236094Y0236968D01*
X0236094Y0232795D01*
X0236760Y0232900D01*
X0237447Y0233124D01*
X0238091Y0233452D01*
X0238676Y0233876D01*
X0239187Y0234387D01*
X0239611Y0234972D01*
X0239939Y0235616D01*
X0240163Y0236303D01*
X0240268Y0236968D01*
X0236095Y0236968D01*
X0236095Y0237787D01*
X0240268Y0237787D01*
X0240163Y0238453D01*
X0239939Y0239140D01*
X0239611Y0239784D01*
X0239187Y0240368D01*
X0238676Y0240879D01*
X0238091Y0241304D01*
X0237447Y0241632D01*
X0236760Y0241855D01*
X0236094Y0241862D02*
X0235276Y0241862D01*
X0235276Y0241961D02*
X0234610Y0241855D01*
X0233923Y0241632D01*
X0233279Y0241304D01*
X0232694Y0240879D01*
X0232184Y0240368D01*
X0231759Y0239784D01*
X0231431Y0239140D01*
X0231208Y0238453D01*
X0231102Y0237787D01*
X0235276Y0237787D01*
X0235276Y0241961D01*
X0234650Y0241862D02*
X0197350Y0241862D01*
X0197390Y0241855D02*
X0196724Y0241961D01*
X0196724Y0237787D01*
X0195905Y0237787D01*
X0195905Y0236968D01*
X0191732Y0236968D01*
X0191837Y0236303D01*
X0192061Y0235616D01*
X0192389Y0234972D01*
X0192813Y0234387D01*
X0193324Y0233876D01*
X0193909Y0233452D01*
X0194553Y0233124D01*
X0195240Y0232900D01*
X0195905Y0232795D01*
X0195905Y0236968D01*
X0196724Y0236968D01*
X0196724Y0232795D01*
X0197390Y0232900D01*
X0198077Y0233124D01*
X0198721Y0233452D01*
X0199305Y0233876D01*
X0199816Y0234387D01*
X0200241Y0234972D01*
X0200569Y0235616D01*
X0200792Y0236303D01*
X0200898Y0236968D01*
X0196724Y0236968D01*
X0196724Y0237787D01*
X0200898Y0237787D01*
X0200792Y0238453D01*
X0200569Y0239140D01*
X0200241Y0239784D01*
X0199816Y0240368D01*
X0199305Y0240879D01*
X0198721Y0241304D01*
X0198077Y0241632D01*
X0197390Y0241855D01*
X0196724Y0241862D02*
X0195905Y0241862D01*
X0195905Y0241961D02*
X0195240Y0241855D01*
X0194553Y0241632D01*
X0193909Y0241304D01*
X0193324Y0240879D01*
X0192813Y0240368D01*
X0192389Y0239784D01*
X0192061Y0239140D01*
X0191837Y0238453D01*
X0191732Y0237787D01*
X0195905Y0237787D01*
X0195905Y0241961D01*
X0195280Y0241862D02*
X0157979Y0241862D01*
X0158020Y0241855D02*
X0157354Y0241961D01*
X0157354Y0237787D01*
X0161528Y0237787D01*
X0161422Y0238453D01*
X0161199Y0239140D01*
X0160871Y0239784D01*
X0160446Y0240368D01*
X0159935Y0240879D01*
X0159351Y0241304D01*
X0158707Y0241632D01*
X0158020Y0241855D01*
X0157354Y0241862D02*
X0156535Y0241862D01*
X0156535Y0241961D02*
X0155870Y0241855D01*
X0155183Y0241632D01*
X0154539Y0241304D01*
X0153954Y0240879D01*
X0153443Y0240368D01*
X0153019Y0239784D01*
X0152691Y0239140D01*
X0152467Y0238453D01*
X0152362Y0237787D01*
X0156535Y0237787D01*
X0156535Y0236968D01*
X0157354Y0236968D01*
X0157354Y0232795D01*
X0158020Y0232900D01*
X0158707Y0233124D01*
X0159351Y0233452D01*
X0159935Y0233876D01*
X0160446Y0234387D01*
X0160871Y0234972D01*
X0161199Y0235616D01*
X0161422Y0236303D01*
X0161528Y0236968D01*
X0157354Y0236968D01*
X0157354Y0237787D01*
X0156535Y0237787D01*
X0156535Y0241961D01*
X0155910Y0241862D02*
X0118609Y0241862D01*
X0118650Y0241855D02*
X0117984Y0241961D01*
X0117984Y0237787D01*
X0122158Y0237787D01*
X0122052Y0238453D01*
X0121829Y0239140D01*
X0121501Y0239784D01*
X0121076Y0240368D01*
X0120565Y0240879D01*
X0119981Y0241304D01*
X0119337Y0241632D01*
X0118650Y0241855D01*
X0117984Y0241862D02*
X0117165Y0241862D01*
X0117165Y0241961D02*
X0116500Y0241855D01*
X0115813Y0241632D01*
X0115169Y0241304D01*
X0114584Y0240879D01*
X0114073Y0240368D01*
X0113649Y0239784D01*
X0113321Y0239140D01*
X0113097Y0238453D01*
X0112992Y0237787D01*
X0117165Y0237787D01*
X0117165Y0236968D01*
X0117984Y0236968D01*
X0117984Y0232795D01*
X0118650Y0232900D01*
X0119337Y0233124D01*
X0119981Y0233452D01*
X0120565Y0233876D01*
X0121076Y0234387D01*
X0121501Y0234972D01*
X0121829Y0235616D01*
X0122052Y0236303D01*
X0122158Y0236968D01*
X0117984Y0236968D01*
X0117984Y0237787D01*
X0117165Y0237787D01*
X0117165Y0241961D01*
X0116540Y0241862D02*
X0059397Y0241862D01*
X0059437Y0241855D02*
X0058772Y0241961D01*
X0058772Y0237787D01*
X0062945Y0237787D01*
X0062840Y0238453D01*
X0062616Y0239140D01*
X0062288Y0239784D01*
X0061864Y0240368D01*
X0061353Y0240879D01*
X0060768Y0241304D01*
X0060124Y0241632D01*
X0059437Y0241855D01*
X0058772Y0241862D02*
X0057953Y0241862D01*
X0057953Y0241961D02*
X0057287Y0241855D01*
X0056600Y0241632D01*
X0055956Y0241304D01*
X0055372Y0240879D01*
X0054861Y0240368D01*
X0054436Y0239784D01*
X0054108Y0239140D01*
X0053885Y0238453D01*
X0053779Y0237787D01*
X0057953Y0237787D01*
X0057953Y0236968D01*
X0058772Y0236968D01*
X0058772Y0237787D01*
X0057953Y0237787D01*
X0057953Y0241961D01*
X0057328Y0241862D02*
X0034100Y0241862D01*
X0033611Y0240682D02*
X0055174Y0240682D01*
X0054293Y0239503D02*
X0032437Y0239503D01*
X0031117Y0237143D02*
X0057953Y0237143D01*
X0057953Y0236968D02*
X0053779Y0236968D01*
X0053885Y0236303D01*
X0054108Y0235616D01*
X0054436Y0234972D01*
X0054861Y0234387D01*
X0055372Y0233876D01*
X0055956Y0233452D01*
X0056600Y0233124D01*
X0057287Y0232900D01*
X0057953Y0232795D01*
X0057953Y0236968D01*
X0058772Y0236968D02*
X0058772Y0232795D01*
X0059437Y0232900D01*
X0060124Y0233124D01*
X0060768Y0233452D01*
X0061353Y0233876D01*
X0061864Y0234387D01*
X0062288Y0234972D01*
X0062616Y0235616D01*
X0062840Y0236303D01*
X0062945Y0236968D01*
X0058772Y0236968D01*
X0058772Y0237143D02*
X0064172Y0237143D01*
X0064172Y0236544D02*
X0064810Y0235004D01*
X0065988Y0233825D01*
X0067529Y0233187D01*
X0069196Y0233187D01*
X0070736Y0233825D01*
X0071915Y0235004D01*
X0072553Y0236544D01*
X0072553Y0238212D01*
X0071915Y0239752D01*
X0070736Y0240931D01*
X0069196Y0241568D01*
X0067529Y0241568D01*
X0065988Y0240931D01*
X0064810Y0239752D01*
X0064172Y0238212D01*
X0064172Y0236544D01*
X0064412Y0235964D02*
X0062729Y0235964D01*
X0062152Y0234784D02*
X0065030Y0234784D01*
X0066522Y0233605D02*
X0060978Y0233605D01*
X0058772Y0233605D02*
X0057953Y0233605D01*
X0057953Y0234784D02*
X0058772Y0234784D01*
X0058772Y0235964D02*
X0057953Y0235964D01*
X0057953Y0238323D02*
X0058772Y0238323D01*
X0058772Y0239503D02*
X0057953Y0239503D01*
X0057953Y0240682D02*
X0058772Y0240682D01*
X0061550Y0240682D02*
X0065740Y0240682D01*
X0064706Y0239503D02*
X0062432Y0239503D01*
X0062860Y0238323D02*
X0064218Y0238323D01*
X0070984Y0240682D02*
X0075740Y0240682D01*
X0075988Y0240931D02*
X0074810Y0239752D01*
X0074172Y0238212D01*
X0074172Y0236544D01*
X0074810Y0235004D01*
X0075988Y0233825D01*
X0077529Y0233187D01*
X0079196Y0233187D01*
X0080736Y0233825D01*
X0081915Y0235004D01*
X0082553Y0236544D01*
X0082553Y0238212D01*
X0081915Y0239752D01*
X0080736Y0240931D01*
X0079196Y0241568D01*
X0077529Y0241568D01*
X0075988Y0240931D01*
X0074706Y0239503D02*
X0072018Y0239503D01*
X0072507Y0238323D02*
X0074218Y0238323D01*
X0074172Y0237143D02*
X0072553Y0237143D01*
X0072312Y0235964D02*
X0074412Y0235964D01*
X0075030Y0234784D02*
X0071695Y0234784D01*
X0070203Y0233605D02*
X0076522Y0233605D01*
X0080203Y0233605D02*
X0086522Y0233605D01*
X0085988Y0233825D02*
X0087529Y0233187D01*
X0089196Y0233187D01*
X0090736Y0233825D01*
X0091915Y0235004D01*
X0092553Y0236544D01*
X0092553Y0238212D01*
X0091915Y0239752D01*
X0090736Y0240931D01*
X0089196Y0241568D01*
X0087529Y0241568D01*
X0085988Y0240931D01*
X0084810Y0239752D01*
X0084172Y0238212D01*
X0084172Y0236544D01*
X0084810Y0235004D01*
X0085988Y0233825D01*
X0085030Y0234784D02*
X0081695Y0234784D01*
X0082312Y0235964D02*
X0084412Y0235964D01*
X0084172Y0237143D02*
X0082553Y0237143D01*
X0082507Y0238323D02*
X0084218Y0238323D01*
X0084706Y0239503D02*
X0082018Y0239503D01*
X0080984Y0240682D02*
X0085740Y0240682D01*
X0090984Y0240682D02*
X0095740Y0240682D01*
X0095988Y0240931D02*
X0094810Y0239752D01*
X0094172Y0238212D01*
X0094172Y0236544D01*
X0094810Y0235004D01*
X0095988Y0233825D01*
X0097529Y0233187D01*
X0099196Y0233187D01*
X0100736Y0233825D01*
X0101915Y0235004D01*
X0102553Y0236544D01*
X0102553Y0238212D01*
X0101915Y0239752D01*
X0100736Y0240931D01*
X0099196Y0241568D01*
X0097529Y0241568D01*
X0095988Y0240931D01*
X0094706Y0239503D02*
X0092018Y0239503D01*
X0092507Y0238323D02*
X0094218Y0238323D01*
X0094172Y0237143D02*
X0092553Y0237143D01*
X0092312Y0235964D02*
X0094412Y0235964D01*
X0095030Y0234784D02*
X0091695Y0234784D01*
X0090203Y0233605D02*
X0096522Y0233605D01*
X0100203Y0233605D02*
X0114959Y0233605D01*
X0115169Y0233452D02*
X0115813Y0233124D01*
X0116500Y0232900D01*
X0117165Y0232795D01*
X0117165Y0236968D01*
X0112992Y0236968D01*
X0113097Y0236303D01*
X0113321Y0235616D01*
X0113649Y0234972D01*
X0114073Y0234387D01*
X0114584Y0233876D01*
X0115169Y0233452D01*
X0113785Y0234784D02*
X0101695Y0234784D01*
X0102312Y0235964D02*
X0113207Y0235964D01*
X0113077Y0238323D02*
X0102507Y0238323D01*
X0102553Y0237143D02*
X0117165Y0237143D01*
X0117984Y0237143D02*
X0123384Y0237143D01*
X0123384Y0236544D02*
X0124022Y0235004D01*
X0125201Y0233825D01*
X0126741Y0233187D01*
X0128408Y0233187D01*
X0129949Y0233825D01*
X0131127Y0235004D01*
X0131765Y0236544D01*
X0131765Y0238212D01*
X0131127Y0239752D01*
X0129949Y0240931D01*
X0128408Y0241568D01*
X0126741Y0241568D01*
X0125201Y0240931D01*
X0124022Y0239752D01*
X0123384Y0238212D01*
X0123384Y0236544D01*
X0123625Y0235964D02*
X0121942Y0235964D01*
X0121365Y0234784D02*
X0124242Y0234784D01*
X0125734Y0233605D02*
X0120191Y0233605D01*
X0117984Y0233605D02*
X0117165Y0233605D01*
X0117165Y0234784D02*
X0117984Y0234784D01*
X0117984Y0235964D02*
X0117165Y0235964D01*
X0117165Y0238323D02*
X0117984Y0238323D01*
X0117984Y0239503D02*
X0117165Y0239503D01*
X0117165Y0240682D02*
X0117984Y0240682D01*
X0120763Y0240682D02*
X0124953Y0240682D01*
X0123919Y0239503D02*
X0121644Y0239503D01*
X0122073Y0238323D02*
X0123430Y0238323D01*
X0130197Y0240682D02*
X0134953Y0240682D01*
X0135201Y0240931D02*
X0134022Y0239752D01*
X0133384Y0238212D01*
X0133384Y0236544D01*
X0134022Y0235004D01*
X0135201Y0233825D01*
X0136741Y0233187D01*
X0138408Y0233187D01*
X0139949Y0233825D01*
X0141127Y0235004D01*
X0141765Y0236544D01*
X0141765Y0238212D01*
X0141127Y0239752D01*
X0139949Y0240931D01*
X0138408Y0241568D01*
X0136741Y0241568D01*
X0135201Y0240931D01*
X0133919Y0239503D02*
X0131231Y0239503D01*
X0131719Y0238323D02*
X0133430Y0238323D01*
X0133384Y0237143D02*
X0131765Y0237143D01*
X0131525Y0235964D02*
X0133625Y0235964D01*
X0134242Y0234784D02*
X0130907Y0234784D01*
X0129415Y0233605D02*
X0135734Y0233605D01*
X0139415Y0233605D02*
X0154329Y0233605D01*
X0154539Y0233452D02*
X0155183Y0233124D01*
X0155870Y0232900D01*
X0156535Y0232795D01*
X0156535Y0236968D01*
X0152362Y0236968D01*
X0152467Y0236303D01*
X0152691Y0235616D01*
X0153019Y0234972D01*
X0153443Y0234387D01*
X0153954Y0233876D01*
X0154539Y0233452D01*
X0153155Y0234784D02*
X0140907Y0234784D01*
X0141525Y0235964D02*
X0152578Y0235964D01*
X0152447Y0238323D02*
X0141719Y0238323D01*
X0141765Y0237143D02*
X0156535Y0237143D01*
X0157354Y0237143D02*
X0162754Y0237143D01*
X0162754Y0236544D02*
X0163392Y0235004D01*
X0164571Y0233825D01*
X0166111Y0233187D01*
X0167778Y0233187D01*
X0169319Y0233825D01*
X0170497Y0235004D01*
X0171135Y0236544D01*
X0171135Y0238212D01*
X0170497Y0239752D01*
X0169319Y0240931D01*
X0167778Y0241568D01*
X0166111Y0241568D01*
X0164571Y0240931D01*
X0163392Y0239752D01*
X0162754Y0238212D01*
X0162754Y0236544D01*
X0162995Y0235964D02*
X0161312Y0235964D01*
X0160735Y0234784D02*
X0163612Y0234784D01*
X0165104Y0233605D02*
X0159561Y0233605D01*
X0157354Y0233605D02*
X0156535Y0233605D01*
X0156535Y0234784D02*
X0157354Y0234784D01*
X0157354Y0235964D02*
X0156535Y0235964D01*
X0156535Y0238323D02*
X0157354Y0238323D01*
X0157354Y0239503D02*
X0156535Y0239503D01*
X0156535Y0240682D02*
X0157354Y0240682D01*
X0160133Y0240682D02*
X0164323Y0240682D01*
X0163289Y0239503D02*
X0161014Y0239503D01*
X0161443Y0238323D02*
X0162801Y0238323D01*
X0169567Y0240682D02*
X0174323Y0240682D01*
X0174571Y0240931D02*
X0173392Y0239752D01*
X0172754Y0238212D01*
X0172754Y0236544D01*
X0173392Y0235004D01*
X0174571Y0233825D01*
X0176111Y0233187D01*
X0177778Y0233187D01*
X0179319Y0233825D01*
X0180497Y0235004D01*
X0181135Y0236544D01*
X0181135Y0238212D01*
X0180497Y0239752D01*
X0179319Y0240931D01*
X0177778Y0241568D01*
X0176111Y0241568D01*
X0174571Y0240931D01*
X0173289Y0239503D02*
X0170601Y0239503D01*
X0171089Y0238323D02*
X0172801Y0238323D01*
X0172754Y0237143D02*
X0171135Y0237143D01*
X0170895Y0235964D02*
X0172995Y0235964D01*
X0173612Y0234784D02*
X0170277Y0234784D01*
X0168786Y0233605D02*
X0175104Y0233605D01*
X0178786Y0233605D02*
X0193699Y0233605D01*
X0192525Y0234784D02*
X0180277Y0234784D01*
X0180895Y0235964D02*
X0191948Y0235964D01*
X0191817Y0238323D02*
X0181089Y0238323D01*
X0181135Y0237143D02*
X0195905Y0237143D01*
X0196724Y0237143D02*
X0202124Y0237143D01*
X0202124Y0236544D02*
X0202762Y0235004D01*
X0203941Y0233825D01*
X0205481Y0233187D01*
X0207149Y0233187D01*
X0208689Y0233825D01*
X0209868Y0235004D01*
X0210505Y0236544D01*
X0210505Y0238212D01*
X0209868Y0239752D01*
X0208689Y0240931D01*
X0207149Y0241568D01*
X0205481Y0241568D01*
X0203941Y0240931D01*
X0202762Y0239752D01*
X0202124Y0238212D01*
X0202124Y0236544D01*
X0202365Y0235964D02*
X0200682Y0235964D01*
X0200105Y0234784D02*
X0202982Y0234784D01*
X0204474Y0233605D02*
X0198931Y0233605D01*
X0196724Y0233605D02*
X0195905Y0233605D01*
X0195905Y0234784D02*
X0196724Y0234784D01*
X0196724Y0235964D02*
X0195905Y0235964D01*
X0195905Y0238323D02*
X0196724Y0238323D01*
X0196724Y0239503D02*
X0195905Y0239503D01*
X0195905Y0240682D02*
X0196724Y0240682D01*
X0199503Y0240682D02*
X0203693Y0240682D01*
X0202659Y0239503D02*
X0200384Y0239503D01*
X0200813Y0238323D02*
X0202171Y0238323D01*
X0208937Y0240682D02*
X0213693Y0240682D01*
X0213941Y0240931D02*
X0212762Y0239752D01*
X0212124Y0238212D01*
X0212124Y0236544D01*
X0212762Y0235004D01*
X0213941Y0233825D01*
X0215481Y0233187D01*
X0217149Y0233187D01*
X0218689Y0233825D01*
X0219868Y0235004D01*
X0220505Y0236544D01*
X0220505Y0238212D01*
X0219868Y0239752D01*
X0218689Y0240931D01*
X0217149Y0241568D01*
X0215481Y0241568D01*
X0213941Y0240931D01*
X0212659Y0239503D02*
X0209971Y0239503D01*
X0210459Y0238323D02*
X0212171Y0238323D01*
X0212124Y0237143D02*
X0210505Y0237143D01*
X0210265Y0235964D02*
X0212365Y0235964D01*
X0212982Y0234784D02*
X0209648Y0234784D01*
X0208156Y0233605D02*
X0214474Y0233605D01*
X0218156Y0233605D02*
X0233069Y0233605D01*
X0233279Y0233452D02*
X0233923Y0233124D01*
X0234610Y0232900D01*
X0235276Y0232795D01*
X0235276Y0236968D01*
X0231102Y0236968D01*
X0231208Y0236303D01*
X0231431Y0235616D01*
X0231759Y0234972D01*
X0232184Y0234387D01*
X0232694Y0233876D01*
X0233279Y0233452D01*
X0231895Y0234784D02*
X0219648Y0234784D01*
X0220265Y0235964D02*
X0231318Y0235964D01*
X0231187Y0238323D02*
X0220459Y0238323D01*
X0220505Y0237143D02*
X0235276Y0237143D01*
X0236095Y0237143D02*
X0241494Y0237143D01*
X0241494Y0236544D02*
X0242132Y0235004D01*
X0243311Y0233825D01*
X0244851Y0233187D01*
X0246519Y0233187D01*
X0248059Y0233825D01*
X0249238Y0235004D01*
X0249876Y0236544D01*
X0249876Y0238212D01*
X0249238Y0239752D01*
X0248059Y0240931D01*
X0246519Y0241568D01*
X0244851Y0241568D01*
X0243311Y0240931D01*
X0242132Y0239752D01*
X0241494Y0238212D01*
X0241494Y0236544D01*
X0241735Y0235964D02*
X0240052Y0235964D01*
X0239475Y0234784D02*
X0242352Y0234784D01*
X0243844Y0233605D02*
X0238301Y0233605D01*
X0236094Y0233605D02*
X0235276Y0233605D01*
X0235276Y0234784D02*
X0236094Y0234784D01*
X0236094Y0235964D02*
X0235276Y0235964D01*
X0235276Y0238323D02*
X0236094Y0238323D01*
X0236094Y0239503D02*
X0235276Y0239503D01*
X0235276Y0240682D02*
X0236094Y0240682D01*
X0238873Y0240682D02*
X0243063Y0240682D01*
X0242029Y0239503D02*
X0239755Y0239503D01*
X0240183Y0238323D02*
X0241541Y0238323D01*
X0248307Y0240682D02*
X0253063Y0240682D01*
X0253311Y0240931D02*
X0252132Y0239752D01*
X0251494Y0238212D01*
X0251494Y0236544D01*
X0252132Y0235004D01*
X0253311Y0233825D01*
X0254851Y0233187D01*
X0256519Y0233187D01*
X0258059Y0233825D01*
X0259238Y0235004D01*
X0259876Y0236544D01*
X0259876Y0238212D01*
X0259238Y0239752D01*
X0258059Y0240931D01*
X0256519Y0241568D01*
X0254851Y0241568D01*
X0253311Y0240931D01*
X0252029Y0239503D02*
X0249341Y0239503D01*
X0249829Y0238323D02*
X0251541Y0238323D01*
X0251494Y0237143D02*
X0249876Y0237143D01*
X0249635Y0235964D02*
X0251735Y0235964D01*
X0252352Y0234784D02*
X0249018Y0234784D01*
X0247526Y0233605D02*
X0253844Y0233605D01*
X0257526Y0233605D02*
X0340973Y0233605D01*
X0339793Y0234784D02*
X0259018Y0234784D01*
X0259635Y0235964D02*
X0338720Y0235964D01*
X0338232Y0237143D02*
X0259876Y0237143D01*
X0259829Y0238323D02*
X0337743Y0238323D01*
X0337488Y0239503D02*
X0259341Y0239503D01*
X0258307Y0240682D02*
X0337488Y0240682D01*
X0343481Y0232425D02*
X0034246Y0232425D01*
X0034246Y0232214D02*
X0034246Y0233881D01*
X0033608Y0235421D01*
X0032429Y0236600D01*
X0030889Y0237238D01*
X0029222Y0237238D01*
X0027681Y0236600D01*
X0026503Y0235421D01*
X0025865Y0233881D01*
X0025865Y0232214D01*
X0026503Y0230673D01*
X0027681Y0229495D01*
X0029222Y0228857D01*
X0030889Y0228857D01*
X0032429Y0229495D01*
X0033608Y0230673D01*
X0034246Y0232214D01*
X0033845Y0231245D02*
X0380890Y0231245D01*
X0380890Y0230066D02*
X0033000Y0230066D01*
X0034246Y0233605D02*
X0055746Y0233605D01*
X0054572Y0234784D02*
X0033871Y0234784D01*
X0033065Y0235964D02*
X0053995Y0235964D01*
X0053864Y0238323D02*
X0014024Y0238323D01*
X0021117Y0237143D02*
X0028994Y0237143D01*
X0027045Y0235964D02*
X0023065Y0235964D01*
X0023871Y0234784D02*
X0026239Y0234784D01*
X0025865Y0233605D02*
X0024246Y0233605D01*
X0024246Y0232425D02*
X0025865Y0232425D01*
X0026266Y0231245D02*
X0023845Y0231245D01*
X0023000Y0230066D02*
X0027110Y0230066D01*
X0027673Y0239503D02*
X0022437Y0239503D01*
X0023611Y0240682D02*
X0026499Y0240682D01*
X0026010Y0241862D02*
X0024100Y0241862D01*
X0024246Y0243041D02*
X0025865Y0243041D01*
X0026006Y0244221D02*
X0024105Y0244221D01*
X0023616Y0245401D02*
X0026494Y0245401D01*
X0027662Y0246580D02*
X0022448Y0246580D01*
X0014024Y0248940D02*
X0343650Y0248940D01*
X0348508Y0248940D02*
X0380890Y0248940D01*
X0380890Y0250119D02*
X0014024Y0250119D01*
X0014024Y0251299D02*
X0380890Y0251299D01*
X0380890Y0252478D02*
X0014024Y0252478D01*
X0014024Y0253658D02*
X0380890Y0253658D01*
X0380890Y0254838D02*
X0014024Y0254838D01*
X0014024Y0256017D02*
X0031947Y0256017D01*
X0030413Y0256653D02*
X0033681Y0255299D01*
X0037217Y0255299D01*
X0040484Y0256653D01*
X0042985Y0259153D01*
X0044339Y0262421D01*
X0044339Y0265957D01*
X0042985Y0269225D01*
X0040484Y0271725D01*
X0037217Y0273079D01*
X0033681Y0273079D01*
X0030413Y0271725D01*
X0027912Y0269225D01*
X0026559Y0265957D01*
X0026559Y0262421D01*
X0027912Y0259153D01*
X0030413Y0256653D01*
X0029869Y0257197D02*
X0014024Y0257197D01*
X0014024Y0258376D02*
X0028689Y0258376D01*
X0027746Y0259556D02*
X0014024Y0259556D01*
X0014024Y0260736D02*
X0027257Y0260736D01*
X0026768Y0261915D02*
X0014024Y0261915D01*
X0014024Y0263095D02*
X0026559Y0263095D01*
X0026559Y0264275D02*
X0014029Y0264275D01*
X0014119Y0265454D02*
X0026559Y0265454D01*
X0026839Y0266634D02*
X0014435Y0266634D01*
X0014781Y0267813D02*
X0027328Y0267813D01*
X0027816Y0268993D02*
X0015462Y0268993D01*
X0016300Y0270173D02*
X0028860Y0270173D01*
X0030040Y0271352D02*
X0017479Y0271352D01*
X0019411Y0272532D02*
X0032360Y0272532D01*
X0038537Y0272532D02*
X0368581Y0272532D01*
X0369901Y0273079D02*
X0366634Y0271725D01*
X0364133Y0269225D01*
X0362780Y0265957D01*
X0362780Y0262421D01*
X0364133Y0259153D01*
X0366634Y0256653D01*
X0369901Y0255299D01*
X0373438Y0255299D01*
X0376705Y0256653D01*
X0379206Y0259153D01*
X0380559Y0262421D01*
X0380559Y0265957D01*
X0379206Y0269225D01*
X0376705Y0271725D01*
X0373438Y0273079D01*
X0369901Y0273079D01*
X0366260Y0271352D02*
X0040858Y0271352D01*
X0042037Y0270173D02*
X0365081Y0270173D01*
X0364037Y0268993D02*
X0043081Y0268993D01*
X0043570Y0267813D02*
X0363548Y0267813D01*
X0363060Y0266634D02*
X0044058Y0266634D01*
X0044339Y0265454D02*
X0362780Y0265454D01*
X0362780Y0264275D02*
X0044339Y0264275D01*
X0044339Y0263095D02*
X0362780Y0263095D01*
X0362989Y0261915D02*
X0044129Y0261915D01*
X0043641Y0260736D02*
X0363477Y0260736D01*
X0363966Y0259556D02*
X0043152Y0259556D01*
X0042208Y0258376D02*
X0364910Y0258376D01*
X0366089Y0257197D02*
X0041029Y0257197D01*
X0038951Y0256017D02*
X0368168Y0256017D01*
X0375171Y0256017D02*
X0380890Y0256017D01*
X0380890Y0257197D02*
X0377249Y0257197D01*
X0378429Y0258376D02*
X0380890Y0258376D01*
X0380890Y0259556D02*
X0379372Y0259556D01*
X0379861Y0260736D02*
X0380890Y0260736D01*
X0380890Y0261915D02*
X0380350Y0261915D01*
X0380559Y0263095D02*
X0380890Y0263095D01*
X0380884Y0264275D02*
X0380559Y0264275D01*
X0380559Y0265454D02*
X0380794Y0265454D01*
X0380478Y0266634D02*
X0380279Y0266634D01*
X0380133Y0267813D02*
X0379790Y0267813D01*
X0379451Y0268993D02*
X0379302Y0268993D01*
X0378614Y0270173D02*
X0378258Y0270173D01*
X0377434Y0271352D02*
X0377078Y0271352D01*
X0375502Y0272532D02*
X0374758Y0272532D01*
X0380890Y0247760D02*
X0351115Y0247760D01*
X0352295Y0246580D02*
X0380890Y0246580D01*
X0380890Y0245401D02*
X0353408Y0245401D01*
X0353897Y0244221D02*
X0380890Y0244221D01*
X0380890Y0243041D02*
X0354385Y0243041D01*
X0354669Y0241862D02*
X0380890Y0241862D01*
X0380890Y0240682D02*
X0354669Y0240682D01*
X0354669Y0239503D02*
X0380890Y0239503D01*
X0380890Y0238323D02*
X0354414Y0238323D01*
X0353926Y0237143D02*
X0380890Y0237143D01*
X0380890Y0235964D02*
X0353437Y0235964D01*
X0352365Y0234784D02*
X0380890Y0234784D01*
X0380890Y0233605D02*
X0351185Y0233605D01*
X0348677Y0232425D02*
X0380890Y0232425D01*
X0348629Y0211192D02*
X0344324Y0211192D01*
X0343288Y0210012D02*
X0347734Y0210012D01*
X0347531Y0206473D02*
X0342538Y0206473D01*
X0343977Y0205294D02*
X0348138Y0205294D01*
X0349515Y0204114D02*
X0344609Y0204114D01*
X0344441Y0200575D02*
X0348912Y0200575D01*
X0347851Y0199396D02*
X0343572Y0199396D01*
X0336231Y0214731D02*
X0033894Y0214731D01*
X0033118Y0215910D02*
X0336720Y0215910D01*
X0259879Y0208833D02*
X0048066Y0208833D01*
X0046930Y0210012D02*
X0259446Y0210012D01*
X0243386Y0180522D02*
X0177995Y0180522D01*
X0178381Y0179342D02*
X0243304Y0179342D01*
X0243304Y0178163D02*
X0178380Y0178163D01*
X0177201Y0176983D02*
X0244090Y0176983D01*
X0270863Y0161648D02*
X0162617Y0161648D01*
X0163420Y0160469D02*
X0271235Y0160469D01*
X0278737Y0158109D02*
X0162658Y0158109D01*
X0163420Y0159289D02*
X0279150Y0159289D01*
X0282711Y0145134D02*
X0201966Y0145134D01*
X0202791Y0143954D02*
X0281887Y0143954D01*
X0281887Y0142774D02*
X0222042Y0142774D01*
X0223221Y0141595D02*
X0282628Y0141595D01*
X0281546Y0132158D02*
X0129509Y0132158D01*
X0129562Y0130978D02*
X0280706Y0130978D01*
X0280706Y0129799D02*
X0129229Y0129799D01*
X0129111Y0128619D02*
X0281431Y0128619D01*
X0337530Y0133337D02*
X0128437Y0133337D01*
X0125925Y0133337D02*
X0109904Y0133337D01*
X0110763Y0132158D02*
X0124853Y0132158D01*
X0124800Y0130978D02*
X0111175Y0130978D01*
X0111175Y0129799D02*
X0125133Y0129799D01*
X0125252Y0128619D02*
X0110811Y0128619D01*
X0110019Y0127439D02*
X0124800Y0127439D01*
X0155451Y0099129D02*
X0157572Y0099129D01*
X0157083Y0097949D02*
X0155940Y0097949D01*
X0155940Y0096769D02*
X0157083Y0096769D01*
X0158161Y0095590D02*
X0154863Y0095590D01*
X0160768Y0095590D02*
X0161704Y0095590D01*
X0160370Y0069638D02*
X0159740Y0069638D01*
X0159740Y0068459D02*
X0160370Y0068459D01*
X0160370Y0067279D02*
X0159740Y0067279D01*
X0178244Y0067279D02*
X0179425Y0067279D01*
X0179425Y0066099D02*
X0178244Y0066099D01*
X0178244Y0064920D02*
X0179425Y0064920D01*
X0179425Y0063740D02*
X0178244Y0063740D01*
X0178244Y0062561D02*
X0179425Y0062561D01*
X0179425Y0061381D02*
X0178244Y0061381D01*
X0178244Y0057842D02*
X0179425Y0057842D01*
X0179425Y0056663D02*
X0178244Y0056663D01*
X0178244Y0055483D02*
X0179425Y0055483D01*
X0179425Y0054303D02*
X0178244Y0054303D01*
X0178244Y0053124D02*
X0179425Y0053124D01*
X0186874Y0061381D02*
X0339864Y0061381D01*
X0341043Y0062561D02*
X0186621Y0062561D01*
X0186177Y0063740D02*
X0343652Y0063740D01*
X0348506Y0063740D02*
X0380890Y0063740D01*
X0380890Y0062561D02*
X0351114Y0062561D01*
X0352294Y0061381D02*
X0380890Y0061381D01*
X0380890Y0060201D02*
X0353408Y0060201D01*
X0353896Y0059022D02*
X0380890Y0059022D01*
X0380890Y0057842D02*
X0354385Y0057842D01*
X0354669Y0056663D02*
X0380890Y0056663D01*
X0380890Y0055483D02*
X0354669Y0055483D01*
X0354669Y0054303D02*
X0380890Y0054303D01*
X0380890Y0053124D02*
X0354415Y0053124D01*
X0353926Y0051944D02*
X0380890Y0051944D01*
X0380890Y0050764D02*
X0353437Y0050764D01*
X0352365Y0049585D02*
X0380890Y0049585D01*
X0380890Y0048405D02*
X0351186Y0048405D01*
X0348678Y0047226D02*
X0380890Y0047226D01*
X0380890Y0038968D02*
X0377179Y0038968D01*
X0378358Y0037789D02*
X0380890Y0037789D01*
X0380890Y0036609D02*
X0379343Y0036609D01*
X0379832Y0035429D02*
X0380890Y0035429D01*
X0380890Y0034250D02*
X0380320Y0034250D01*
X0380559Y0033070D02*
X0380890Y0033070D01*
X0380889Y0031891D02*
X0380559Y0031891D01*
X0380559Y0030711D02*
X0380811Y0030711D01*
X0380497Y0029531D02*
X0380308Y0029531D01*
X0380173Y0028352D02*
X0379819Y0028352D01*
X0379492Y0027172D02*
X0379331Y0027172D01*
X0378685Y0025993D02*
X0378328Y0025993D01*
X0377505Y0024813D02*
X0377149Y0024813D01*
X0375625Y0023633D02*
X0374929Y0023633D01*
X0368410Y0023633D02*
X0038708Y0023633D01*
X0040928Y0024813D02*
X0366190Y0024813D01*
X0365010Y0025993D02*
X0042108Y0025993D01*
X0043110Y0027172D02*
X0364008Y0027172D01*
X0380890Y0064920D02*
X0185486Y0064920D01*
X0184468Y0066099D02*
X0380890Y0066099D01*
X0380890Y0067279D02*
X0182900Y0067279D01*
X0211063Y0037789D02*
X0244308Y0037789D01*
X0243295Y0036609D02*
X0212243Y0036609D01*
X0212763Y0035429D02*
X0242761Y0035429D01*
X0242549Y0033283D02*
X0242646Y0032672D01*
X0242896Y0031903D01*
X0243263Y0031183D01*
X0243738Y0030530D01*
X0244309Y0029958D01*
X0244963Y0029483D01*
X0245683Y0029116D01*
X0246451Y0028867D01*
X0247063Y0028770D01*
X0247063Y0033283D01*
X0248244Y0033283D01*
X0248244Y0028770D01*
X0248856Y0028867D01*
X0249624Y0029116D01*
X0250344Y0029483D01*
X0250998Y0029958D01*
X0251569Y0030530D01*
X0252044Y0031183D01*
X0252411Y0031903D01*
X0252661Y0032672D01*
X0252758Y0033283D01*
X0248244Y0033283D01*
X0248244Y0034465D01*
X0247063Y0034465D01*
X0247063Y0033283D01*
X0242549Y0033283D01*
X0242583Y0033070D02*
X0213017Y0033070D01*
X0213017Y0034250D02*
X0247063Y0034250D01*
X0247063Y0035429D02*
X0248244Y0035429D01*
X0248244Y0034465D02*
X0248244Y0038978D01*
X0248856Y0038881D01*
X0249624Y0038632D01*
X0250344Y0038265D01*
X0250998Y0037790D01*
X0251569Y0037218D01*
X0252044Y0036565D01*
X0252411Y0035845D01*
X0252661Y0035076D01*
X0252758Y0034465D01*
X0248244Y0034465D01*
X0248244Y0034250D02*
X0282290Y0034250D01*
X0282290Y0033070D02*
X0252724Y0033070D01*
X0252405Y0031891D02*
X0282721Y0031891D01*
X0283492Y0030711D02*
X0251701Y0030711D01*
X0250411Y0029531D02*
X0285137Y0029531D01*
X0282544Y0035429D02*
X0252546Y0035429D01*
X0252012Y0036609D02*
X0283064Y0036609D01*
X0284244Y0037789D02*
X0250999Y0037789D01*
X0248244Y0037789D02*
X0247063Y0037789D01*
X0247063Y0036609D02*
X0248244Y0036609D01*
X0248244Y0033070D02*
X0247063Y0033070D01*
X0247063Y0031891D02*
X0248244Y0031891D01*
X0248244Y0030711D02*
X0247063Y0030711D01*
X0247063Y0029531D02*
X0248244Y0029531D01*
X0244896Y0029531D02*
X0210170Y0029531D01*
X0211815Y0030711D02*
X0243606Y0030711D01*
X0242902Y0031891D02*
X0212586Y0031891D01*
X0127543Y0053124D02*
X0034246Y0053124D01*
X0034071Y0054303D02*
X0125901Y0054303D01*
X0124860Y0055483D02*
X0033546Y0055483D01*
X0017538Y0069638D02*
X0014024Y0069638D01*
X0014024Y0070818D02*
X0016443Y0070818D01*
X0015954Y0071997D02*
X0014024Y0071997D01*
X0014024Y0073177D02*
X0015865Y0073177D01*
X0016062Y0074357D02*
X0014024Y0074357D01*
X0014024Y0075536D02*
X0016618Y0075536D01*
X0017962Y0076716D02*
X0014024Y0076716D01*
X0154784Y0158109D02*
X0155484Y0158109D01*
X0158721Y0158109D02*
X0159421Y0158109D01*
X0159462Y0161648D02*
X0158680Y0161648D01*
X0155525Y0161648D02*
X0154743Y0161648D01*
X0186604Y0139235D02*
X0203540Y0139235D01*
X0204278Y0138056D02*
X0187436Y0138056D01*
X0187436Y0136876D02*
X0205902Y0136876D01*
X0206637Y0135697D02*
X0186702Y0135697D01*
X0192245Y0239503D02*
X0180601Y0239503D01*
X0179567Y0240682D02*
X0193127Y0240682D01*
X0218937Y0240682D02*
X0232497Y0240682D01*
X0231616Y0239503D02*
X0219971Y0239503D01*
X0153757Y0240682D02*
X0140197Y0240682D01*
X0141231Y0239503D02*
X0152875Y0239503D01*
X0114387Y0240682D02*
X0100984Y0240682D01*
X0102018Y0239503D02*
X0113505Y0239503D01*
X0044440Y0210012D02*
X0036457Y0210012D01*
X0037436Y0208833D02*
X0043304Y0208833D01*
X0043304Y0207653D02*
X0037436Y0207653D01*
X0036849Y0206473D02*
X0043734Y0206473D01*
X0341964Y0152211D02*
X0347033Y0152211D01*
X0347530Y0151032D02*
X0343739Y0151032D01*
X0342357Y0141595D02*
X0347315Y0141595D01*
X0347803Y0140415D02*
X0344021Y0140415D01*
X0340963Y0136876D02*
X0380890Y0136876D01*
X0380890Y0135697D02*
X0353562Y0135697D01*
X0355103Y0134517D02*
X0380890Y0134517D01*
X0380890Y0133337D02*
X0355779Y0133337D01*
X0356094Y0132158D02*
X0380890Y0132158D01*
X0380890Y0130978D02*
X0356094Y0130978D01*
X0355672Y0129799D02*
X0380890Y0129799D01*
X0380890Y0128619D02*
X0354845Y0128619D01*
X0353880Y0125080D02*
X0380890Y0125080D01*
X0380890Y0123900D02*
X0355376Y0123900D01*
X0356103Y0122721D02*
X0380890Y0122721D01*
X0380890Y0121541D02*
X0356436Y0121541D01*
X0352163Y0122721D02*
X0351194Y0122721D01*
X0351194Y0123900D02*
X0352163Y0123900D01*
X0352163Y0125080D02*
X0351194Y0125080D01*
X0351194Y0119182D02*
X0352163Y0119182D01*
X0352163Y0118002D02*
X0351194Y0118002D01*
X0351194Y0116823D02*
X0352163Y0116823D01*
X0348956Y0116823D02*
X0344647Y0116823D01*
X0344894Y0115643D02*
X0380890Y0115643D01*
X0380890Y0114464D02*
X0344892Y0114464D01*
X0344403Y0113284D02*
X0348821Y0113284D01*
X0347814Y0112104D02*
X0343480Y0112104D01*
X0343003Y0108566D02*
X0347451Y0108566D01*
X0347946Y0107386D02*
X0344296Y0107386D01*
X0344971Y0106206D02*
X0349125Y0106206D01*
X0349104Y0102667D02*
X0344964Y0102667D01*
X0344281Y0101488D02*
X0347931Y0101488D01*
X0347442Y0100308D02*
X0342963Y0100308D01*
X0340963Y0100308D02*
X0339994Y0100308D01*
X0339994Y0101488D02*
X0340963Y0101488D01*
X0340963Y0102667D02*
X0339994Y0102667D01*
X0339994Y0103847D02*
X0340963Y0103847D01*
X0340963Y0105027D02*
X0339994Y0105027D01*
X0339994Y0106206D02*
X0340963Y0106206D01*
X0340963Y0107386D02*
X0339994Y0107386D01*
X0339994Y0108566D02*
X0340963Y0108566D01*
X0344068Y0118002D02*
X0347757Y0118002D01*
X0347140Y0119182D02*
X0342759Y0119182D01*
X0340963Y0133337D02*
X0339994Y0133337D01*
X0339994Y0134517D02*
X0340963Y0134517D01*
X0340963Y0135697D02*
X0339994Y0135697D01*
X0343501Y0096769D02*
X0347822Y0096769D01*
X0348842Y0095590D02*
X0344412Y0095590D01*
X0344894Y0094410D02*
X0380890Y0094410D01*
X0380890Y0093231D02*
X0344894Y0093231D01*
X0351194Y0090871D02*
X0352163Y0090871D01*
X0352163Y0089692D02*
X0351194Y0089692D01*
X0354430Y0092051D02*
X0380890Y0092051D01*
X0380890Y0090871D02*
X0355616Y0090871D01*
X0356224Y0089692D02*
X0380890Y0089692D01*
M02*
