G75*
%MOIN*%
%OFA0B0*%
%FSLAX25Y25*%
%IPPOS*%
%LPD*%
%AMOC8*
5,1,8,0,0,1.08239X$1,22.5*
%
%ADD10C,0.00000*%
D10*
X0023244Y0020094D02*
X0371669Y0020094D01*
X0365370Y0031906D02*
X0365372Y0032064D01*
X0365378Y0032222D01*
X0365388Y0032380D01*
X0365402Y0032538D01*
X0365420Y0032695D01*
X0365441Y0032852D01*
X0365467Y0033008D01*
X0365497Y0033164D01*
X0365530Y0033319D01*
X0365568Y0033472D01*
X0365609Y0033625D01*
X0365654Y0033777D01*
X0365703Y0033928D01*
X0365756Y0034077D01*
X0365812Y0034225D01*
X0365872Y0034371D01*
X0365936Y0034516D01*
X0366004Y0034659D01*
X0366075Y0034801D01*
X0366149Y0034941D01*
X0366227Y0035078D01*
X0366309Y0035214D01*
X0366393Y0035348D01*
X0366482Y0035479D01*
X0366573Y0035608D01*
X0366668Y0035735D01*
X0366765Y0035860D01*
X0366866Y0035982D01*
X0366970Y0036101D01*
X0367077Y0036218D01*
X0367187Y0036332D01*
X0367300Y0036443D01*
X0367415Y0036552D01*
X0367533Y0036657D01*
X0367654Y0036759D01*
X0367777Y0036859D01*
X0367903Y0036955D01*
X0368031Y0037048D01*
X0368161Y0037138D01*
X0368294Y0037224D01*
X0368429Y0037308D01*
X0368565Y0037387D01*
X0368704Y0037464D01*
X0368845Y0037536D01*
X0368987Y0037606D01*
X0369131Y0037671D01*
X0369277Y0037733D01*
X0369424Y0037791D01*
X0369573Y0037846D01*
X0369723Y0037897D01*
X0369874Y0037944D01*
X0370026Y0037987D01*
X0370179Y0038026D01*
X0370334Y0038062D01*
X0370489Y0038093D01*
X0370645Y0038121D01*
X0370801Y0038145D01*
X0370958Y0038165D01*
X0371116Y0038181D01*
X0371273Y0038193D01*
X0371432Y0038201D01*
X0371590Y0038205D01*
X0371748Y0038205D01*
X0371906Y0038201D01*
X0372065Y0038193D01*
X0372222Y0038181D01*
X0372380Y0038165D01*
X0372537Y0038145D01*
X0372693Y0038121D01*
X0372849Y0038093D01*
X0373004Y0038062D01*
X0373159Y0038026D01*
X0373312Y0037987D01*
X0373464Y0037944D01*
X0373615Y0037897D01*
X0373765Y0037846D01*
X0373914Y0037791D01*
X0374061Y0037733D01*
X0374207Y0037671D01*
X0374351Y0037606D01*
X0374493Y0037536D01*
X0374634Y0037464D01*
X0374773Y0037387D01*
X0374909Y0037308D01*
X0375044Y0037224D01*
X0375177Y0037138D01*
X0375307Y0037048D01*
X0375435Y0036955D01*
X0375561Y0036859D01*
X0375684Y0036759D01*
X0375805Y0036657D01*
X0375923Y0036552D01*
X0376038Y0036443D01*
X0376151Y0036332D01*
X0376261Y0036218D01*
X0376368Y0036101D01*
X0376472Y0035982D01*
X0376573Y0035860D01*
X0376670Y0035735D01*
X0376765Y0035608D01*
X0376856Y0035479D01*
X0376945Y0035348D01*
X0377029Y0035214D01*
X0377111Y0035078D01*
X0377189Y0034941D01*
X0377263Y0034801D01*
X0377334Y0034659D01*
X0377402Y0034516D01*
X0377466Y0034371D01*
X0377526Y0034225D01*
X0377582Y0034077D01*
X0377635Y0033928D01*
X0377684Y0033777D01*
X0377729Y0033625D01*
X0377770Y0033472D01*
X0377808Y0033319D01*
X0377841Y0033164D01*
X0377871Y0033008D01*
X0377897Y0032852D01*
X0377918Y0032695D01*
X0377936Y0032538D01*
X0377950Y0032380D01*
X0377960Y0032222D01*
X0377966Y0032064D01*
X0377968Y0031906D01*
X0377966Y0031748D01*
X0377960Y0031590D01*
X0377950Y0031432D01*
X0377936Y0031274D01*
X0377918Y0031117D01*
X0377897Y0030960D01*
X0377871Y0030804D01*
X0377841Y0030648D01*
X0377808Y0030493D01*
X0377770Y0030340D01*
X0377729Y0030187D01*
X0377684Y0030035D01*
X0377635Y0029884D01*
X0377582Y0029735D01*
X0377526Y0029587D01*
X0377466Y0029441D01*
X0377402Y0029296D01*
X0377334Y0029153D01*
X0377263Y0029011D01*
X0377189Y0028871D01*
X0377111Y0028734D01*
X0377029Y0028598D01*
X0376945Y0028464D01*
X0376856Y0028333D01*
X0376765Y0028204D01*
X0376670Y0028077D01*
X0376573Y0027952D01*
X0376472Y0027830D01*
X0376368Y0027711D01*
X0376261Y0027594D01*
X0376151Y0027480D01*
X0376038Y0027369D01*
X0375923Y0027260D01*
X0375805Y0027155D01*
X0375684Y0027053D01*
X0375561Y0026953D01*
X0375435Y0026857D01*
X0375307Y0026764D01*
X0375177Y0026674D01*
X0375044Y0026588D01*
X0374909Y0026504D01*
X0374773Y0026425D01*
X0374634Y0026348D01*
X0374493Y0026276D01*
X0374351Y0026206D01*
X0374207Y0026141D01*
X0374061Y0026079D01*
X0373914Y0026021D01*
X0373765Y0025966D01*
X0373615Y0025915D01*
X0373464Y0025868D01*
X0373312Y0025825D01*
X0373159Y0025786D01*
X0373004Y0025750D01*
X0372849Y0025719D01*
X0372693Y0025691D01*
X0372537Y0025667D01*
X0372380Y0025647D01*
X0372222Y0025631D01*
X0372065Y0025619D01*
X0371906Y0025611D01*
X0371748Y0025607D01*
X0371590Y0025607D01*
X0371432Y0025611D01*
X0371273Y0025619D01*
X0371116Y0025631D01*
X0370958Y0025647D01*
X0370801Y0025667D01*
X0370645Y0025691D01*
X0370489Y0025719D01*
X0370334Y0025750D01*
X0370179Y0025786D01*
X0370026Y0025825D01*
X0369874Y0025868D01*
X0369723Y0025915D01*
X0369573Y0025966D01*
X0369424Y0026021D01*
X0369277Y0026079D01*
X0369131Y0026141D01*
X0368987Y0026206D01*
X0368845Y0026276D01*
X0368704Y0026348D01*
X0368565Y0026425D01*
X0368429Y0026504D01*
X0368294Y0026588D01*
X0368161Y0026674D01*
X0368031Y0026764D01*
X0367903Y0026857D01*
X0367777Y0026953D01*
X0367654Y0027053D01*
X0367533Y0027155D01*
X0367415Y0027260D01*
X0367300Y0027369D01*
X0367187Y0027480D01*
X0367077Y0027594D01*
X0366970Y0027711D01*
X0366866Y0027830D01*
X0366765Y0027952D01*
X0366668Y0028077D01*
X0366573Y0028204D01*
X0366482Y0028333D01*
X0366393Y0028464D01*
X0366309Y0028598D01*
X0366227Y0028734D01*
X0366149Y0028871D01*
X0366075Y0029011D01*
X0366004Y0029153D01*
X0365936Y0029296D01*
X0365872Y0029441D01*
X0365812Y0029587D01*
X0365756Y0029735D01*
X0365703Y0029884D01*
X0365654Y0030035D01*
X0365609Y0030187D01*
X0365568Y0030340D01*
X0365530Y0030493D01*
X0365497Y0030648D01*
X0365467Y0030804D01*
X0365441Y0030960D01*
X0365420Y0031117D01*
X0365402Y0031274D01*
X0365388Y0031432D01*
X0365378Y0031590D01*
X0365372Y0031748D01*
X0365370Y0031906D01*
X0371669Y0020095D02*
X0371954Y0020098D01*
X0372240Y0020109D01*
X0372525Y0020126D01*
X0372809Y0020150D01*
X0373093Y0020181D01*
X0373376Y0020219D01*
X0373657Y0020264D01*
X0373938Y0020315D01*
X0374218Y0020373D01*
X0374496Y0020438D01*
X0374772Y0020510D01*
X0375046Y0020588D01*
X0375319Y0020673D01*
X0375589Y0020765D01*
X0375857Y0020863D01*
X0376123Y0020967D01*
X0376386Y0021078D01*
X0376646Y0021195D01*
X0376904Y0021318D01*
X0377158Y0021448D01*
X0377409Y0021584D01*
X0377657Y0021725D01*
X0377901Y0021873D01*
X0378142Y0022026D01*
X0378378Y0022186D01*
X0378611Y0022351D01*
X0378840Y0022521D01*
X0379065Y0022697D01*
X0379285Y0022879D01*
X0379501Y0023065D01*
X0379712Y0023257D01*
X0379919Y0023454D01*
X0380121Y0023656D01*
X0380318Y0023863D01*
X0380510Y0024074D01*
X0380696Y0024290D01*
X0380878Y0024510D01*
X0381054Y0024735D01*
X0381224Y0024964D01*
X0381389Y0025197D01*
X0381549Y0025433D01*
X0381702Y0025674D01*
X0381850Y0025918D01*
X0381991Y0026166D01*
X0382127Y0026417D01*
X0382257Y0026671D01*
X0382380Y0026929D01*
X0382497Y0027189D01*
X0382608Y0027452D01*
X0382712Y0027718D01*
X0382810Y0027986D01*
X0382902Y0028256D01*
X0382987Y0028529D01*
X0383065Y0028803D01*
X0383137Y0029079D01*
X0383202Y0029357D01*
X0383260Y0029637D01*
X0383311Y0029918D01*
X0383356Y0030199D01*
X0383394Y0030482D01*
X0383425Y0030766D01*
X0383449Y0031050D01*
X0383466Y0031335D01*
X0383477Y0031621D01*
X0383480Y0031906D01*
X0383480Y0264189D01*
X0365370Y0264189D02*
X0365372Y0264347D01*
X0365378Y0264505D01*
X0365388Y0264663D01*
X0365402Y0264821D01*
X0365420Y0264978D01*
X0365441Y0265135D01*
X0365467Y0265291D01*
X0365497Y0265447D01*
X0365530Y0265602D01*
X0365568Y0265755D01*
X0365609Y0265908D01*
X0365654Y0266060D01*
X0365703Y0266211D01*
X0365756Y0266360D01*
X0365812Y0266508D01*
X0365872Y0266654D01*
X0365936Y0266799D01*
X0366004Y0266942D01*
X0366075Y0267084D01*
X0366149Y0267224D01*
X0366227Y0267361D01*
X0366309Y0267497D01*
X0366393Y0267631D01*
X0366482Y0267762D01*
X0366573Y0267891D01*
X0366668Y0268018D01*
X0366765Y0268143D01*
X0366866Y0268265D01*
X0366970Y0268384D01*
X0367077Y0268501D01*
X0367187Y0268615D01*
X0367300Y0268726D01*
X0367415Y0268835D01*
X0367533Y0268940D01*
X0367654Y0269042D01*
X0367777Y0269142D01*
X0367903Y0269238D01*
X0368031Y0269331D01*
X0368161Y0269421D01*
X0368294Y0269507D01*
X0368429Y0269591D01*
X0368565Y0269670D01*
X0368704Y0269747D01*
X0368845Y0269819D01*
X0368987Y0269889D01*
X0369131Y0269954D01*
X0369277Y0270016D01*
X0369424Y0270074D01*
X0369573Y0270129D01*
X0369723Y0270180D01*
X0369874Y0270227D01*
X0370026Y0270270D01*
X0370179Y0270309D01*
X0370334Y0270345D01*
X0370489Y0270376D01*
X0370645Y0270404D01*
X0370801Y0270428D01*
X0370958Y0270448D01*
X0371116Y0270464D01*
X0371273Y0270476D01*
X0371432Y0270484D01*
X0371590Y0270488D01*
X0371748Y0270488D01*
X0371906Y0270484D01*
X0372065Y0270476D01*
X0372222Y0270464D01*
X0372380Y0270448D01*
X0372537Y0270428D01*
X0372693Y0270404D01*
X0372849Y0270376D01*
X0373004Y0270345D01*
X0373159Y0270309D01*
X0373312Y0270270D01*
X0373464Y0270227D01*
X0373615Y0270180D01*
X0373765Y0270129D01*
X0373914Y0270074D01*
X0374061Y0270016D01*
X0374207Y0269954D01*
X0374351Y0269889D01*
X0374493Y0269819D01*
X0374634Y0269747D01*
X0374773Y0269670D01*
X0374909Y0269591D01*
X0375044Y0269507D01*
X0375177Y0269421D01*
X0375307Y0269331D01*
X0375435Y0269238D01*
X0375561Y0269142D01*
X0375684Y0269042D01*
X0375805Y0268940D01*
X0375923Y0268835D01*
X0376038Y0268726D01*
X0376151Y0268615D01*
X0376261Y0268501D01*
X0376368Y0268384D01*
X0376472Y0268265D01*
X0376573Y0268143D01*
X0376670Y0268018D01*
X0376765Y0267891D01*
X0376856Y0267762D01*
X0376945Y0267631D01*
X0377029Y0267497D01*
X0377111Y0267361D01*
X0377189Y0267224D01*
X0377263Y0267084D01*
X0377334Y0266942D01*
X0377402Y0266799D01*
X0377466Y0266654D01*
X0377526Y0266508D01*
X0377582Y0266360D01*
X0377635Y0266211D01*
X0377684Y0266060D01*
X0377729Y0265908D01*
X0377770Y0265755D01*
X0377808Y0265602D01*
X0377841Y0265447D01*
X0377871Y0265291D01*
X0377897Y0265135D01*
X0377918Y0264978D01*
X0377936Y0264821D01*
X0377950Y0264663D01*
X0377960Y0264505D01*
X0377966Y0264347D01*
X0377968Y0264189D01*
X0377966Y0264031D01*
X0377960Y0263873D01*
X0377950Y0263715D01*
X0377936Y0263557D01*
X0377918Y0263400D01*
X0377897Y0263243D01*
X0377871Y0263087D01*
X0377841Y0262931D01*
X0377808Y0262776D01*
X0377770Y0262623D01*
X0377729Y0262470D01*
X0377684Y0262318D01*
X0377635Y0262167D01*
X0377582Y0262018D01*
X0377526Y0261870D01*
X0377466Y0261724D01*
X0377402Y0261579D01*
X0377334Y0261436D01*
X0377263Y0261294D01*
X0377189Y0261154D01*
X0377111Y0261017D01*
X0377029Y0260881D01*
X0376945Y0260747D01*
X0376856Y0260616D01*
X0376765Y0260487D01*
X0376670Y0260360D01*
X0376573Y0260235D01*
X0376472Y0260113D01*
X0376368Y0259994D01*
X0376261Y0259877D01*
X0376151Y0259763D01*
X0376038Y0259652D01*
X0375923Y0259543D01*
X0375805Y0259438D01*
X0375684Y0259336D01*
X0375561Y0259236D01*
X0375435Y0259140D01*
X0375307Y0259047D01*
X0375177Y0258957D01*
X0375044Y0258871D01*
X0374909Y0258787D01*
X0374773Y0258708D01*
X0374634Y0258631D01*
X0374493Y0258559D01*
X0374351Y0258489D01*
X0374207Y0258424D01*
X0374061Y0258362D01*
X0373914Y0258304D01*
X0373765Y0258249D01*
X0373615Y0258198D01*
X0373464Y0258151D01*
X0373312Y0258108D01*
X0373159Y0258069D01*
X0373004Y0258033D01*
X0372849Y0258002D01*
X0372693Y0257974D01*
X0372537Y0257950D01*
X0372380Y0257930D01*
X0372222Y0257914D01*
X0372065Y0257902D01*
X0371906Y0257894D01*
X0371748Y0257890D01*
X0371590Y0257890D01*
X0371432Y0257894D01*
X0371273Y0257902D01*
X0371116Y0257914D01*
X0370958Y0257930D01*
X0370801Y0257950D01*
X0370645Y0257974D01*
X0370489Y0258002D01*
X0370334Y0258033D01*
X0370179Y0258069D01*
X0370026Y0258108D01*
X0369874Y0258151D01*
X0369723Y0258198D01*
X0369573Y0258249D01*
X0369424Y0258304D01*
X0369277Y0258362D01*
X0369131Y0258424D01*
X0368987Y0258489D01*
X0368845Y0258559D01*
X0368704Y0258631D01*
X0368565Y0258708D01*
X0368429Y0258787D01*
X0368294Y0258871D01*
X0368161Y0258957D01*
X0368031Y0259047D01*
X0367903Y0259140D01*
X0367777Y0259236D01*
X0367654Y0259336D01*
X0367533Y0259438D01*
X0367415Y0259543D01*
X0367300Y0259652D01*
X0367187Y0259763D01*
X0367077Y0259877D01*
X0366970Y0259994D01*
X0366866Y0260113D01*
X0366765Y0260235D01*
X0366668Y0260360D01*
X0366573Y0260487D01*
X0366482Y0260616D01*
X0366393Y0260747D01*
X0366309Y0260881D01*
X0366227Y0261017D01*
X0366149Y0261154D01*
X0366075Y0261294D01*
X0366004Y0261436D01*
X0365936Y0261579D01*
X0365872Y0261724D01*
X0365812Y0261870D01*
X0365756Y0262018D01*
X0365703Y0262167D01*
X0365654Y0262318D01*
X0365609Y0262470D01*
X0365568Y0262623D01*
X0365530Y0262776D01*
X0365497Y0262931D01*
X0365467Y0263087D01*
X0365441Y0263243D01*
X0365420Y0263400D01*
X0365402Y0263557D01*
X0365388Y0263715D01*
X0365378Y0263873D01*
X0365372Y0264031D01*
X0365370Y0264189D01*
X0371669Y0276000D02*
X0371954Y0275997D01*
X0372240Y0275986D01*
X0372525Y0275969D01*
X0372809Y0275945D01*
X0373093Y0275914D01*
X0373376Y0275876D01*
X0373657Y0275831D01*
X0373938Y0275780D01*
X0374218Y0275722D01*
X0374496Y0275657D01*
X0374772Y0275585D01*
X0375046Y0275507D01*
X0375319Y0275422D01*
X0375589Y0275330D01*
X0375857Y0275232D01*
X0376123Y0275128D01*
X0376386Y0275017D01*
X0376646Y0274900D01*
X0376904Y0274777D01*
X0377158Y0274647D01*
X0377409Y0274511D01*
X0377657Y0274370D01*
X0377901Y0274222D01*
X0378142Y0274069D01*
X0378378Y0273909D01*
X0378611Y0273744D01*
X0378840Y0273574D01*
X0379065Y0273398D01*
X0379285Y0273216D01*
X0379501Y0273030D01*
X0379712Y0272838D01*
X0379919Y0272641D01*
X0380121Y0272439D01*
X0380318Y0272232D01*
X0380510Y0272021D01*
X0380696Y0271805D01*
X0380878Y0271585D01*
X0381054Y0271360D01*
X0381224Y0271131D01*
X0381389Y0270898D01*
X0381549Y0270662D01*
X0381702Y0270421D01*
X0381850Y0270177D01*
X0381991Y0269929D01*
X0382127Y0269678D01*
X0382257Y0269424D01*
X0382380Y0269166D01*
X0382497Y0268906D01*
X0382608Y0268643D01*
X0382712Y0268377D01*
X0382810Y0268109D01*
X0382902Y0267839D01*
X0382987Y0267566D01*
X0383065Y0267292D01*
X0383137Y0267016D01*
X0383202Y0266738D01*
X0383260Y0266458D01*
X0383311Y0266177D01*
X0383356Y0265896D01*
X0383394Y0265613D01*
X0383425Y0265329D01*
X0383449Y0265045D01*
X0383466Y0264760D01*
X0383477Y0264474D01*
X0383480Y0264189D01*
X0371669Y0276000D02*
X0023244Y0276000D01*
X0022959Y0275997D01*
X0022673Y0275986D01*
X0022388Y0275969D01*
X0022104Y0275945D01*
X0021820Y0275914D01*
X0021537Y0275876D01*
X0021256Y0275831D01*
X0020975Y0275780D01*
X0020695Y0275722D01*
X0020417Y0275657D01*
X0020141Y0275585D01*
X0019867Y0275507D01*
X0019594Y0275422D01*
X0019324Y0275330D01*
X0019056Y0275232D01*
X0018790Y0275128D01*
X0018527Y0275017D01*
X0018267Y0274900D01*
X0018009Y0274777D01*
X0017755Y0274647D01*
X0017504Y0274511D01*
X0017256Y0274370D01*
X0017012Y0274222D01*
X0016771Y0274069D01*
X0016535Y0273909D01*
X0016302Y0273744D01*
X0016073Y0273574D01*
X0015848Y0273398D01*
X0015628Y0273216D01*
X0015412Y0273030D01*
X0015201Y0272838D01*
X0014994Y0272641D01*
X0014792Y0272439D01*
X0014595Y0272232D01*
X0014403Y0272021D01*
X0014217Y0271805D01*
X0014035Y0271585D01*
X0013859Y0271360D01*
X0013689Y0271131D01*
X0013524Y0270898D01*
X0013364Y0270662D01*
X0013211Y0270421D01*
X0013063Y0270177D01*
X0012922Y0269929D01*
X0012786Y0269678D01*
X0012656Y0269424D01*
X0012533Y0269166D01*
X0012416Y0268906D01*
X0012305Y0268643D01*
X0012201Y0268377D01*
X0012103Y0268109D01*
X0012011Y0267839D01*
X0011926Y0267566D01*
X0011848Y0267292D01*
X0011776Y0267016D01*
X0011711Y0266738D01*
X0011653Y0266458D01*
X0011602Y0266177D01*
X0011557Y0265896D01*
X0011519Y0265613D01*
X0011488Y0265329D01*
X0011464Y0265045D01*
X0011447Y0264760D01*
X0011436Y0264474D01*
X0011433Y0264189D01*
X0011433Y0031906D01*
X0011436Y0031621D01*
X0011447Y0031335D01*
X0011464Y0031050D01*
X0011488Y0030766D01*
X0011519Y0030482D01*
X0011557Y0030199D01*
X0011602Y0029918D01*
X0011653Y0029637D01*
X0011711Y0029357D01*
X0011776Y0029079D01*
X0011848Y0028803D01*
X0011926Y0028529D01*
X0012011Y0028256D01*
X0012103Y0027986D01*
X0012201Y0027718D01*
X0012305Y0027452D01*
X0012416Y0027189D01*
X0012533Y0026929D01*
X0012656Y0026671D01*
X0012786Y0026417D01*
X0012922Y0026166D01*
X0013063Y0025918D01*
X0013211Y0025674D01*
X0013364Y0025433D01*
X0013524Y0025197D01*
X0013689Y0024964D01*
X0013859Y0024735D01*
X0014035Y0024510D01*
X0014217Y0024290D01*
X0014403Y0024074D01*
X0014595Y0023863D01*
X0014792Y0023656D01*
X0014994Y0023454D01*
X0015201Y0023257D01*
X0015412Y0023065D01*
X0015628Y0022879D01*
X0015848Y0022697D01*
X0016073Y0022521D01*
X0016302Y0022351D01*
X0016535Y0022186D01*
X0016771Y0022026D01*
X0017012Y0021873D01*
X0017256Y0021725D01*
X0017504Y0021584D01*
X0017755Y0021448D01*
X0018009Y0021318D01*
X0018267Y0021195D01*
X0018527Y0021078D01*
X0018790Y0020967D01*
X0019056Y0020863D01*
X0019324Y0020765D01*
X0019594Y0020673D01*
X0019867Y0020588D01*
X0020141Y0020510D01*
X0020417Y0020438D01*
X0020695Y0020373D01*
X0020975Y0020315D01*
X0021256Y0020264D01*
X0021537Y0020219D01*
X0021820Y0020181D01*
X0022104Y0020150D01*
X0022388Y0020126D01*
X0022673Y0020109D01*
X0022959Y0020098D01*
X0023244Y0020095D01*
X0029150Y0031906D02*
X0029152Y0032064D01*
X0029158Y0032222D01*
X0029168Y0032380D01*
X0029182Y0032538D01*
X0029200Y0032695D01*
X0029221Y0032852D01*
X0029247Y0033008D01*
X0029277Y0033164D01*
X0029310Y0033319D01*
X0029348Y0033472D01*
X0029389Y0033625D01*
X0029434Y0033777D01*
X0029483Y0033928D01*
X0029536Y0034077D01*
X0029592Y0034225D01*
X0029652Y0034371D01*
X0029716Y0034516D01*
X0029784Y0034659D01*
X0029855Y0034801D01*
X0029929Y0034941D01*
X0030007Y0035078D01*
X0030089Y0035214D01*
X0030173Y0035348D01*
X0030262Y0035479D01*
X0030353Y0035608D01*
X0030448Y0035735D01*
X0030545Y0035860D01*
X0030646Y0035982D01*
X0030750Y0036101D01*
X0030857Y0036218D01*
X0030967Y0036332D01*
X0031080Y0036443D01*
X0031195Y0036552D01*
X0031313Y0036657D01*
X0031434Y0036759D01*
X0031557Y0036859D01*
X0031683Y0036955D01*
X0031811Y0037048D01*
X0031941Y0037138D01*
X0032074Y0037224D01*
X0032209Y0037308D01*
X0032345Y0037387D01*
X0032484Y0037464D01*
X0032625Y0037536D01*
X0032767Y0037606D01*
X0032911Y0037671D01*
X0033057Y0037733D01*
X0033204Y0037791D01*
X0033353Y0037846D01*
X0033503Y0037897D01*
X0033654Y0037944D01*
X0033806Y0037987D01*
X0033959Y0038026D01*
X0034114Y0038062D01*
X0034269Y0038093D01*
X0034425Y0038121D01*
X0034581Y0038145D01*
X0034738Y0038165D01*
X0034896Y0038181D01*
X0035053Y0038193D01*
X0035212Y0038201D01*
X0035370Y0038205D01*
X0035528Y0038205D01*
X0035686Y0038201D01*
X0035845Y0038193D01*
X0036002Y0038181D01*
X0036160Y0038165D01*
X0036317Y0038145D01*
X0036473Y0038121D01*
X0036629Y0038093D01*
X0036784Y0038062D01*
X0036939Y0038026D01*
X0037092Y0037987D01*
X0037244Y0037944D01*
X0037395Y0037897D01*
X0037545Y0037846D01*
X0037694Y0037791D01*
X0037841Y0037733D01*
X0037987Y0037671D01*
X0038131Y0037606D01*
X0038273Y0037536D01*
X0038414Y0037464D01*
X0038553Y0037387D01*
X0038689Y0037308D01*
X0038824Y0037224D01*
X0038957Y0037138D01*
X0039087Y0037048D01*
X0039215Y0036955D01*
X0039341Y0036859D01*
X0039464Y0036759D01*
X0039585Y0036657D01*
X0039703Y0036552D01*
X0039818Y0036443D01*
X0039931Y0036332D01*
X0040041Y0036218D01*
X0040148Y0036101D01*
X0040252Y0035982D01*
X0040353Y0035860D01*
X0040450Y0035735D01*
X0040545Y0035608D01*
X0040636Y0035479D01*
X0040725Y0035348D01*
X0040809Y0035214D01*
X0040891Y0035078D01*
X0040969Y0034941D01*
X0041043Y0034801D01*
X0041114Y0034659D01*
X0041182Y0034516D01*
X0041246Y0034371D01*
X0041306Y0034225D01*
X0041362Y0034077D01*
X0041415Y0033928D01*
X0041464Y0033777D01*
X0041509Y0033625D01*
X0041550Y0033472D01*
X0041588Y0033319D01*
X0041621Y0033164D01*
X0041651Y0033008D01*
X0041677Y0032852D01*
X0041698Y0032695D01*
X0041716Y0032538D01*
X0041730Y0032380D01*
X0041740Y0032222D01*
X0041746Y0032064D01*
X0041748Y0031906D01*
X0041746Y0031748D01*
X0041740Y0031590D01*
X0041730Y0031432D01*
X0041716Y0031274D01*
X0041698Y0031117D01*
X0041677Y0030960D01*
X0041651Y0030804D01*
X0041621Y0030648D01*
X0041588Y0030493D01*
X0041550Y0030340D01*
X0041509Y0030187D01*
X0041464Y0030035D01*
X0041415Y0029884D01*
X0041362Y0029735D01*
X0041306Y0029587D01*
X0041246Y0029441D01*
X0041182Y0029296D01*
X0041114Y0029153D01*
X0041043Y0029011D01*
X0040969Y0028871D01*
X0040891Y0028734D01*
X0040809Y0028598D01*
X0040725Y0028464D01*
X0040636Y0028333D01*
X0040545Y0028204D01*
X0040450Y0028077D01*
X0040353Y0027952D01*
X0040252Y0027830D01*
X0040148Y0027711D01*
X0040041Y0027594D01*
X0039931Y0027480D01*
X0039818Y0027369D01*
X0039703Y0027260D01*
X0039585Y0027155D01*
X0039464Y0027053D01*
X0039341Y0026953D01*
X0039215Y0026857D01*
X0039087Y0026764D01*
X0038957Y0026674D01*
X0038824Y0026588D01*
X0038689Y0026504D01*
X0038553Y0026425D01*
X0038414Y0026348D01*
X0038273Y0026276D01*
X0038131Y0026206D01*
X0037987Y0026141D01*
X0037841Y0026079D01*
X0037694Y0026021D01*
X0037545Y0025966D01*
X0037395Y0025915D01*
X0037244Y0025868D01*
X0037092Y0025825D01*
X0036939Y0025786D01*
X0036784Y0025750D01*
X0036629Y0025719D01*
X0036473Y0025691D01*
X0036317Y0025667D01*
X0036160Y0025647D01*
X0036002Y0025631D01*
X0035845Y0025619D01*
X0035686Y0025611D01*
X0035528Y0025607D01*
X0035370Y0025607D01*
X0035212Y0025611D01*
X0035053Y0025619D01*
X0034896Y0025631D01*
X0034738Y0025647D01*
X0034581Y0025667D01*
X0034425Y0025691D01*
X0034269Y0025719D01*
X0034114Y0025750D01*
X0033959Y0025786D01*
X0033806Y0025825D01*
X0033654Y0025868D01*
X0033503Y0025915D01*
X0033353Y0025966D01*
X0033204Y0026021D01*
X0033057Y0026079D01*
X0032911Y0026141D01*
X0032767Y0026206D01*
X0032625Y0026276D01*
X0032484Y0026348D01*
X0032345Y0026425D01*
X0032209Y0026504D01*
X0032074Y0026588D01*
X0031941Y0026674D01*
X0031811Y0026764D01*
X0031683Y0026857D01*
X0031557Y0026953D01*
X0031434Y0027053D01*
X0031313Y0027155D01*
X0031195Y0027260D01*
X0031080Y0027369D01*
X0030967Y0027480D01*
X0030857Y0027594D01*
X0030750Y0027711D01*
X0030646Y0027830D01*
X0030545Y0027952D01*
X0030448Y0028077D01*
X0030353Y0028204D01*
X0030262Y0028333D01*
X0030173Y0028464D01*
X0030089Y0028598D01*
X0030007Y0028734D01*
X0029929Y0028871D01*
X0029855Y0029011D01*
X0029784Y0029153D01*
X0029716Y0029296D01*
X0029652Y0029441D01*
X0029592Y0029587D01*
X0029536Y0029735D01*
X0029483Y0029884D01*
X0029434Y0030035D01*
X0029389Y0030187D01*
X0029348Y0030340D01*
X0029310Y0030493D01*
X0029277Y0030648D01*
X0029247Y0030804D01*
X0029221Y0030960D01*
X0029200Y0031117D01*
X0029182Y0031274D01*
X0029168Y0031432D01*
X0029158Y0031590D01*
X0029152Y0031748D01*
X0029150Y0031906D01*
X0340079Y0055447D02*
X0340081Y0055601D01*
X0340087Y0055756D01*
X0340097Y0055910D01*
X0340111Y0056064D01*
X0340129Y0056217D01*
X0340150Y0056370D01*
X0340176Y0056523D01*
X0340206Y0056674D01*
X0340239Y0056825D01*
X0340277Y0056975D01*
X0340318Y0057124D01*
X0340363Y0057272D01*
X0340412Y0057418D01*
X0340465Y0057564D01*
X0340521Y0057707D01*
X0340581Y0057850D01*
X0340645Y0057990D01*
X0340712Y0058130D01*
X0340783Y0058267D01*
X0340857Y0058402D01*
X0340935Y0058536D01*
X0341016Y0058667D01*
X0341101Y0058796D01*
X0341189Y0058924D01*
X0341280Y0059048D01*
X0341374Y0059171D01*
X0341472Y0059291D01*
X0341572Y0059408D01*
X0341676Y0059523D01*
X0341782Y0059635D01*
X0341891Y0059744D01*
X0342003Y0059850D01*
X0342118Y0059954D01*
X0342235Y0060054D01*
X0342355Y0060152D01*
X0342478Y0060246D01*
X0342602Y0060337D01*
X0342730Y0060425D01*
X0342859Y0060510D01*
X0342990Y0060591D01*
X0343124Y0060669D01*
X0343259Y0060743D01*
X0343396Y0060814D01*
X0343536Y0060881D01*
X0343676Y0060945D01*
X0343819Y0061005D01*
X0343962Y0061061D01*
X0344108Y0061114D01*
X0344254Y0061163D01*
X0344402Y0061208D01*
X0344551Y0061249D01*
X0344701Y0061287D01*
X0344852Y0061320D01*
X0345003Y0061350D01*
X0345156Y0061376D01*
X0345309Y0061397D01*
X0345462Y0061415D01*
X0345616Y0061429D01*
X0345770Y0061439D01*
X0345925Y0061445D01*
X0346079Y0061447D01*
X0346233Y0061445D01*
X0346388Y0061439D01*
X0346542Y0061429D01*
X0346696Y0061415D01*
X0346849Y0061397D01*
X0347002Y0061376D01*
X0347155Y0061350D01*
X0347306Y0061320D01*
X0347457Y0061287D01*
X0347607Y0061249D01*
X0347756Y0061208D01*
X0347904Y0061163D01*
X0348050Y0061114D01*
X0348196Y0061061D01*
X0348339Y0061005D01*
X0348482Y0060945D01*
X0348622Y0060881D01*
X0348762Y0060814D01*
X0348899Y0060743D01*
X0349034Y0060669D01*
X0349168Y0060591D01*
X0349299Y0060510D01*
X0349428Y0060425D01*
X0349556Y0060337D01*
X0349680Y0060246D01*
X0349803Y0060152D01*
X0349923Y0060054D01*
X0350040Y0059954D01*
X0350155Y0059850D01*
X0350267Y0059744D01*
X0350376Y0059635D01*
X0350482Y0059523D01*
X0350586Y0059408D01*
X0350686Y0059291D01*
X0350784Y0059171D01*
X0350878Y0059048D01*
X0350969Y0058924D01*
X0351057Y0058796D01*
X0351142Y0058667D01*
X0351223Y0058536D01*
X0351301Y0058402D01*
X0351375Y0058267D01*
X0351446Y0058130D01*
X0351513Y0057990D01*
X0351577Y0057850D01*
X0351637Y0057707D01*
X0351693Y0057564D01*
X0351746Y0057418D01*
X0351795Y0057272D01*
X0351840Y0057124D01*
X0351881Y0056975D01*
X0351919Y0056825D01*
X0351952Y0056674D01*
X0351982Y0056523D01*
X0352008Y0056370D01*
X0352029Y0056217D01*
X0352047Y0056064D01*
X0352061Y0055910D01*
X0352071Y0055756D01*
X0352077Y0055601D01*
X0352079Y0055447D01*
X0352077Y0055293D01*
X0352071Y0055138D01*
X0352061Y0054984D01*
X0352047Y0054830D01*
X0352029Y0054677D01*
X0352008Y0054524D01*
X0351982Y0054371D01*
X0351952Y0054220D01*
X0351919Y0054069D01*
X0351881Y0053919D01*
X0351840Y0053770D01*
X0351795Y0053622D01*
X0351746Y0053476D01*
X0351693Y0053330D01*
X0351637Y0053187D01*
X0351577Y0053044D01*
X0351513Y0052904D01*
X0351446Y0052764D01*
X0351375Y0052627D01*
X0351301Y0052492D01*
X0351223Y0052358D01*
X0351142Y0052227D01*
X0351057Y0052098D01*
X0350969Y0051970D01*
X0350878Y0051846D01*
X0350784Y0051723D01*
X0350686Y0051603D01*
X0350586Y0051486D01*
X0350482Y0051371D01*
X0350376Y0051259D01*
X0350267Y0051150D01*
X0350155Y0051044D01*
X0350040Y0050940D01*
X0349923Y0050840D01*
X0349803Y0050742D01*
X0349680Y0050648D01*
X0349556Y0050557D01*
X0349428Y0050469D01*
X0349299Y0050384D01*
X0349168Y0050303D01*
X0349034Y0050225D01*
X0348899Y0050151D01*
X0348762Y0050080D01*
X0348622Y0050013D01*
X0348482Y0049949D01*
X0348339Y0049889D01*
X0348196Y0049833D01*
X0348050Y0049780D01*
X0347904Y0049731D01*
X0347756Y0049686D01*
X0347607Y0049645D01*
X0347457Y0049607D01*
X0347306Y0049574D01*
X0347155Y0049544D01*
X0347002Y0049518D01*
X0346849Y0049497D01*
X0346696Y0049479D01*
X0346542Y0049465D01*
X0346388Y0049455D01*
X0346233Y0049449D01*
X0346079Y0049447D01*
X0345925Y0049449D01*
X0345770Y0049455D01*
X0345616Y0049465D01*
X0345462Y0049479D01*
X0345309Y0049497D01*
X0345156Y0049518D01*
X0345003Y0049544D01*
X0344852Y0049574D01*
X0344701Y0049607D01*
X0344551Y0049645D01*
X0344402Y0049686D01*
X0344254Y0049731D01*
X0344108Y0049780D01*
X0343962Y0049833D01*
X0343819Y0049889D01*
X0343676Y0049949D01*
X0343536Y0050013D01*
X0343396Y0050080D01*
X0343259Y0050151D01*
X0343124Y0050225D01*
X0342990Y0050303D01*
X0342859Y0050384D01*
X0342730Y0050469D01*
X0342602Y0050557D01*
X0342478Y0050648D01*
X0342355Y0050742D01*
X0342235Y0050840D01*
X0342118Y0050940D01*
X0342003Y0051044D01*
X0341891Y0051150D01*
X0341782Y0051259D01*
X0341676Y0051371D01*
X0341572Y0051486D01*
X0341472Y0051603D01*
X0341374Y0051723D01*
X0341280Y0051846D01*
X0341189Y0051970D01*
X0341101Y0052098D01*
X0341016Y0052227D01*
X0340935Y0052358D01*
X0340857Y0052492D01*
X0340783Y0052627D01*
X0340712Y0052764D01*
X0340645Y0052904D01*
X0340581Y0053044D01*
X0340521Y0053187D01*
X0340465Y0053330D01*
X0340412Y0053476D01*
X0340363Y0053622D01*
X0340318Y0053770D01*
X0340277Y0053919D01*
X0340239Y0054069D01*
X0340206Y0054220D01*
X0340176Y0054371D01*
X0340150Y0054524D01*
X0340129Y0054677D01*
X0340111Y0054830D01*
X0340097Y0054984D01*
X0340087Y0055138D01*
X0340081Y0055293D01*
X0340079Y0055447D01*
X0340079Y0240647D02*
X0340081Y0240801D01*
X0340087Y0240956D01*
X0340097Y0241110D01*
X0340111Y0241264D01*
X0340129Y0241417D01*
X0340150Y0241570D01*
X0340176Y0241723D01*
X0340206Y0241874D01*
X0340239Y0242025D01*
X0340277Y0242175D01*
X0340318Y0242324D01*
X0340363Y0242472D01*
X0340412Y0242618D01*
X0340465Y0242764D01*
X0340521Y0242907D01*
X0340581Y0243050D01*
X0340645Y0243190D01*
X0340712Y0243330D01*
X0340783Y0243467D01*
X0340857Y0243602D01*
X0340935Y0243736D01*
X0341016Y0243867D01*
X0341101Y0243996D01*
X0341189Y0244124D01*
X0341280Y0244248D01*
X0341374Y0244371D01*
X0341472Y0244491D01*
X0341572Y0244608D01*
X0341676Y0244723D01*
X0341782Y0244835D01*
X0341891Y0244944D01*
X0342003Y0245050D01*
X0342118Y0245154D01*
X0342235Y0245254D01*
X0342355Y0245352D01*
X0342478Y0245446D01*
X0342602Y0245537D01*
X0342730Y0245625D01*
X0342859Y0245710D01*
X0342990Y0245791D01*
X0343124Y0245869D01*
X0343259Y0245943D01*
X0343396Y0246014D01*
X0343536Y0246081D01*
X0343676Y0246145D01*
X0343819Y0246205D01*
X0343962Y0246261D01*
X0344108Y0246314D01*
X0344254Y0246363D01*
X0344402Y0246408D01*
X0344551Y0246449D01*
X0344701Y0246487D01*
X0344852Y0246520D01*
X0345003Y0246550D01*
X0345156Y0246576D01*
X0345309Y0246597D01*
X0345462Y0246615D01*
X0345616Y0246629D01*
X0345770Y0246639D01*
X0345925Y0246645D01*
X0346079Y0246647D01*
X0346233Y0246645D01*
X0346388Y0246639D01*
X0346542Y0246629D01*
X0346696Y0246615D01*
X0346849Y0246597D01*
X0347002Y0246576D01*
X0347155Y0246550D01*
X0347306Y0246520D01*
X0347457Y0246487D01*
X0347607Y0246449D01*
X0347756Y0246408D01*
X0347904Y0246363D01*
X0348050Y0246314D01*
X0348196Y0246261D01*
X0348339Y0246205D01*
X0348482Y0246145D01*
X0348622Y0246081D01*
X0348762Y0246014D01*
X0348899Y0245943D01*
X0349034Y0245869D01*
X0349168Y0245791D01*
X0349299Y0245710D01*
X0349428Y0245625D01*
X0349556Y0245537D01*
X0349680Y0245446D01*
X0349803Y0245352D01*
X0349923Y0245254D01*
X0350040Y0245154D01*
X0350155Y0245050D01*
X0350267Y0244944D01*
X0350376Y0244835D01*
X0350482Y0244723D01*
X0350586Y0244608D01*
X0350686Y0244491D01*
X0350784Y0244371D01*
X0350878Y0244248D01*
X0350969Y0244124D01*
X0351057Y0243996D01*
X0351142Y0243867D01*
X0351223Y0243736D01*
X0351301Y0243602D01*
X0351375Y0243467D01*
X0351446Y0243330D01*
X0351513Y0243190D01*
X0351577Y0243050D01*
X0351637Y0242907D01*
X0351693Y0242764D01*
X0351746Y0242618D01*
X0351795Y0242472D01*
X0351840Y0242324D01*
X0351881Y0242175D01*
X0351919Y0242025D01*
X0351952Y0241874D01*
X0351982Y0241723D01*
X0352008Y0241570D01*
X0352029Y0241417D01*
X0352047Y0241264D01*
X0352061Y0241110D01*
X0352071Y0240956D01*
X0352077Y0240801D01*
X0352079Y0240647D01*
X0352077Y0240493D01*
X0352071Y0240338D01*
X0352061Y0240184D01*
X0352047Y0240030D01*
X0352029Y0239877D01*
X0352008Y0239724D01*
X0351982Y0239571D01*
X0351952Y0239420D01*
X0351919Y0239269D01*
X0351881Y0239119D01*
X0351840Y0238970D01*
X0351795Y0238822D01*
X0351746Y0238676D01*
X0351693Y0238530D01*
X0351637Y0238387D01*
X0351577Y0238244D01*
X0351513Y0238104D01*
X0351446Y0237964D01*
X0351375Y0237827D01*
X0351301Y0237692D01*
X0351223Y0237558D01*
X0351142Y0237427D01*
X0351057Y0237298D01*
X0350969Y0237170D01*
X0350878Y0237046D01*
X0350784Y0236923D01*
X0350686Y0236803D01*
X0350586Y0236686D01*
X0350482Y0236571D01*
X0350376Y0236459D01*
X0350267Y0236350D01*
X0350155Y0236244D01*
X0350040Y0236140D01*
X0349923Y0236040D01*
X0349803Y0235942D01*
X0349680Y0235848D01*
X0349556Y0235757D01*
X0349428Y0235669D01*
X0349299Y0235584D01*
X0349168Y0235503D01*
X0349034Y0235425D01*
X0348899Y0235351D01*
X0348762Y0235280D01*
X0348622Y0235213D01*
X0348482Y0235149D01*
X0348339Y0235089D01*
X0348196Y0235033D01*
X0348050Y0234980D01*
X0347904Y0234931D01*
X0347756Y0234886D01*
X0347607Y0234845D01*
X0347457Y0234807D01*
X0347306Y0234774D01*
X0347155Y0234744D01*
X0347002Y0234718D01*
X0346849Y0234697D01*
X0346696Y0234679D01*
X0346542Y0234665D01*
X0346388Y0234655D01*
X0346233Y0234649D01*
X0346079Y0234647D01*
X0345925Y0234649D01*
X0345770Y0234655D01*
X0345616Y0234665D01*
X0345462Y0234679D01*
X0345309Y0234697D01*
X0345156Y0234718D01*
X0345003Y0234744D01*
X0344852Y0234774D01*
X0344701Y0234807D01*
X0344551Y0234845D01*
X0344402Y0234886D01*
X0344254Y0234931D01*
X0344108Y0234980D01*
X0343962Y0235033D01*
X0343819Y0235089D01*
X0343676Y0235149D01*
X0343536Y0235213D01*
X0343396Y0235280D01*
X0343259Y0235351D01*
X0343124Y0235425D01*
X0342990Y0235503D01*
X0342859Y0235584D01*
X0342730Y0235669D01*
X0342602Y0235757D01*
X0342478Y0235848D01*
X0342355Y0235942D01*
X0342235Y0236040D01*
X0342118Y0236140D01*
X0342003Y0236244D01*
X0341891Y0236350D01*
X0341782Y0236459D01*
X0341676Y0236571D01*
X0341572Y0236686D01*
X0341472Y0236803D01*
X0341374Y0236923D01*
X0341280Y0237046D01*
X0341189Y0237170D01*
X0341101Y0237298D01*
X0341016Y0237427D01*
X0340935Y0237558D01*
X0340857Y0237692D01*
X0340783Y0237827D01*
X0340712Y0237964D01*
X0340645Y0238104D01*
X0340581Y0238244D01*
X0340521Y0238387D01*
X0340465Y0238530D01*
X0340412Y0238676D01*
X0340363Y0238822D01*
X0340318Y0238970D01*
X0340277Y0239119D01*
X0340239Y0239269D01*
X0340206Y0239420D01*
X0340176Y0239571D01*
X0340150Y0239724D01*
X0340129Y0239877D01*
X0340111Y0240030D01*
X0340097Y0240184D01*
X0340087Y0240338D01*
X0340081Y0240493D01*
X0340079Y0240647D01*
X0029150Y0264189D02*
X0029152Y0264347D01*
X0029158Y0264505D01*
X0029168Y0264663D01*
X0029182Y0264821D01*
X0029200Y0264978D01*
X0029221Y0265135D01*
X0029247Y0265291D01*
X0029277Y0265447D01*
X0029310Y0265602D01*
X0029348Y0265755D01*
X0029389Y0265908D01*
X0029434Y0266060D01*
X0029483Y0266211D01*
X0029536Y0266360D01*
X0029592Y0266508D01*
X0029652Y0266654D01*
X0029716Y0266799D01*
X0029784Y0266942D01*
X0029855Y0267084D01*
X0029929Y0267224D01*
X0030007Y0267361D01*
X0030089Y0267497D01*
X0030173Y0267631D01*
X0030262Y0267762D01*
X0030353Y0267891D01*
X0030448Y0268018D01*
X0030545Y0268143D01*
X0030646Y0268265D01*
X0030750Y0268384D01*
X0030857Y0268501D01*
X0030967Y0268615D01*
X0031080Y0268726D01*
X0031195Y0268835D01*
X0031313Y0268940D01*
X0031434Y0269042D01*
X0031557Y0269142D01*
X0031683Y0269238D01*
X0031811Y0269331D01*
X0031941Y0269421D01*
X0032074Y0269507D01*
X0032209Y0269591D01*
X0032345Y0269670D01*
X0032484Y0269747D01*
X0032625Y0269819D01*
X0032767Y0269889D01*
X0032911Y0269954D01*
X0033057Y0270016D01*
X0033204Y0270074D01*
X0033353Y0270129D01*
X0033503Y0270180D01*
X0033654Y0270227D01*
X0033806Y0270270D01*
X0033959Y0270309D01*
X0034114Y0270345D01*
X0034269Y0270376D01*
X0034425Y0270404D01*
X0034581Y0270428D01*
X0034738Y0270448D01*
X0034896Y0270464D01*
X0035053Y0270476D01*
X0035212Y0270484D01*
X0035370Y0270488D01*
X0035528Y0270488D01*
X0035686Y0270484D01*
X0035845Y0270476D01*
X0036002Y0270464D01*
X0036160Y0270448D01*
X0036317Y0270428D01*
X0036473Y0270404D01*
X0036629Y0270376D01*
X0036784Y0270345D01*
X0036939Y0270309D01*
X0037092Y0270270D01*
X0037244Y0270227D01*
X0037395Y0270180D01*
X0037545Y0270129D01*
X0037694Y0270074D01*
X0037841Y0270016D01*
X0037987Y0269954D01*
X0038131Y0269889D01*
X0038273Y0269819D01*
X0038414Y0269747D01*
X0038553Y0269670D01*
X0038689Y0269591D01*
X0038824Y0269507D01*
X0038957Y0269421D01*
X0039087Y0269331D01*
X0039215Y0269238D01*
X0039341Y0269142D01*
X0039464Y0269042D01*
X0039585Y0268940D01*
X0039703Y0268835D01*
X0039818Y0268726D01*
X0039931Y0268615D01*
X0040041Y0268501D01*
X0040148Y0268384D01*
X0040252Y0268265D01*
X0040353Y0268143D01*
X0040450Y0268018D01*
X0040545Y0267891D01*
X0040636Y0267762D01*
X0040725Y0267631D01*
X0040809Y0267497D01*
X0040891Y0267361D01*
X0040969Y0267224D01*
X0041043Y0267084D01*
X0041114Y0266942D01*
X0041182Y0266799D01*
X0041246Y0266654D01*
X0041306Y0266508D01*
X0041362Y0266360D01*
X0041415Y0266211D01*
X0041464Y0266060D01*
X0041509Y0265908D01*
X0041550Y0265755D01*
X0041588Y0265602D01*
X0041621Y0265447D01*
X0041651Y0265291D01*
X0041677Y0265135D01*
X0041698Y0264978D01*
X0041716Y0264821D01*
X0041730Y0264663D01*
X0041740Y0264505D01*
X0041746Y0264347D01*
X0041748Y0264189D01*
X0041746Y0264031D01*
X0041740Y0263873D01*
X0041730Y0263715D01*
X0041716Y0263557D01*
X0041698Y0263400D01*
X0041677Y0263243D01*
X0041651Y0263087D01*
X0041621Y0262931D01*
X0041588Y0262776D01*
X0041550Y0262623D01*
X0041509Y0262470D01*
X0041464Y0262318D01*
X0041415Y0262167D01*
X0041362Y0262018D01*
X0041306Y0261870D01*
X0041246Y0261724D01*
X0041182Y0261579D01*
X0041114Y0261436D01*
X0041043Y0261294D01*
X0040969Y0261154D01*
X0040891Y0261017D01*
X0040809Y0260881D01*
X0040725Y0260747D01*
X0040636Y0260616D01*
X0040545Y0260487D01*
X0040450Y0260360D01*
X0040353Y0260235D01*
X0040252Y0260113D01*
X0040148Y0259994D01*
X0040041Y0259877D01*
X0039931Y0259763D01*
X0039818Y0259652D01*
X0039703Y0259543D01*
X0039585Y0259438D01*
X0039464Y0259336D01*
X0039341Y0259236D01*
X0039215Y0259140D01*
X0039087Y0259047D01*
X0038957Y0258957D01*
X0038824Y0258871D01*
X0038689Y0258787D01*
X0038553Y0258708D01*
X0038414Y0258631D01*
X0038273Y0258559D01*
X0038131Y0258489D01*
X0037987Y0258424D01*
X0037841Y0258362D01*
X0037694Y0258304D01*
X0037545Y0258249D01*
X0037395Y0258198D01*
X0037244Y0258151D01*
X0037092Y0258108D01*
X0036939Y0258069D01*
X0036784Y0258033D01*
X0036629Y0258002D01*
X0036473Y0257974D01*
X0036317Y0257950D01*
X0036160Y0257930D01*
X0036002Y0257914D01*
X0035845Y0257902D01*
X0035686Y0257894D01*
X0035528Y0257890D01*
X0035370Y0257890D01*
X0035212Y0257894D01*
X0035053Y0257902D01*
X0034896Y0257914D01*
X0034738Y0257930D01*
X0034581Y0257950D01*
X0034425Y0257974D01*
X0034269Y0258002D01*
X0034114Y0258033D01*
X0033959Y0258069D01*
X0033806Y0258108D01*
X0033654Y0258151D01*
X0033503Y0258198D01*
X0033353Y0258249D01*
X0033204Y0258304D01*
X0033057Y0258362D01*
X0032911Y0258424D01*
X0032767Y0258489D01*
X0032625Y0258559D01*
X0032484Y0258631D01*
X0032345Y0258708D01*
X0032209Y0258787D01*
X0032074Y0258871D01*
X0031941Y0258957D01*
X0031811Y0259047D01*
X0031683Y0259140D01*
X0031557Y0259236D01*
X0031434Y0259336D01*
X0031313Y0259438D01*
X0031195Y0259543D01*
X0031080Y0259652D01*
X0030967Y0259763D01*
X0030857Y0259877D01*
X0030750Y0259994D01*
X0030646Y0260113D01*
X0030545Y0260235D01*
X0030448Y0260360D01*
X0030353Y0260487D01*
X0030262Y0260616D01*
X0030173Y0260747D01*
X0030089Y0260881D01*
X0030007Y0261017D01*
X0029929Y0261154D01*
X0029855Y0261294D01*
X0029784Y0261436D01*
X0029716Y0261579D01*
X0029652Y0261724D01*
X0029592Y0261870D01*
X0029536Y0262018D01*
X0029483Y0262167D01*
X0029434Y0262318D01*
X0029389Y0262470D01*
X0029348Y0262623D01*
X0029310Y0262776D01*
X0029277Y0262931D01*
X0029247Y0263087D01*
X0029221Y0263243D01*
X0029200Y0263400D01*
X0029182Y0263557D01*
X0029168Y0263715D01*
X0029158Y0263873D01*
X0029152Y0264031D01*
X0029150Y0264189D01*
M02*
