G75*
%MOIN*%
%OFA0B0*%
%FSLAX25Y25*%
%IPPOS*%
%LPD*%
%AMOC8*
5,1,8,0,0,1.08239X$1,22.5*
%
%ADD10C,0.12598*%
%ADD11C,0.06000*%
%ADD12OC8,0.06000*%
%ADD13C,0.06450*%
%ADD14C,0.12000*%
%ADD15C,0.13055*%
%ADD16C,0.05433*%
%ADD17C,0.07087*%
D10*
X0035449Y0031906D03*
X0035449Y0264189D03*
X0371669Y0264189D03*
X0371669Y0031906D03*
D11*
X0116984Y0097803D02*
X0116984Y0103803D01*
X0106984Y0103803D02*
X0106984Y0097803D01*
X0096984Y0097803D02*
X0096984Y0103803D01*
X0086984Y0103803D02*
X0086984Y0097803D01*
X0096984Y0127331D02*
X0096984Y0133331D01*
X0106984Y0133331D02*
X0106984Y0127331D01*
X0098362Y0234378D02*
X0098362Y0240378D01*
X0088362Y0240378D02*
X0088362Y0234378D01*
X0078362Y0234378D02*
X0078362Y0240378D01*
X0068362Y0240378D02*
X0068362Y0234378D01*
X0058362Y0234378D02*
X0058362Y0240378D01*
X0117575Y0240378D02*
X0117575Y0234378D01*
X0127575Y0234378D02*
X0127575Y0240378D01*
X0137575Y0240378D02*
X0137575Y0234378D01*
X0156945Y0234378D02*
X0156945Y0240378D01*
X0166945Y0240378D02*
X0166945Y0234378D01*
X0176945Y0234378D02*
X0176945Y0240378D01*
X0196315Y0240378D02*
X0196315Y0234378D01*
X0206315Y0234378D02*
X0206315Y0240378D01*
X0216315Y0240378D02*
X0216315Y0234378D01*
X0235685Y0234378D02*
X0235685Y0240378D01*
X0245685Y0240378D02*
X0245685Y0234378D01*
X0255685Y0234378D02*
X0255685Y0240378D01*
D12*
X0030055Y0243047D03*
X0030055Y0233047D03*
X0020055Y0233047D03*
X0020055Y0243047D03*
X0020055Y0223047D03*
X0020055Y0213047D03*
X0020055Y0203047D03*
X0030055Y0203047D03*
X0030055Y0213047D03*
X0030055Y0223047D03*
X0030055Y0193047D03*
X0030055Y0183047D03*
X0020055Y0183047D03*
X0020055Y0193047D03*
X0020055Y0173047D03*
X0020055Y0163047D03*
X0020055Y0153047D03*
X0030055Y0153047D03*
X0030055Y0163047D03*
X0030055Y0173047D03*
X0030055Y0143047D03*
X0030055Y0133047D03*
X0020055Y0133047D03*
X0020055Y0143047D03*
X0020055Y0123047D03*
X0020055Y0113047D03*
X0020055Y0103047D03*
X0030055Y0103047D03*
X0030055Y0113047D03*
X0030055Y0123047D03*
X0030055Y0093047D03*
X0030055Y0083047D03*
X0020055Y0083047D03*
X0020055Y0093047D03*
X0020055Y0073047D03*
X0020055Y0063047D03*
X0020055Y0053047D03*
X0030055Y0053047D03*
X0030055Y0063047D03*
X0030055Y0073047D03*
D13*
X0340479Y0082647D03*
X0340479Y0093547D03*
X0351679Y0088097D03*
X0351679Y0098997D03*
X0340479Y0104447D03*
X0351679Y0109897D03*
X0340479Y0115347D03*
X0340479Y0126247D03*
X0351679Y0120797D03*
X0351679Y0131697D03*
X0340479Y0137147D03*
X0351679Y0142597D03*
X0340479Y0148047D03*
X0351679Y0153497D03*
X0351679Y0164397D03*
X0340479Y0158947D03*
X0340479Y0169847D03*
X0351679Y0175297D03*
X0340479Y0180747D03*
X0351679Y0186197D03*
X0340479Y0191647D03*
X0340479Y0202547D03*
X0351679Y0197097D03*
X0351679Y0207997D03*
X0340479Y0213447D03*
D14*
X0346079Y0240647D03*
X0346079Y0055447D03*
D15*
X0178835Y0060252D03*
X0131433Y0060252D03*
D16*
X0150213Y0070921D03*
X0150213Y0078795D03*
X0160055Y0078795D03*
X0160055Y0070921D03*
D17*
X0204740Y0102772D02*
X0211827Y0102772D01*
X0244110Y0102772D02*
X0251197Y0102772D01*
X0283480Y0102772D02*
X0290567Y0102772D01*
X0290567Y0033874D02*
X0283480Y0033874D01*
X0251197Y0033874D02*
X0244110Y0033874D01*
X0211827Y0033874D02*
X0204740Y0033874D01*
M02*
