G75*
%MOIN*%
%OFA0B0*%
%FSLAX25Y25*%
%IPPOS*%
%LPD*%
%AMOC8*
5,1,8,0,0,1.08239X$1,22.5*
%
%ADD10C,0.12598*%
%ADD11C,0.00039*%
%ADD12R,0.04252X0.04134*%
%ADD13R,0.04134X0.04252*%
%ADD14R,0.07087X0.06299*%
%ADD15C,0.06000*%
%ADD16OC8,0.06000*%
%ADD17R,0.04724X0.01181*%
%ADD18R,0.01181X0.04724*%
%ADD19R,0.12402X0.12402*%
%ADD20R,0.01181X0.03150*%
%ADD21R,0.01181X0.02756*%
%ADD22R,0.02756X0.01181*%
%ADD23R,0.03150X0.01181*%
%ADD24R,0.02362X0.08661*%
%ADD25R,0.05512X0.03937*%
%ADD26R,0.03937X0.03937*%
%ADD27R,0.07874X0.06299*%
%ADD28R,0.03937X0.04331*%
%ADD29R,0.04331X0.03937*%
%ADD30C,0.06450*%
%ADD31C,0.12000*%
%ADD32C,0.13055*%
%ADD33C,0.05433*%
%ADD34C,0.07087*%
%ADD35R,0.03937X0.09055*%
%ADD36R,0.03937X0.03150*%
%ADD37R,0.08661X0.02362*%
D10*
X0035449Y0031906D03*
X0035449Y0264189D03*
X0371669Y0264189D03*
X0371669Y0031906D03*
D11*
X0290724Y0222378D02*
X0289307Y0221906D01*
X0288756Y0221827D01*
X0287654Y0221906D01*
X0287339Y0222772D01*
X0287181Y0223953D01*
X0286945Y0222850D01*
X0286394Y0222220D01*
X0285213Y0221748D01*
X0283717Y0221669D01*
X0282693Y0221748D01*
X0281906Y0221984D01*
X0281433Y0222299D01*
X0281433Y0223008D01*
X0281591Y0223559D01*
X0282063Y0224346D01*
X0282535Y0224898D01*
X0283008Y0225449D01*
X0283165Y0225606D01*
X0284268Y0226630D01*
X0284740Y0226551D01*
X0286079Y0226000D01*
X0286630Y0225449D01*
X0286630Y0226394D01*
X0286236Y0228283D01*
X0285921Y0229150D01*
X0290409Y0231354D01*
X0292063Y0231433D01*
X0293087Y0230882D01*
X0294504Y0229386D01*
X0295370Y0227811D01*
X0295370Y0226551D01*
X0295134Y0225370D01*
X0293559Y0223953D01*
X0290724Y0222378D01*
X0290730Y0222381D02*
X0287481Y0222381D01*
X0287494Y0222343D02*
X0290620Y0222343D01*
X0290507Y0222305D02*
X0287508Y0222305D01*
X0287522Y0222268D02*
X0290393Y0222268D01*
X0290279Y0222230D02*
X0287536Y0222230D01*
X0287549Y0222192D02*
X0290166Y0222192D01*
X0290052Y0222154D02*
X0287563Y0222154D01*
X0287577Y0222116D02*
X0289938Y0222116D01*
X0289825Y0222078D02*
X0287591Y0222078D01*
X0287605Y0222040D02*
X0289711Y0222040D01*
X0289598Y0222002D02*
X0287618Y0222002D01*
X0287632Y0221964D02*
X0289484Y0221964D01*
X0289370Y0221927D02*
X0287646Y0221927D01*
X0287889Y0221889D02*
X0289189Y0221889D01*
X0288924Y0221851D02*
X0288419Y0221851D01*
X0287467Y0222419D02*
X0290798Y0222419D01*
X0290867Y0222457D02*
X0287453Y0222457D01*
X0287439Y0222495D02*
X0290935Y0222495D01*
X0291003Y0222533D02*
X0287425Y0222533D01*
X0287412Y0222571D02*
X0291071Y0222571D01*
X0291139Y0222608D02*
X0287398Y0222608D01*
X0287384Y0222646D02*
X0291207Y0222646D01*
X0291276Y0222684D02*
X0287370Y0222684D01*
X0287357Y0222722D02*
X0291344Y0222722D01*
X0291412Y0222760D02*
X0287343Y0222760D01*
X0287335Y0222798D02*
X0291480Y0222798D01*
X0291548Y0222836D02*
X0287330Y0222836D01*
X0287325Y0222874D02*
X0291617Y0222874D01*
X0291685Y0222911D02*
X0287320Y0222911D01*
X0287315Y0222949D02*
X0291753Y0222949D01*
X0291821Y0222987D02*
X0287310Y0222987D01*
X0287305Y0223025D02*
X0291889Y0223025D01*
X0291958Y0223063D02*
X0287300Y0223063D01*
X0287295Y0223101D02*
X0292026Y0223101D01*
X0292094Y0223139D02*
X0287290Y0223139D01*
X0287285Y0223177D02*
X0292162Y0223177D01*
X0292230Y0223215D02*
X0287280Y0223215D01*
X0287274Y0223252D02*
X0292298Y0223252D01*
X0292367Y0223290D02*
X0287269Y0223290D01*
X0287264Y0223328D02*
X0292435Y0223328D01*
X0292503Y0223366D02*
X0287259Y0223366D01*
X0287254Y0223404D02*
X0292571Y0223404D01*
X0292639Y0223442D02*
X0287249Y0223442D01*
X0287244Y0223480D02*
X0292708Y0223480D01*
X0292776Y0223518D02*
X0287239Y0223518D01*
X0287234Y0223555D02*
X0292844Y0223555D01*
X0292912Y0223593D02*
X0287229Y0223593D01*
X0287224Y0223631D02*
X0292980Y0223631D01*
X0293048Y0223669D02*
X0287219Y0223669D01*
X0287214Y0223707D02*
X0293117Y0223707D01*
X0293185Y0223745D02*
X0287209Y0223745D01*
X0287204Y0223783D02*
X0293253Y0223783D01*
X0293321Y0223821D02*
X0287199Y0223821D01*
X0287194Y0223859D02*
X0293389Y0223859D01*
X0293458Y0223896D02*
X0287189Y0223896D01*
X0287169Y0223896D02*
X0281793Y0223896D01*
X0281770Y0223859D02*
X0287161Y0223859D01*
X0287153Y0223821D02*
X0281748Y0223821D01*
X0281725Y0223783D02*
X0287145Y0223783D01*
X0287137Y0223745D02*
X0281702Y0223745D01*
X0281679Y0223707D02*
X0287128Y0223707D01*
X0287120Y0223669D02*
X0281657Y0223669D01*
X0281634Y0223631D02*
X0287112Y0223631D01*
X0287104Y0223593D02*
X0281611Y0223593D01*
X0281590Y0223555D02*
X0287096Y0223555D01*
X0287088Y0223518D02*
X0281579Y0223518D01*
X0281568Y0223480D02*
X0287080Y0223480D01*
X0287072Y0223442D02*
X0281557Y0223442D01*
X0281546Y0223404D02*
X0287063Y0223404D01*
X0287055Y0223366D02*
X0281535Y0223366D01*
X0281525Y0223328D02*
X0287047Y0223328D01*
X0287039Y0223290D02*
X0281514Y0223290D01*
X0281503Y0223252D02*
X0287031Y0223252D01*
X0287023Y0223215D02*
X0281492Y0223215D01*
X0281481Y0223177D02*
X0287015Y0223177D01*
X0287007Y0223139D02*
X0281470Y0223139D01*
X0281460Y0223101D02*
X0286999Y0223101D01*
X0286990Y0223063D02*
X0281449Y0223063D01*
X0281438Y0223025D02*
X0286982Y0223025D01*
X0286974Y0222987D02*
X0281433Y0222987D01*
X0281433Y0222949D02*
X0286966Y0222949D01*
X0286958Y0222911D02*
X0281433Y0222911D01*
X0281433Y0222874D02*
X0286950Y0222874D01*
X0286932Y0222836D02*
X0281433Y0222836D01*
X0281433Y0222798D02*
X0286899Y0222798D01*
X0286866Y0222760D02*
X0281433Y0222760D01*
X0281433Y0222722D02*
X0286833Y0222722D01*
X0286799Y0222684D02*
X0281433Y0222684D01*
X0281433Y0222646D02*
X0286766Y0222646D01*
X0286733Y0222608D02*
X0281433Y0222608D01*
X0281433Y0222571D02*
X0286700Y0222571D01*
X0286667Y0222533D02*
X0281433Y0222533D01*
X0281433Y0222495D02*
X0286634Y0222495D01*
X0286601Y0222457D02*
X0281433Y0222457D01*
X0281433Y0222419D02*
X0286567Y0222419D01*
X0286534Y0222381D02*
X0281433Y0222381D01*
X0281433Y0222343D02*
X0286501Y0222343D01*
X0286468Y0222305D02*
X0281433Y0222305D01*
X0281481Y0222268D02*
X0286435Y0222268D01*
X0286402Y0222230D02*
X0281537Y0222230D01*
X0281594Y0222192D02*
X0286322Y0222192D01*
X0286227Y0222154D02*
X0281651Y0222154D01*
X0281708Y0222116D02*
X0286132Y0222116D01*
X0286038Y0222078D02*
X0281765Y0222078D01*
X0281822Y0222040D02*
X0285943Y0222040D01*
X0285848Y0222002D02*
X0281878Y0222002D01*
X0281971Y0221964D02*
X0285754Y0221964D01*
X0285659Y0221927D02*
X0282098Y0221927D01*
X0282224Y0221889D02*
X0285564Y0221889D01*
X0285470Y0221851D02*
X0282350Y0221851D01*
X0282477Y0221813D02*
X0285375Y0221813D01*
X0285280Y0221775D02*
X0282603Y0221775D01*
X0282834Y0221737D02*
X0285006Y0221737D01*
X0284286Y0221699D02*
X0283327Y0221699D01*
X0281816Y0223934D02*
X0287177Y0223934D01*
X0287184Y0223934D02*
X0293526Y0223934D01*
X0293581Y0223972D02*
X0281838Y0223972D01*
X0281861Y0224010D02*
X0293623Y0224010D01*
X0293665Y0224048D02*
X0281884Y0224048D01*
X0281907Y0224086D02*
X0293707Y0224086D01*
X0293749Y0224124D02*
X0281929Y0224124D01*
X0281952Y0224162D02*
X0293791Y0224162D01*
X0293833Y0224199D02*
X0281975Y0224199D01*
X0281998Y0224237D02*
X0293875Y0224237D01*
X0293917Y0224275D02*
X0282020Y0224275D01*
X0282043Y0224313D02*
X0293959Y0224313D01*
X0294002Y0224351D02*
X0282067Y0224351D01*
X0282099Y0224389D02*
X0294044Y0224389D01*
X0294086Y0224427D02*
X0282132Y0224427D01*
X0282164Y0224465D02*
X0294128Y0224465D01*
X0294170Y0224503D02*
X0282197Y0224503D01*
X0282229Y0224540D02*
X0294212Y0224540D01*
X0294254Y0224578D02*
X0282262Y0224578D01*
X0282294Y0224616D02*
X0294296Y0224616D01*
X0294338Y0224654D02*
X0282327Y0224654D01*
X0282359Y0224692D02*
X0294380Y0224692D01*
X0294422Y0224730D02*
X0282392Y0224730D01*
X0282424Y0224768D02*
X0294465Y0224768D01*
X0294507Y0224806D02*
X0282457Y0224806D01*
X0282489Y0224843D02*
X0294549Y0224843D01*
X0294591Y0224881D02*
X0282521Y0224881D01*
X0282554Y0224919D02*
X0294633Y0224919D01*
X0294675Y0224957D02*
X0282586Y0224957D01*
X0282619Y0224995D02*
X0294717Y0224995D01*
X0294759Y0225033D02*
X0282651Y0225033D01*
X0282684Y0225071D02*
X0294801Y0225071D01*
X0294843Y0225109D02*
X0282716Y0225109D01*
X0282749Y0225146D02*
X0294885Y0225146D01*
X0294928Y0225184D02*
X0282781Y0225184D01*
X0282814Y0225222D02*
X0294970Y0225222D01*
X0295012Y0225260D02*
X0282846Y0225260D01*
X0282879Y0225298D02*
X0295054Y0225298D01*
X0295096Y0225336D02*
X0282911Y0225336D01*
X0282944Y0225374D02*
X0295135Y0225374D01*
X0295142Y0225412D02*
X0282976Y0225412D01*
X0283009Y0225450D02*
X0286629Y0225450D01*
X0286630Y0225450D02*
X0295150Y0225450D01*
X0295157Y0225487D02*
X0286630Y0225487D01*
X0286630Y0225525D02*
X0295165Y0225525D01*
X0295172Y0225563D02*
X0286630Y0225563D01*
X0286630Y0225601D02*
X0295180Y0225601D01*
X0295188Y0225639D02*
X0286630Y0225639D01*
X0286630Y0225677D02*
X0295195Y0225677D01*
X0295203Y0225715D02*
X0286630Y0225715D01*
X0286630Y0225753D02*
X0295210Y0225753D01*
X0295218Y0225790D02*
X0286630Y0225790D01*
X0286630Y0225828D02*
X0295226Y0225828D01*
X0295233Y0225866D02*
X0286630Y0225866D01*
X0286630Y0225904D02*
X0295241Y0225904D01*
X0295248Y0225942D02*
X0286630Y0225942D01*
X0286630Y0225980D02*
X0295256Y0225980D01*
X0295263Y0226018D02*
X0286630Y0226018D01*
X0286630Y0226056D02*
X0295271Y0226056D01*
X0295279Y0226094D02*
X0286630Y0226094D01*
X0286630Y0226131D02*
X0295286Y0226131D01*
X0295294Y0226169D02*
X0286630Y0226169D01*
X0286630Y0226207D02*
X0295301Y0226207D01*
X0295309Y0226245D02*
X0286630Y0226245D01*
X0286630Y0226283D02*
X0295316Y0226283D01*
X0295324Y0226321D02*
X0286630Y0226321D01*
X0286630Y0226359D02*
X0295332Y0226359D01*
X0295339Y0226397D02*
X0286629Y0226397D01*
X0286621Y0226434D02*
X0295347Y0226434D01*
X0295354Y0226472D02*
X0286614Y0226472D01*
X0286606Y0226510D02*
X0295362Y0226510D01*
X0295369Y0226548D02*
X0286598Y0226548D01*
X0286590Y0226586D02*
X0295370Y0226586D01*
X0295370Y0226624D02*
X0286582Y0226624D01*
X0286574Y0226662D02*
X0295370Y0226662D01*
X0295370Y0226700D02*
X0286566Y0226700D01*
X0286558Y0226738D02*
X0295370Y0226738D01*
X0295370Y0226775D02*
X0286550Y0226775D01*
X0286543Y0226813D02*
X0295370Y0226813D01*
X0295370Y0226851D02*
X0286535Y0226851D01*
X0286527Y0226889D02*
X0295370Y0226889D01*
X0295370Y0226927D02*
X0286519Y0226927D01*
X0286511Y0226965D02*
X0295370Y0226965D01*
X0295370Y0227003D02*
X0286503Y0227003D01*
X0286495Y0227041D02*
X0295370Y0227041D01*
X0295370Y0227078D02*
X0286487Y0227078D01*
X0286479Y0227116D02*
X0295370Y0227116D01*
X0295370Y0227154D02*
X0286471Y0227154D01*
X0286464Y0227192D02*
X0295370Y0227192D01*
X0295370Y0227230D02*
X0286456Y0227230D01*
X0286448Y0227268D02*
X0295370Y0227268D01*
X0295370Y0227306D02*
X0286440Y0227306D01*
X0286432Y0227344D02*
X0295370Y0227344D01*
X0295370Y0227381D02*
X0286424Y0227381D01*
X0286416Y0227419D02*
X0295370Y0227419D01*
X0295370Y0227457D02*
X0286408Y0227457D01*
X0286400Y0227495D02*
X0295370Y0227495D01*
X0295370Y0227533D02*
X0286393Y0227533D01*
X0286385Y0227571D02*
X0295370Y0227571D01*
X0295370Y0227609D02*
X0286377Y0227609D01*
X0286369Y0227647D02*
X0295370Y0227647D01*
X0295370Y0227685D02*
X0286361Y0227685D01*
X0286353Y0227722D02*
X0295370Y0227722D01*
X0295370Y0227760D02*
X0286345Y0227760D01*
X0286337Y0227798D02*
X0295370Y0227798D01*
X0295356Y0227836D02*
X0286329Y0227836D01*
X0286322Y0227874D02*
X0295335Y0227874D01*
X0295315Y0227912D02*
X0286314Y0227912D01*
X0286306Y0227950D02*
X0295294Y0227950D01*
X0295273Y0227988D02*
X0286298Y0227988D01*
X0286290Y0228025D02*
X0295252Y0228025D01*
X0295231Y0228063D02*
X0286282Y0228063D01*
X0286274Y0228101D02*
X0295210Y0228101D01*
X0295190Y0228139D02*
X0286266Y0228139D01*
X0286258Y0228177D02*
X0295169Y0228177D01*
X0295148Y0228215D02*
X0286251Y0228215D01*
X0286243Y0228253D02*
X0295127Y0228253D01*
X0295106Y0228291D02*
X0286234Y0228291D01*
X0286220Y0228329D02*
X0295085Y0228329D01*
X0295065Y0228366D02*
X0286206Y0228366D01*
X0286192Y0228404D02*
X0295044Y0228404D01*
X0295023Y0228442D02*
X0286179Y0228442D01*
X0286165Y0228480D02*
X0295002Y0228480D01*
X0294981Y0228518D02*
X0286151Y0228518D01*
X0286137Y0228556D02*
X0294960Y0228556D01*
X0294940Y0228594D02*
X0286123Y0228594D01*
X0286110Y0228632D02*
X0294919Y0228632D01*
X0294898Y0228669D02*
X0286096Y0228669D01*
X0286082Y0228707D02*
X0294877Y0228707D01*
X0294856Y0228745D02*
X0286068Y0228745D01*
X0286055Y0228783D02*
X0294835Y0228783D01*
X0294815Y0228821D02*
X0286041Y0228821D01*
X0286027Y0228859D02*
X0294794Y0228859D01*
X0294773Y0228897D02*
X0286013Y0228897D01*
X0285999Y0228935D02*
X0294752Y0228935D01*
X0294731Y0228973D02*
X0285986Y0228973D01*
X0285972Y0229010D02*
X0294710Y0229010D01*
X0294690Y0229048D02*
X0285958Y0229048D01*
X0285944Y0229086D02*
X0294669Y0229086D01*
X0294648Y0229124D02*
X0285931Y0229124D01*
X0285946Y0229162D02*
X0294627Y0229162D01*
X0294606Y0229200D02*
X0286023Y0229200D01*
X0286101Y0229238D02*
X0294585Y0229238D01*
X0294565Y0229276D02*
X0286178Y0229276D01*
X0286255Y0229313D02*
X0294544Y0229313D01*
X0294523Y0229351D02*
X0286332Y0229351D01*
X0286409Y0229389D02*
X0294501Y0229389D01*
X0294465Y0229427D02*
X0286486Y0229427D01*
X0286563Y0229465D02*
X0294429Y0229465D01*
X0294393Y0229503D02*
X0286640Y0229503D01*
X0286717Y0229541D02*
X0294357Y0229541D01*
X0294321Y0229579D02*
X0286795Y0229579D01*
X0286872Y0229616D02*
X0294285Y0229616D01*
X0294250Y0229654D02*
X0286949Y0229654D01*
X0287026Y0229692D02*
X0294214Y0229692D01*
X0294178Y0229730D02*
X0287103Y0229730D01*
X0287180Y0229768D02*
X0294142Y0229768D01*
X0294106Y0229806D02*
X0287257Y0229806D01*
X0287334Y0229844D02*
X0294070Y0229844D01*
X0294034Y0229882D02*
X0287412Y0229882D01*
X0287489Y0229920D02*
X0293998Y0229920D01*
X0293962Y0229957D02*
X0287566Y0229957D01*
X0287643Y0229995D02*
X0293927Y0229995D01*
X0293891Y0230033D02*
X0287720Y0230033D01*
X0287797Y0230071D02*
X0293855Y0230071D01*
X0293819Y0230109D02*
X0287874Y0230109D01*
X0287951Y0230147D02*
X0293783Y0230147D01*
X0293747Y0230185D02*
X0288028Y0230185D01*
X0288106Y0230223D02*
X0293711Y0230223D01*
X0293675Y0230260D02*
X0288183Y0230260D01*
X0288260Y0230298D02*
X0293639Y0230298D01*
X0293604Y0230336D02*
X0288337Y0230336D01*
X0288414Y0230374D02*
X0293568Y0230374D01*
X0293532Y0230412D02*
X0288491Y0230412D01*
X0288568Y0230450D02*
X0293496Y0230450D01*
X0293460Y0230488D02*
X0288645Y0230488D01*
X0288723Y0230526D02*
X0293424Y0230526D01*
X0293388Y0230564D02*
X0288800Y0230564D01*
X0288877Y0230601D02*
X0293352Y0230601D01*
X0293316Y0230639D02*
X0288954Y0230639D01*
X0289031Y0230677D02*
X0293281Y0230677D01*
X0293245Y0230715D02*
X0289108Y0230715D01*
X0289185Y0230753D02*
X0293209Y0230753D01*
X0293173Y0230791D02*
X0289262Y0230791D01*
X0289339Y0230829D02*
X0293137Y0230829D01*
X0293101Y0230867D02*
X0289417Y0230867D01*
X0289494Y0230904D02*
X0293045Y0230904D01*
X0292974Y0230942D02*
X0289571Y0230942D01*
X0289648Y0230980D02*
X0292904Y0230980D01*
X0292834Y0231018D02*
X0289725Y0231018D01*
X0289802Y0231056D02*
X0292763Y0231056D01*
X0292693Y0231094D02*
X0289879Y0231094D01*
X0289956Y0231132D02*
X0292623Y0231132D01*
X0292552Y0231170D02*
X0290033Y0231170D01*
X0290111Y0231208D02*
X0292482Y0231208D01*
X0292412Y0231245D02*
X0290188Y0231245D01*
X0290265Y0231283D02*
X0292341Y0231283D01*
X0292271Y0231321D02*
X0290342Y0231321D01*
X0290508Y0231359D02*
X0292200Y0231359D01*
X0292130Y0231397D02*
X0291304Y0231397D01*
X0286099Y0225980D02*
X0283568Y0225980D01*
X0283608Y0226018D02*
X0286036Y0226018D01*
X0285944Y0226056D02*
X0283649Y0226056D01*
X0283690Y0226094D02*
X0285852Y0226094D01*
X0285760Y0226131D02*
X0283731Y0226131D01*
X0283772Y0226169D02*
X0285668Y0226169D01*
X0285576Y0226207D02*
X0283812Y0226207D01*
X0283853Y0226245D02*
X0285484Y0226245D01*
X0285392Y0226283D02*
X0283894Y0226283D01*
X0283935Y0226321D02*
X0285300Y0226321D01*
X0285208Y0226359D02*
X0283976Y0226359D01*
X0284016Y0226397D02*
X0285116Y0226397D01*
X0285024Y0226434D02*
X0284057Y0226434D01*
X0284098Y0226472D02*
X0284932Y0226472D01*
X0284840Y0226510D02*
X0284139Y0226510D01*
X0284180Y0226548D02*
X0284748Y0226548D01*
X0284531Y0226586D02*
X0284220Y0226586D01*
X0284261Y0226624D02*
X0284304Y0226624D01*
X0283527Y0225942D02*
X0286137Y0225942D01*
X0286175Y0225904D02*
X0283486Y0225904D01*
X0283445Y0225866D02*
X0286213Y0225866D01*
X0286250Y0225828D02*
X0283405Y0225828D01*
X0283364Y0225790D02*
X0286288Y0225790D01*
X0286326Y0225753D02*
X0283323Y0225753D01*
X0283282Y0225715D02*
X0286364Y0225715D01*
X0286402Y0225677D02*
X0283241Y0225677D01*
X0283201Y0225639D02*
X0286440Y0225639D01*
X0286478Y0225601D02*
X0283160Y0225601D01*
X0283122Y0225563D02*
X0286516Y0225563D01*
X0286553Y0225525D02*
X0283084Y0225525D01*
X0283046Y0225487D02*
X0286591Y0225487D01*
D12*
X0257890Y0210154D03*
X0257890Y0203264D03*
X0257890Y0197949D03*
X0257890Y0191059D03*
X0302378Y0157988D03*
X0302378Y0151098D03*
X0288598Y0149524D03*
X0288598Y0142634D03*
X0220094Y0129839D03*
X0220094Y0122949D03*
X0201591Y0118028D03*
X0201591Y0111138D03*
X0191748Y0147358D03*
X0186236Y0147358D03*
X0186236Y0154248D03*
X0191748Y0154248D03*
X0172457Y0172319D03*
X0172457Y0179209D03*
D13*
X0125823Y0172457D03*
X0118933Y0172457D03*
X0185154Y0133874D03*
X0192043Y0133874D03*
X0179366Y0100016D03*
X0172476Y0100016D03*
X0113303Y0114189D03*
X0106413Y0114189D03*
X0237516Y0140567D03*
X0244406Y0140567D03*
X0249720Y0140567D03*
X0256610Y0140567D03*
X0297752Y0119701D03*
X0297752Y0114189D03*
X0297752Y0108677D03*
X0304642Y0108677D03*
X0304642Y0114189D03*
X0304642Y0119701D03*
D14*
X0113402Y0062220D03*
X0105134Y0062220D03*
X0105134Y0051197D03*
X0113402Y0051197D03*
X0078756Y0051197D03*
X0078756Y0062220D03*
D15*
X0086984Y0097803D02*
X0086984Y0103803D01*
X0096984Y0103803D02*
X0096984Y0097803D01*
X0106984Y0097803D02*
X0106984Y0103803D01*
X0116984Y0103803D02*
X0116984Y0097803D01*
X0106984Y0127331D02*
X0106984Y0133331D01*
X0096984Y0133331D02*
X0096984Y0127331D01*
X0098362Y0234378D02*
X0098362Y0240378D01*
X0088362Y0240378D02*
X0088362Y0234378D01*
X0078362Y0234378D02*
X0078362Y0240378D01*
X0068362Y0240378D02*
X0068362Y0234378D01*
X0058362Y0234378D02*
X0058362Y0240378D01*
X0117575Y0240378D02*
X0117575Y0234378D01*
X0127575Y0234378D02*
X0127575Y0240378D01*
X0137575Y0240378D02*
X0137575Y0234378D01*
X0156945Y0234378D02*
X0156945Y0240378D01*
X0166945Y0240378D02*
X0166945Y0234378D01*
X0176945Y0234378D02*
X0176945Y0240378D01*
X0196315Y0240378D02*
X0196315Y0234378D01*
X0206315Y0234378D02*
X0206315Y0240378D01*
X0216315Y0240378D02*
X0216315Y0234378D01*
X0235685Y0234378D02*
X0235685Y0240378D01*
X0245685Y0240378D02*
X0245685Y0234378D01*
X0255685Y0234378D02*
X0255685Y0240378D01*
D16*
X0030055Y0243047D03*
X0030055Y0233047D03*
X0020055Y0233047D03*
X0020055Y0243047D03*
X0020055Y0223047D03*
X0020055Y0213047D03*
X0020055Y0203047D03*
X0030055Y0203047D03*
X0030055Y0213047D03*
X0030055Y0223047D03*
X0030055Y0193047D03*
X0030055Y0183047D03*
X0020055Y0183047D03*
X0020055Y0193047D03*
X0020055Y0173047D03*
X0020055Y0163047D03*
X0020055Y0153047D03*
X0030055Y0153047D03*
X0030055Y0163047D03*
X0030055Y0173047D03*
X0030055Y0143047D03*
X0030055Y0133047D03*
X0020055Y0133047D03*
X0020055Y0143047D03*
X0020055Y0123047D03*
X0020055Y0113047D03*
X0020055Y0103047D03*
X0030055Y0103047D03*
X0030055Y0113047D03*
X0030055Y0123047D03*
X0030055Y0093047D03*
X0030055Y0083047D03*
X0020055Y0083047D03*
X0020055Y0093047D03*
X0020055Y0073047D03*
X0020055Y0063047D03*
X0020055Y0053047D03*
X0030055Y0053047D03*
X0030055Y0063047D03*
X0030055Y0073047D03*
D17*
X0118717Y0112614D03*
X0118717Y0114583D03*
X0118717Y0116551D03*
X0118717Y0118520D03*
X0118717Y0120488D03*
X0118717Y0122457D03*
X0118717Y0124425D03*
X0118717Y0126394D03*
X0118717Y0128362D03*
X0118717Y0130331D03*
X0118717Y0132299D03*
X0118717Y0134268D03*
X0118717Y0136236D03*
X0118717Y0138205D03*
X0118717Y0140173D03*
X0118717Y0142142D03*
X0118717Y0144110D03*
X0118717Y0146079D03*
X0118717Y0148047D03*
X0118717Y0150016D03*
X0118717Y0151984D03*
X0118717Y0153953D03*
X0118717Y0155921D03*
X0118717Y0157890D03*
X0118717Y0159858D03*
X0179740Y0159858D03*
X0179740Y0157890D03*
X0179740Y0155921D03*
X0179740Y0153953D03*
X0179740Y0151984D03*
X0179740Y0150016D03*
X0179740Y0148047D03*
X0179740Y0146079D03*
X0179740Y0144110D03*
X0179740Y0142142D03*
X0179740Y0140173D03*
X0179740Y0138205D03*
X0179740Y0136236D03*
X0179740Y0134268D03*
X0179740Y0132299D03*
X0179740Y0130331D03*
X0179740Y0128362D03*
X0179740Y0126394D03*
X0179740Y0124425D03*
X0179740Y0122457D03*
X0179740Y0120488D03*
X0179740Y0118520D03*
X0179740Y0116551D03*
X0179740Y0114583D03*
X0179740Y0112614D03*
D18*
X0172850Y0105724D03*
X0170882Y0105724D03*
X0168913Y0105724D03*
X0166945Y0105724D03*
X0164976Y0105724D03*
X0163008Y0105724D03*
X0161039Y0105724D03*
X0159071Y0105724D03*
X0157102Y0105724D03*
X0155134Y0105724D03*
X0153165Y0105724D03*
X0151197Y0105724D03*
X0149228Y0105724D03*
X0147260Y0105724D03*
X0145291Y0105724D03*
X0143323Y0105724D03*
X0141354Y0105724D03*
X0139386Y0105724D03*
X0137417Y0105724D03*
X0135449Y0105724D03*
X0133480Y0105724D03*
X0131512Y0105724D03*
X0129543Y0105724D03*
X0127575Y0105724D03*
X0125606Y0105724D03*
X0125606Y0166748D03*
X0127575Y0166748D03*
X0129543Y0166748D03*
X0131512Y0166748D03*
X0133480Y0166748D03*
X0135449Y0166748D03*
X0137417Y0166748D03*
X0139386Y0166748D03*
X0141354Y0166748D03*
X0143323Y0166748D03*
X0145291Y0166748D03*
X0147260Y0166748D03*
X0149228Y0166748D03*
X0151197Y0166748D03*
X0153165Y0166748D03*
X0155134Y0166748D03*
X0157102Y0166748D03*
X0159071Y0166748D03*
X0161039Y0166748D03*
X0163008Y0166748D03*
X0164976Y0166748D03*
X0166945Y0166748D03*
X0168913Y0166748D03*
X0170882Y0166748D03*
X0172850Y0166748D03*
D19*
X0303165Y0136236D03*
D20*
X0302181Y0126787D03*
X0300213Y0126787D03*
X0298244Y0126787D03*
X0304150Y0126787D03*
X0306118Y0126787D03*
X0308087Y0126787D03*
X0308087Y0145685D03*
X0306118Y0145685D03*
X0304150Y0145685D03*
X0302181Y0145685D03*
X0300213Y0145685D03*
X0298244Y0145685D03*
D21*
X0296276Y0145882D03*
X0310055Y0145882D03*
X0310055Y0126591D03*
X0296276Y0126591D03*
D22*
X0293520Y0129346D03*
X0293520Y0143126D03*
X0312811Y0143126D03*
X0312811Y0129346D03*
D23*
X0312614Y0131315D03*
X0312614Y0133283D03*
X0312614Y0135252D03*
X0312614Y0137220D03*
X0312614Y0139189D03*
X0312614Y0141157D03*
X0293717Y0141157D03*
X0293717Y0139189D03*
X0293717Y0137220D03*
X0293717Y0135252D03*
X0293717Y0133283D03*
X0293717Y0131315D03*
D24*
X0250823Y0187417D03*
X0245823Y0187417D03*
X0240823Y0187417D03*
X0235823Y0187417D03*
X0235823Y0207890D03*
X0240823Y0207890D03*
X0245823Y0207890D03*
X0250823Y0207890D03*
D25*
X0097260Y0060449D03*
X0097260Y0052969D03*
X0088598Y0056709D03*
D26*
X0200409Y0146866D03*
X0200409Y0154740D03*
X0224425Y0140567D03*
X0232299Y0140567D03*
X0291748Y0118520D03*
X0291748Y0110646D03*
D27*
X0044780Y0224425D03*
X0044780Y0235449D03*
D28*
X0120685Y0190961D03*
X0127378Y0190961D03*
X0125803Y0182693D03*
X0132496Y0182693D03*
X0239976Y0216945D03*
X0246669Y0216945D03*
X0325016Y0179937D03*
X0331709Y0179937D03*
X0331709Y0172063D03*
X0325016Y0172063D03*
X0325016Y0164189D03*
X0331709Y0164189D03*
X0331709Y0156315D03*
X0325016Y0156315D03*
X0325016Y0148441D03*
X0331709Y0148441D03*
X0331709Y0140567D03*
X0325016Y0140567D03*
X0325016Y0132693D03*
X0331709Y0132693D03*
X0331709Y0124819D03*
X0325016Y0124819D03*
X0325016Y0116945D03*
X0331709Y0116945D03*
X0331709Y0109071D03*
X0325016Y0109071D03*
X0325016Y0101197D03*
X0331709Y0101197D03*
X0331709Y0093323D03*
X0325016Y0093323D03*
D29*
X0271669Y0120685D03*
X0271669Y0127378D03*
X0271669Y0132496D03*
X0271669Y0139189D03*
X0263402Y0139189D03*
X0263402Y0132496D03*
X0263402Y0127378D03*
X0263402Y0120685D03*
X0226000Y0123047D03*
X0226000Y0129740D03*
X0208283Y0117929D03*
X0208283Y0111236D03*
X0194898Y0111236D03*
X0194898Y0117929D03*
X0159465Y0093913D03*
X0153559Y0093913D03*
X0153559Y0087220D03*
X0159465Y0087220D03*
X0176787Y0208087D03*
X0176787Y0214780D03*
X0206315Y0214780D03*
X0216157Y0214780D03*
X0216157Y0208087D03*
X0206315Y0208087D03*
X0137417Y0208087D03*
X0127575Y0208087D03*
X0127575Y0214780D03*
X0137417Y0214780D03*
X0098047Y0214780D03*
X0098047Y0208087D03*
X0088205Y0208087D03*
X0078362Y0208087D03*
X0078362Y0214780D03*
X0088205Y0214780D03*
X0068520Y0214780D03*
X0068520Y0208087D03*
D30*
X0340479Y0213447D03*
X0351679Y0207997D03*
X0351679Y0197097D03*
X0340479Y0191647D03*
X0340479Y0202547D03*
X0351679Y0186197D03*
X0340479Y0180747D03*
X0351679Y0175297D03*
X0340479Y0169847D03*
X0340479Y0158947D03*
X0351679Y0153497D03*
X0351679Y0164397D03*
X0340479Y0148047D03*
X0351679Y0142597D03*
X0340479Y0137147D03*
X0351679Y0131697D03*
X0351679Y0120797D03*
X0340479Y0115347D03*
X0340479Y0126247D03*
X0351679Y0109897D03*
X0340479Y0104447D03*
X0351679Y0098997D03*
X0340479Y0093547D03*
X0340479Y0082647D03*
X0351679Y0088097D03*
D31*
X0346079Y0055447D03*
X0346079Y0240647D03*
D32*
X0178835Y0060252D03*
X0131433Y0060252D03*
D33*
X0150213Y0070921D03*
X0150213Y0078795D03*
X0160055Y0078795D03*
X0160055Y0070921D03*
D34*
X0204740Y0102772D02*
X0211827Y0102772D01*
X0244110Y0102772D02*
X0251197Y0102772D01*
X0283480Y0102772D02*
X0290567Y0102772D01*
X0290567Y0033874D02*
X0283480Y0033874D01*
X0251197Y0033874D02*
X0244110Y0033874D01*
X0211827Y0033874D02*
X0204740Y0033874D01*
D35*
X0263992Y0108087D03*
X0270685Y0108087D03*
D36*
X0270685Y0115764D03*
X0263992Y0115764D03*
D37*
X0254740Y0118894D03*
X0254740Y0123894D03*
X0254740Y0128894D03*
X0254740Y0133894D03*
X0234268Y0133894D03*
X0234268Y0128894D03*
X0234268Y0123894D03*
X0234268Y0118894D03*
M02*
