G75*
%MOIN*%
%OFA0B0*%
%FSLAX25Y25*%
%IPPOS*%
%LPD*%
%AMOC8*
5,1,8,0,0,1.08239X$1,22.5*
%
%ADD10R,0.04252X0.04134*%
%ADD11R,0.04134X0.04252*%
%ADD12R,0.07087X0.06299*%
%ADD13R,0.04724X0.01181*%
%ADD14R,0.01181X0.04724*%
%ADD15R,0.12402X0.12402*%
%ADD16R,0.01181X0.03150*%
%ADD17R,0.01181X0.02756*%
%ADD18R,0.02756X0.01181*%
%ADD19R,0.03150X0.01181*%
%ADD20R,0.02362X0.08661*%
%ADD21R,0.05512X0.03937*%
%ADD22R,0.03937X0.03937*%
%ADD23R,0.07874X0.06299*%
%ADD24R,0.03937X0.04331*%
%ADD25R,0.04331X0.03937*%
%ADD26R,0.03937X0.09055*%
%ADD27R,0.03937X0.03150*%
%ADD28R,0.08661X0.02362*%
D10*
X0201591Y0111138D03*
X0201591Y0118028D03*
X0220094Y0122949D03*
X0220094Y0129839D03*
X0191748Y0147358D03*
X0186236Y0147358D03*
X0186236Y0154248D03*
X0191748Y0154248D03*
X0172457Y0172319D03*
X0172457Y0179209D03*
X0257890Y0191059D03*
X0257890Y0197949D03*
X0257890Y0203264D03*
X0257890Y0210154D03*
X0302378Y0157988D03*
X0302378Y0151098D03*
X0288598Y0149524D03*
X0288598Y0142634D03*
D11*
X0297752Y0119701D03*
X0297752Y0114189D03*
X0297752Y0108677D03*
X0304642Y0108677D03*
X0304642Y0114189D03*
X0304642Y0119701D03*
X0256610Y0140567D03*
X0249720Y0140567D03*
X0244406Y0140567D03*
X0237516Y0140567D03*
X0192043Y0133874D03*
X0185154Y0133874D03*
X0179366Y0100016D03*
X0172476Y0100016D03*
X0113303Y0114189D03*
X0106413Y0114189D03*
X0118933Y0172457D03*
X0125823Y0172457D03*
D12*
X0078756Y0051197D03*
X0078756Y0062220D03*
X0105134Y0062220D03*
X0113402Y0062220D03*
X0113402Y0051197D03*
X0105134Y0051197D03*
D13*
X0118717Y0112614D03*
X0118717Y0114583D03*
X0118717Y0116551D03*
X0118717Y0118520D03*
X0118717Y0120488D03*
X0118717Y0122457D03*
X0118717Y0124425D03*
X0118717Y0126394D03*
X0118717Y0128362D03*
X0118717Y0130331D03*
X0118717Y0132299D03*
X0118717Y0134268D03*
X0118717Y0136236D03*
X0118717Y0138205D03*
X0118717Y0140173D03*
X0118717Y0142142D03*
X0118717Y0144110D03*
X0118717Y0146079D03*
X0118717Y0148047D03*
X0118717Y0150016D03*
X0118717Y0151984D03*
X0118717Y0153953D03*
X0118717Y0155921D03*
X0118717Y0157890D03*
X0118717Y0159858D03*
X0179740Y0159858D03*
X0179740Y0157890D03*
X0179740Y0155921D03*
X0179740Y0153953D03*
X0179740Y0151984D03*
X0179740Y0150016D03*
X0179740Y0148047D03*
X0179740Y0146079D03*
X0179740Y0144110D03*
X0179740Y0142142D03*
X0179740Y0140173D03*
X0179740Y0138205D03*
X0179740Y0136236D03*
X0179740Y0134268D03*
X0179740Y0132299D03*
X0179740Y0130331D03*
X0179740Y0128362D03*
X0179740Y0126394D03*
X0179740Y0124425D03*
X0179740Y0122457D03*
X0179740Y0120488D03*
X0179740Y0118520D03*
X0179740Y0116551D03*
X0179740Y0114583D03*
X0179740Y0112614D03*
D14*
X0172850Y0105724D03*
X0170882Y0105724D03*
X0168913Y0105724D03*
X0166945Y0105724D03*
X0164976Y0105724D03*
X0163008Y0105724D03*
X0161039Y0105724D03*
X0159071Y0105724D03*
X0157102Y0105724D03*
X0155134Y0105724D03*
X0153165Y0105724D03*
X0151197Y0105724D03*
X0149228Y0105724D03*
X0147260Y0105724D03*
X0145291Y0105724D03*
X0143323Y0105724D03*
X0141354Y0105724D03*
X0139386Y0105724D03*
X0137417Y0105724D03*
X0135449Y0105724D03*
X0133480Y0105724D03*
X0131512Y0105724D03*
X0129543Y0105724D03*
X0127575Y0105724D03*
X0125606Y0105724D03*
X0125606Y0166748D03*
X0127575Y0166748D03*
X0129543Y0166748D03*
X0131512Y0166748D03*
X0133480Y0166748D03*
X0135449Y0166748D03*
X0137417Y0166748D03*
X0139386Y0166748D03*
X0141354Y0166748D03*
X0143323Y0166748D03*
X0145291Y0166748D03*
X0147260Y0166748D03*
X0149228Y0166748D03*
X0151197Y0166748D03*
X0153165Y0166748D03*
X0155134Y0166748D03*
X0157102Y0166748D03*
X0159071Y0166748D03*
X0161039Y0166748D03*
X0163008Y0166748D03*
X0164976Y0166748D03*
X0166945Y0166748D03*
X0168913Y0166748D03*
X0170882Y0166748D03*
X0172850Y0166748D03*
D15*
X0303165Y0136236D03*
D16*
X0302181Y0126787D03*
X0300213Y0126787D03*
X0298244Y0126787D03*
X0304150Y0126787D03*
X0306118Y0126787D03*
X0308087Y0126787D03*
X0308087Y0145685D03*
X0306118Y0145685D03*
X0304150Y0145685D03*
X0302181Y0145685D03*
X0300213Y0145685D03*
X0298244Y0145685D03*
D17*
X0296276Y0145882D03*
X0310055Y0145882D03*
X0310055Y0126591D03*
X0296276Y0126591D03*
D18*
X0293520Y0129346D03*
X0293520Y0143126D03*
X0312811Y0143126D03*
X0312811Y0129346D03*
D19*
X0312614Y0131315D03*
X0312614Y0133283D03*
X0312614Y0135252D03*
X0312614Y0137220D03*
X0312614Y0139189D03*
X0312614Y0141157D03*
X0293717Y0141157D03*
X0293717Y0139189D03*
X0293717Y0137220D03*
X0293717Y0135252D03*
X0293717Y0133283D03*
X0293717Y0131315D03*
D20*
X0250823Y0187417D03*
X0245823Y0187417D03*
X0240823Y0187417D03*
X0235823Y0187417D03*
X0235823Y0207890D03*
X0240823Y0207890D03*
X0245823Y0207890D03*
X0250823Y0207890D03*
D21*
X0097260Y0060449D03*
X0097260Y0052969D03*
X0088598Y0056709D03*
D22*
X0200409Y0146866D03*
X0200409Y0154740D03*
X0224425Y0140567D03*
X0232299Y0140567D03*
X0291748Y0118520D03*
X0291748Y0110646D03*
D23*
X0044780Y0224425D03*
X0044780Y0235449D03*
D24*
X0120685Y0190961D03*
X0127378Y0190961D03*
X0125803Y0182693D03*
X0132496Y0182693D03*
X0239976Y0216945D03*
X0246669Y0216945D03*
X0325016Y0179937D03*
X0331709Y0179937D03*
X0331709Y0172063D03*
X0325016Y0172063D03*
X0325016Y0164189D03*
X0331709Y0164189D03*
X0331709Y0156315D03*
X0325016Y0156315D03*
X0325016Y0148441D03*
X0331709Y0148441D03*
X0331709Y0140567D03*
X0325016Y0140567D03*
X0325016Y0132693D03*
X0331709Y0132693D03*
X0331709Y0124819D03*
X0325016Y0124819D03*
X0325016Y0116945D03*
X0331709Y0116945D03*
X0331709Y0109071D03*
X0325016Y0109071D03*
X0325016Y0101197D03*
X0331709Y0101197D03*
X0331709Y0093323D03*
X0325016Y0093323D03*
D25*
X0271669Y0120685D03*
X0271669Y0127378D03*
X0271669Y0132496D03*
X0271669Y0139189D03*
X0263402Y0139189D03*
X0263402Y0132496D03*
X0263402Y0127378D03*
X0263402Y0120685D03*
X0226000Y0123047D03*
X0226000Y0129740D03*
X0208283Y0117929D03*
X0208283Y0111236D03*
X0194898Y0111236D03*
X0194898Y0117929D03*
X0159465Y0093913D03*
X0153559Y0093913D03*
X0153559Y0087220D03*
X0159465Y0087220D03*
X0176787Y0208087D03*
X0176787Y0214780D03*
X0206315Y0214780D03*
X0216157Y0214780D03*
X0216157Y0208087D03*
X0206315Y0208087D03*
X0137417Y0208087D03*
X0127575Y0208087D03*
X0127575Y0214780D03*
X0137417Y0214780D03*
X0098047Y0214780D03*
X0098047Y0208087D03*
X0088205Y0208087D03*
X0078362Y0208087D03*
X0078362Y0214780D03*
X0088205Y0214780D03*
X0068520Y0214780D03*
X0068520Y0208087D03*
D26*
X0263992Y0108087D03*
X0270685Y0108087D03*
D27*
X0270685Y0115764D03*
X0263992Y0115764D03*
D28*
X0254740Y0118894D03*
X0254740Y0123894D03*
X0254740Y0128894D03*
X0254740Y0133894D03*
X0234268Y0133894D03*
X0234268Y0128894D03*
X0234268Y0123894D03*
X0234268Y0118894D03*
M02*
